<?xml version="1.0" encoding="utf-8" standalone="no"?>
<!DOCTYPE svg PUBLIC "-//W3C//DTD SVG 1.1//EN"
  "http://www.w3.org/Graphics/SVG/1.1/DTD/svg11.dtd">
<svg xmlns:xlink="http://www.w3.org/1999/xlink" width="203.044687pt" height="205.377375pt" viewBox="0 0 203.044687 205.377375" xmlns="http://www.w3.org/2000/svg" version="1.1">
 <metadata>
  <rdf:RDF xmlns:dc="http://purl.org/dc/elements/1.1/" xmlns:cc="http://creativecommons.org/ns#" xmlns:rdf="http://www.w3.org/1999/02/22-rdf-syntax-ns#">
   <cc:Work>
    <dc:type rdf:resource="http://purl.org/dc/dcmitype/StillImage"/>
    <dc:date>2022-06-10T10:12:19.560174</dc:date>
    <dc:format>image/svg+xml</dc:format>
    <dc:creator>
     <cc:Agent>
      <dc:title>Matplotlib v3.5.2, https://matplotlib.org/</dc:title>
     </cc:Agent>
    </dc:creator>
   </cc:Work>
  </rdf:RDF>
 </metadata>
 <defs>
  <style type="text/css">*{stroke-linejoin: round; stroke-linecap: butt}</style>
 </defs>
 <g id="figure_1">
  <g id="patch_1">
   <path d="M 0 205.377375 
L 203.044687 205.377375 
L 203.044687 0 
L 0 0 
L 0 205.377375 
z
" style="fill: none"/>
  </g>
  <g id="axes_1">
   <g id="LineCollection_1">
    <path d="M 73.440207 35.940945 
L 92.66886 120.850905 
" clip-path="url(#p4c887c07b8)" style="fill: none; stroke: #989b9f"/>
    <path d="M 73.440207 35.940945 
L 135.824507 39.999076 
" clip-path="url(#p4c887c07b8)" style="fill: none; stroke: #d1d5db"/>
    <path d="M 73.440207 35.940945 
L 42.971134 93.346395 
" clip-path="url(#p4c887c07b8)" style="fill: none; stroke: #989b9f"/>
    <path d="M 73.440207 35.940945 
L 95.199294 48.609546 
" clip-path="url(#p4c887c07b8)" style="fill: none; stroke: #989b9f"/>
    <path d="M 73.440207 35.940945 
L 67.302003 109.340586 
" clip-path="url(#p4c887c07b8)" style="fill: none; stroke: #989b9f"/>
    <path d="M 73.440207 35.940945 
L 125.558699 76.673367 
" clip-path="url(#p4c887c07b8)" style="fill: none; stroke: #5f6063"/>
    <path d="M 73.440207 35.940945 
L 119.801998 120.017879 
" clip-path="url(#p4c887c07b8)" style="fill: none; stroke: #989b9f"/>
    <path d="M 73.440207 35.940945 
L 87.028093 90.778849 
" clip-path="url(#p4c887c07b8)" style="fill: none; stroke: #989b9f"/>
    <path d="M 73.440207 35.940945 
L 114.330074 57.129536 
" clip-path="url(#p4c887c07b8)" style="fill: none; stroke: #989b9f"/>
    <path d="M 73.440207 35.940945 
L 107.495952 99.804835 
" clip-path="url(#p4c887c07b8)" style="fill: none; stroke: #7b7d80"/>
    <path d="M 92.66886 120.850905 
L 135.824507 39.999076 
" clip-path="url(#p4c887c07b8)" style="fill: none; stroke: #b5b8bd"/>
    <path d="M 92.66886 120.850905 
L 42.971134 93.346395 
" clip-path="url(#p4c887c07b8)" style="fill: none; stroke: #d1d5db"/>
    <path d="M 92.66886 120.850905 
L 95.199294 48.609546 
" clip-path="url(#p4c887c07b8)" style="fill: none; stroke: #989b9f"/>
    <path d="M 92.66886 120.850905 
L 67.302003 109.340586 
" clip-path="url(#p4c887c07b8)" style="fill: none; stroke: #989b9f"/>
    <path d="M 92.66886 120.850905 
L 125.558699 76.673367 
" clip-path="url(#p4c887c07b8)" style="fill: none; stroke: #5f6063"/>
    <path d="M 92.66886 120.850905 
L 128.936115 169.339262 
" clip-path="url(#p4c887c07b8)" style="fill: none; stroke: #b5b8bd"/>
    <path d="M 92.66886 120.850905 
L 119.801998 120.017879 
" clip-path="url(#p4c887c07b8)" style="fill: none; stroke: #5f6063"/>
    <path d="M 92.66886 120.850905 
L 87.028093 90.778849 
" clip-path="url(#p4c887c07b8)" style="fill: none; stroke: #252626"/>
    <path d="M 92.66886 120.850905 
L 114.330074 57.129536 
" clip-path="url(#p4c887c07b8)" style="fill: none; stroke: #b5b8bd"/>
    <path d="M 92.66886 120.850905 
L 97.703673 170.717805 
" clip-path="url(#p4c887c07b8)" style="fill: none; stroke: #b5b8bd"/>
    <path d="M 92.66886 120.850905 
L 107.495952 99.804835 
" clip-path="url(#p4c887c07b8)" style="fill: none; stroke: #424344"/>
    <path d="M 92.66886 120.850905 
L 153.725345 81.985685 
" clip-path="url(#p4c887c07b8)" style="fill: none; stroke: #989b9f"/>
    <path d="M 92.66886 120.850905 
L 152.576213 131.635546 
" clip-path="url(#p4c887c07b8)" style="fill: none; stroke: #b5b8bd"/>
    <path d="M 135.824507 39.999076 
L 95.199294 48.609546 
" clip-path="url(#p4c887c07b8)" style="fill: none; stroke: #b5b8bd"/>
    <path d="M 135.824507 39.999076 
L 67.302003 109.340586 
" clip-path="url(#p4c887c07b8)" style="fill: none; stroke: #b5b8bd"/>
    <path d="M 135.824507 39.999076 
L 125.558699 76.673367 
" clip-path="url(#p4c887c07b8)" style="fill: none; stroke: #b5b8bd"/>
    <path d="M 135.824507 39.999076 
L 181.318241 88.956418 
" clip-path="url(#p4c887c07b8)" style="fill: none; stroke: #d1d5db"/>
    <path d="M 135.824507 39.999076 
L 87.028093 90.778849 
" clip-path="url(#p4c887c07b8)" style="fill: none; stroke: #d1d5db"/>
    <path d="M 135.824507 39.999076 
L 114.330074 57.129536 
" clip-path="url(#p4c887c07b8)" style="fill: none; stroke: #b5b8bd"/>
    <path d="M 135.824507 39.999076 
L 107.495952 99.804835 
" clip-path="url(#p4c887c07b8)" style="fill: none; stroke: #b5b8bd"/>
    <path d="M 135.824507 39.999076 
L 152.576213 131.635546 
" clip-path="url(#p4c887c07b8)" style="fill: none; stroke: #d1d5db"/>
    <path d="M 42.971134 93.346395 
L 67.302003 109.340586 
" clip-path="url(#p4c887c07b8)" style="fill: none; stroke: #d1d5db"/>
    <path d="M 42.971134 93.346395 
L 125.558699 76.673367 
" clip-path="url(#p4c887c07b8)" style="fill: none; stroke: #b5b8bd"/>
    <path d="M 42.971134 93.346395 
L 119.801998 120.017879 
" clip-path="url(#p4c887c07b8)" style="fill: none; stroke: #b5b8bd"/>
    <path d="M 42.971134 93.346395 
L 87.028093 90.778849 
" clip-path="url(#p4c887c07b8)" style="fill: none; stroke: #5f6063"/>
    <path d="M 42.971134 93.346395 
L 114.330074 57.129536 
" clip-path="url(#p4c887c07b8)" style="fill: none; stroke: #d1d5db"/>
    <path d="M 42.971134 93.346395 
L 107.495952 99.804835 
" clip-path="url(#p4c887c07b8)" style="fill: none; stroke: #b5b8bd"/>
    <path d="M 95.199294 48.609546 
L 67.302003 109.340586 
" clip-path="url(#p4c887c07b8)" style="fill: none; stroke: #b5b8bd"/>
    <path d="M 95.199294 48.609546 
L 125.558699 76.673367 
" clip-path="url(#p4c887c07b8)" style="fill: none; stroke: #7b7d80"/>
    <path d="M 95.199294 48.609546 
L 119.801998 120.017879 
" clip-path="url(#p4c887c07b8)" style="fill: none; stroke: #989b9f"/>
    <path d="M 95.199294 48.609546 
L 181.318241 88.956418 
" clip-path="url(#p4c887c07b8)" style="fill: none; stroke: #b5b8bd"/>
    <path d="M 95.199294 48.609546 
L 87.028093 90.778849 
" clip-path="url(#p4c887c07b8)" style="fill: none; stroke: #989b9f"/>
    <path d="M 95.199294 48.609546 
L 114.330074 57.129536 
" clip-path="url(#p4c887c07b8)" style="fill: none; stroke: #7b7d80"/>
    <path d="M 95.199294 48.609546 
L 107.495952 99.804835 
" clip-path="url(#p4c887c07b8)" style="fill: none; stroke: #7b7d80"/>
    <path d="M 95.199294 48.609546 
L 153.725345 81.985685 
" clip-path="url(#p4c887c07b8)" style="fill: none; stroke: #7b7d80"/>
    <path d="M 67.302003 109.340586 
L 125.558699 76.673367 
" clip-path="url(#p4c887c07b8)" style="fill: none; stroke: #989b9f"/>
    <path d="M 67.302003 109.340586 
L 128.936115 169.339262 
" clip-path="url(#p4c887c07b8)" style="fill: none; stroke: #d1d5db"/>
    <path d="M 67.302003 109.340586 
L 119.801998 120.017879 
" clip-path="url(#p4c887c07b8)" style="fill: none; stroke: #b5b8bd"/>
    <path d="M 67.302003 109.340586 
L 87.028093 90.778849 
" clip-path="url(#p4c887c07b8)" style="fill: none; stroke: #b5b8bd"/>
    <path d="M 67.302003 109.340586 
L 114.330074 57.129536 
" clip-path="url(#p4c887c07b8)" style="fill: none; stroke: #d1d5db"/>
    <path d="M 67.302003 109.340586 
L 97.703673 170.717805 
" clip-path="url(#p4c887c07b8)" style="fill: none; stroke: #d1d5db"/>
    <path d="M 67.302003 109.340586 
L 107.495952 99.804835 
" clip-path="url(#p4c887c07b8)" style="fill: none; stroke: #b5b8bd"/>
    <path d="M 125.558699 76.673367 
L 119.801998 120.017879 
" clip-path="url(#p4c887c07b8)" style="fill: none; stroke: #424344"/>
    <path d="M 125.558699 76.673367 
L 181.318241 88.956418 
" clip-path="url(#p4c887c07b8)" style="fill: none; stroke: #d1d5db"/>
    <path d="M 125.558699 76.673367 
L 87.028093 90.778849 
" clip-path="url(#p4c887c07b8)" style="fill: none; stroke: #5f6063"/>
    <path d="M 125.558699 76.673367 
L 114.330074 57.129536 
" clip-path="url(#p4c887c07b8)" style="fill: none; stroke: #424344"/>
    <path d="M 125.558699 76.673367 
L 107.495952 99.804835 
" clip-path="url(#p4c887c07b8)" style="fill: none; stroke: #424344"/>
    <path d="M 125.558699 76.673367 
L 153.725345 81.985685 
" clip-path="url(#p4c887c07b8)" style="fill: none; stroke: #7b7d80"/>
    <path d="M 125.558699 76.673367 
L 152.576213 131.635546 
" clip-path="url(#p4c887c07b8)" style="fill: none; stroke: #d1d5db"/>
    <path d="M 128.936115 169.339262 
L 119.801998 120.017879 
" clip-path="url(#p4c887c07b8)" style="fill: none; stroke: #b5b8bd"/>
    <path d="M 128.936115 169.339262 
L 87.028093 90.778849 
" clip-path="url(#p4c887c07b8)" style="fill: none; stroke: #b5b8bd"/>
    <path d="M 128.936115 169.339262 
L 97.703673 170.717805 
" clip-path="url(#p4c887c07b8)" style="fill: none; stroke: #424344"/>
    <path d="M 128.936115 169.339262 
L 107.495952 99.804835 
" clip-path="url(#p4c887c07b8)" style="fill: none; stroke: #b5b8bd"/>
    <path d="M 128.936115 169.339262 
L 153.725345 81.985685 
" clip-path="url(#p4c887c07b8)" style="fill: none; stroke: #d1d5db"/>
    <path d="M 128.936115 169.339262 
L 152.576213 131.635546 
" clip-path="url(#p4c887c07b8)" style="fill: none; stroke: #d1d5db"/>
    <path d="M 119.801998 120.017879 
L 181.318241 88.956418 
" clip-path="url(#p4c887c07b8)" style="fill: none; stroke: #d1d5db"/>
    <path d="M 119.801998 120.017879 
L 87.028093 90.778849 
" clip-path="url(#p4c887c07b8)" style="fill: none; stroke: #989b9f"/>
    <path d="M 119.801998 120.017879 
L 114.330074 57.129536 
" clip-path="url(#p4c887c07b8)" style="fill: none; stroke: #d1d5db"/>
    <path d="M 119.801998 120.017879 
L 97.703673 170.717805 
" clip-path="url(#p4c887c07b8)" style="fill: none; stroke: #b5b8bd"/>
    <path d="M 119.801998 120.017879 
L 107.495952 99.804835 
" clip-path="url(#p4c887c07b8)" style="fill: none; stroke: #989b9f"/>
    <path d="M 119.801998 120.017879 
L 153.725345 81.985685 
" clip-path="url(#p4c887c07b8)" style="fill: none; stroke: #b5b8bd"/>
    <path d="M 119.801998 120.017879 
L 152.576213 131.635546 
" clip-path="url(#p4c887c07b8)" style="fill: none; stroke: #d1d5db"/>
    <path d="M 181.318241 88.956418 
L 114.330074 57.129536 
" clip-path="url(#p4c887c07b8)" style="fill: none; stroke: #d1d5db"/>
    <path d="M 181.318241 88.956418 
L 153.725345 81.985685 
" clip-path="url(#p4c887c07b8)" style="fill: none; stroke: #989b9f"/>
    <path d="M 87.028093 90.778849 
L 114.330074 57.129536 
" clip-path="url(#p4c887c07b8)" style="fill: none; stroke: #7b7d80"/>
    <path d="M 87.028093 90.778849 
L 97.703673 170.717805 
" clip-path="url(#p4c887c07b8)" style="fill: none; stroke: #d1d5db"/>
    <path d="M 87.028093 90.778849 
L 107.495952 99.804835 
" clip-path="url(#p4c887c07b8)" style="fill: none; stroke: #252626"/>
    <path d="M 87.028093 90.778849 
L 153.725345 81.985685 
" clip-path="url(#p4c887c07b8)" style="fill: none; stroke: #989b9f"/>
    <path d="M 87.028093 90.778849 
L 152.576213 131.635546 
" clip-path="url(#p4c887c07b8)" style="fill: none; stroke: #d1d5db"/>
    <path d="M 114.330074 57.129536 
L 107.495952 99.804835 
" clip-path="url(#p4c887c07b8)" style="fill: none; stroke: #424344"/>
    <path d="M 114.330074 57.129536 
L 153.725345 81.985685 
" clip-path="url(#p4c887c07b8)" style="fill: none; stroke: #b5b8bd"/>
    <path d="M 114.330074 57.129536 
L 152.576213 131.635546 
" clip-path="url(#p4c887c07b8)" style="fill: none; stroke: #d1d5db"/>
    <path d="M 97.703673 170.717805 
L 107.495952 99.804835 
" clip-path="url(#p4c887c07b8)" style="fill: none; stroke: #b5b8bd"/>
    <path d="M 97.703673 170.717805 
L 153.725345 81.985685 
" clip-path="url(#p4c887c07b8)" style="fill: none; stroke: #d1d5db"/>
    <path d="M 97.703673 170.717805 
L 152.576213 131.635546 
" clip-path="url(#p4c887c07b8)" style="fill: none; stroke: #d1d5db"/>
    <path d="M 107.495952 99.804835 
L 153.725345 81.985685 
" clip-path="url(#p4c887c07b8)" style="fill: none; stroke: #989b9f"/>
    <path d="M 107.495952 99.804835 
L 152.576213 131.635546 
" clip-path="url(#p4c887c07b8)" style="fill: none; stroke: #989b9f"/>
   </g>
   <g id="PathCollection_1"/>
   <g id="PathCollection_2"/>
   <g id="PathCollection_3"/>
   <g id="PathCollection_4">
    <path d="M 73.440207 40.72186 
C 74.708121 40.72186 75.924274 40.218112 76.820824 39.321562 
C 77.717374 38.425012 78.221122 37.208859 78.221122 35.940945 
C 78.221122 34.673032 77.717374 33.456878 76.820824 32.560328 
C 75.924274 31.663778 74.708121 31.160031 73.440207 31.160031 
C 72.172294 31.160031 70.95614 31.663778 70.05959 32.560328 
C 69.16304 33.456878 68.659293 34.673032 68.659293 35.940945 
C 68.659293 37.208859 69.16304 38.425012 70.05959 39.321562 
C 70.95614 40.218112 72.172294 40.72186 73.440207 40.72186 
z
" clip-path="url(#p4c887c07b8)" style="fill: #3f4788; stroke: #3f4788"/>
    <path d="M 92.66886 124.335565 
C 93.593003 124.335565 94.47942 123.968399 95.132887 123.314931 
C 95.786355 122.661464 96.153521 121.775047 96.153521 120.850905 
C 96.153521 119.926762 95.786355 119.040345 95.132887 118.386878 
C 94.47942 117.73341 93.593003 117.366244 92.66886 117.366244 
C 91.744718 117.366244 90.858301 117.73341 90.204834 118.386878 
C 89.551366 119.040345 89.1842 119.926762 89.1842 120.850905 
C 89.1842 121.775047 89.551366 122.661464 90.204834 123.314931 
C 90.858301 123.968399 91.744718 124.335565 92.66886 124.335565 
z
" clip-path="url(#p4c887c07b8)" style="fill: #440154; stroke: #440154"/>
    <path d="M 135.824507 45.476302 
C 137.277084 45.476302 138.670363 44.899187 139.69749 43.87206 
C 140.724617 42.844933 141.301732 41.451654 141.301732 39.999076 
C 141.301732 38.546499 140.724617 37.15322 139.69749 36.126093 
C 138.670363 35.098966 137.277084 34.521851 135.824507 34.521851 
C 134.371929 34.521851 132.97865 35.098966 131.951523 36.126093 
C 130.924396 37.15322 130.347281 38.546499 130.347281 39.999076 
C 130.347281 41.451654 130.924396 42.844933 131.951523 43.87206 
C 132.97865 44.899187 134.371929 45.476302 135.824507 45.476302 
z
" clip-path="url(#p4c887c07b8)" style="fill: #75d054; stroke: #75d054"/>
    <path d="M 42.971134 98.250233 
C 44.271647 98.250233 45.519069 97.733533 46.43867 96.813932 
C 47.358272 95.894331 47.874971 94.646908 47.874971 93.346395 
C 47.874971 92.045883 47.358272 90.79846 46.43867 89.878859 
C 45.519069 88.959257 44.271647 88.442558 42.971134 88.442558 
C 41.670621 88.442558 40.423199 88.959257 39.503597 89.878859 
C 38.583996 90.79846 38.067297 92.045883 38.067297 93.346395 
C 38.067297 94.646908 38.583996 95.894331 39.503597 96.813932 
C 40.423199 97.733533 41.670621 98.250233 42.971134 98.250233 
z
" clip-path="url(#p4c887c07b8)" style="fill: #fde725; stroke: #fde725"/>
    <path d="M 95.199294 52.573671 
C 96.250592 52.573671 97.258973 52.155986 98.002353 51.412605 
C 98.745733 50.669225 99.163418 49.660844 99.163418 48.609546 
C 99.163418 47.558248 98.745733 46.549866 98.002353 45.806486 
C 97.258973 45.063106 96.250592 44.645421 95.199294 44.645421 
C 94.147995 44.645421 93.139614 45.063106 92.396234 45.806486 
C 91.652854 46.549866 91.235169 47.558248 91.235169 48.609546 
C 91.235169 49.660844 91.652854 50.669225 92.396234 51.412605 
C 93.139614 52.155986 94.147995 52.573671 95.199294 52.573671 
z
" clip-path="url(#p4c887c07b8)" style="fill: #440256; stroke: #440256"/>
    <path d="M 67.302003 114.595969 
C 68.695747 114.595969 70.032594 114.042228 71.01812 113.056703 
C 72.003646 112.071177 72.557386 110.73433 72.557386 109.340586 
C 72.557386 107.946842 72.003646 106.609995 71.01812 105.624469 
C 70.032594 104.638944 68.695747 104.085203 67.302003 104.085203 
C 65.90826 104.085203 64.571412 104.638944 63.585887 105.624469 
C 62.600361 106.609995 62.046621 107.946842 62.046621 109.340586 
C 62.046621 110.73433 62.600361 112.071177 63.585887 113.056703 
C 64.571412 114.042228 65.90826 114.595969 67.302003 114.595969 
z
" clip-path="url(#p4c887c07b8)" style="fill: #1f958b; stroke: #1f958b"/>
    <path d="M 125.558699 79.797772 
C 126.3873 79.797772 127.182076 79.468565 127.767986 78.882655 
C 128.353896 78.296745 128.683103 77.501969 128.683103 76.673367 
C 128.683103 75.844766 128.353896 75.04999 127.767986 74.46408 
C 127.182076 73.87817 126.3873 73.548963 125.558699 73.548963 
C 124.730097 73.548963 123.935321 73.87817 123.349411 74.46408 
C 122.763501 75.04999 122.434294 75.844766 122.434294 76.673367 
C 122.434294 77.501969 122.763501 78.296745 123.349411 78.882655 
C 123.935321 79.468565 124.730097 79.797772 125.558699 79.797772 
z
" clip-path="url(#p4c887c07b8)" style="fill: #48186a; stroke: #48186a"/>
    <path d="M 119.801998 125.158752 
C 121.165373 125.158752 122.473092 124.617077 123.437144 123.653025 
C 124.401196 122.688973 124.942871 121.381254 124.942871 120.017879 
C 124.942871 118.654504 124.401196 117.346785 123.437144 116.382733 
C 122.473092 115.418681 121.165373 114.877006 119.801998 114.877006 
C 118.438623 114.877006 117.130904 115.418681 116.166852 116.382733 
C 115.2028 117.346785 114.661125 118.654504 114.661125 120.017879 
C 114.661125 121.381254 115.2028 122.688973 116.166852 123.653025 
C 117.130904 124.617077 118.438623 125.158752 119.801998 125.158752 
z
" clip-path="url(#p4c887c07b8)" style="fill: #443a83; stroke: #443a83"/>
    <path d="M 87.028093 93.70655 
C 87.804528 93.70655 88.549267 93.398069 89.09829 92.849046 
C 89.647312 92.300024 89.955793 91.555285 89.955793 90.778849 
C 89.955793 90.002414 89.647312 89.257675 89.09829 88.708653 
C 88.549267 88.15963 87.804528 87.851149 87.028093 87.851149 
C 86.251658 87.851149 85.506919 88.15963 84.957896 88.708653 
C 84.408874 89.257675 84.100393 90.002414 84.100393 90.778849 
C 84.100393 91.555285 84.408874 92.300024 84.957896 92.849046 
C 85.506919 93.398069 86.251658 93.70655 87.028093 93.70655 
z
" clip-path="url(#p4c887c07b8)" style="fill: #440154; stroke: #440154"/>
    <path d="M 114.330074 62.384919 
C 115.723818 62.384919 117.060665 61.831178 118.046191 60.845653 
C 119.031717 59.860127 119.585457 58.52328 119.585457 57.129536 
C 119.585457 55.735792 119.031717 54.398945 118.046191 53.413419 
C 117.060665 52.427893 115.723818 51.874153 114.330074 51.874153 
C 112.936331 51.874153 111.599483 52.427893 110.613958 53.413419 
C 109.628432 54.398945 109.074692 55.735792 109.074692 57.129536 
C 109.074692 58.52328 109.628432 59.860127 110.613958 60.845653 
C 111.599483 61.831178 112.936331 62.384919 114.330074 62.384919 
z
" clip-path="url(#p4c887c07b8)" style="fill: #460a5d; stroke: #460a5d"/>
    <path d="M 107.495952 102.040903 
C 108.088964 102.040903 108.657768 101.805297 109.07709 101.385974 
C 109.496413 100.966651 109.73202 100.397847 109.73202 99.804835 
C 109.73202 99.211823 109.496413 98.643019 109.07709 98.223696 
C 108.657768 97.804373 108.088964 97.568767 107.495952 97.568767 
C 106.902939 97.568767 106.334136 97.804373 105.914813 98.223696 
C 105.49549 98.643019 105.259884 99.211823 105.259884 99.804835 
C 105.259884 100.397847 105.49549 100.966651 105.914813 101.385974 
C 106.334136 101.805297 106.902939 102.040903 107.495952 102.040903 
z
" clip-path="url(#p4c887c07b8)" style="fill: #460a5d; stroke: #460a5d"/>
    <path d="M 128.936115 173.994009 
C 130.170568 173.994009 131.354628 173.503555 132.227518 172.630665 
C 133.100408 171.757774 133.590862 170.573715 133.590862 169.339262 
C 133.590862 168.104809 133.100408 166.920749 132.227518 166.047859 
C 131.354628 165.174969 130.170568 164.684515 128.936115 164.684515 
C 127.701662 164.684515 126.517602 165.174969 125.644712 166.047859 
C 124.771822 166.920749 124.281368 168.104809 124.281368 169.339262 
C 124.281368 170.573715 124.771822 171.757774 125.644712 172.630665 
C 126.517602 173.503555 127.701662 173.994009 128.936115 173.994009 
z
" clip-path="url(#p4c887c07b8)" style="fill: #482071; stroke: #482071"/>
    <path d="M 97.703673 175.973187 
C 99.097417 175.973187 100.434264 175.419447 101.41979 174.433922 
C 102.405316 173.448396 102.959056 172.111549 102.959056 170.717805 
C 102.959056 169.324061 102.405316 167.987214 101.41979 167.001688 
C 100.434264 166.016162 99.097417 165.462422 97.703673 165.462422 
C 96.309929 165.462422 94.973082 166.016162 93.987556 167.001688 
C 93.002031 167.987214 92.44829 169.324061 92.44829 170.717805 
C 92.44829 172.111549 93.002031 173.448396 93.987556 174.433922 
C 94.973082 175.419447 96.309929 175.973187 97.703673 175.973187 
z
" clip-path="url(#p4c887c07b8)" style="fill: #48186a; stroke: #48186a"/>
    <path d="M 153.725345 85.949809 
C 154.776643 85.949809 155.785024 85.532124 156.528404 84.788744 
C 157.271784 84.045364 157.689469 83.036983 157.689469 81.985685 
C 157.689469 80.934386 157.271784 79.926005 156.528404 79.182625 
C 155.785024 78.439245 154.776643 78.02156 153.725345 78.02156 
C 152.674046 78.02156 151.665665 78.439245 150.922285 79.182625 
C 150.178905 79.926005 149.76122 80.934386 149.76122 81.985685 
C 149.76122 83.036983 150.178905 84.045364 150.922285 84.788744 
C 151.665665 85.532124 152.674046 85.949809 153.725345 85.949809 
z
" clip-path="url(#p4c887c07b8)" style="fill: #48186a; stroke: #48186a"/>
    <path d="M 152.576213 134.563247 
C 153.352648 134.563247 154.097387 134.254766 154.646409 133.705743 
C 155.195432 133.156721 155.503913 132.411982 155.503913 131.635546 
C 155.503913 130.859111 155.195432 130.114372 154.646409 129.56535 
C 154.097387 129.016327 153.352648 128.707846 152.576213 128.707846 
C 151.799778 128.707846 151.055039 129.016327 150.506016 129.56535 
C 149.956994 130.114372 149.648513 130.859111 149.648513 131.635546 
C 149.648513 132.411982 149.956994 133.156721 150.506016 133.705743 
C 151.055039 134.254766 151.799778 134.563247 152.576213 134.563247 
z
" clip-path="url(#p4c887c07b8)" style="fill: #440154; stroke: #440154"/>
    <path d="M 181.318241 94.433644 
C 182.770818 94.433644 184.164097 93.856529 185.191225 92.829401 
C 186.218352 91.802274 186.795467 90.408995 186.795467 88.956418 
C 186.795467 87.503841 186.218352 86.110562 185.191225 85.083435 
C 184.164097 84.056308 182.770818 83.479192 181.318241 83.479192 
C 179.865664 83.479192 178.472385 84.056308 177.445258 85.083435 
C 176.418131 86.110562 175.841016 87.503841 175.841016 88.956418 
C 175.841016 90.408995 176.418131 91.802274 177.445258 92.829401 
C 178.472385 93.856529 179.865664 94.433644 181.318241 94.433644 
z
" clip-path="url(#p4c887c07b8)" style="fill: #482071; stroke: #482071"/>
   </g>
   <g id="text_1">
    <g clip-path="url(#p4c887c07b8)">
     <text style="font: 6px 'sans-serif'; text-anchor: middle" x="73.440207" y="34.748445" transform="rotate(-0, 73.440207, 34.748445)">EGR1</text>
    </g>
   </g>
   <g id="text_2">
    <g clip-path="url(#p4c887c07b8)">
     <text style="font: 6px 'sans-serif'; text-anchor: middle" x="92.66886" y="119.658405" transform="rotate(-0, 92.66886, 119.658405)">ETS1</text>
    </g>
   </g>
   <g id="text_3">
    <g clip-path="url(#p4c887c07b8)">
     <text style="font: 6px 'sans-serif'; text-anchor: middle" x="135.824507" y="38.806576" transform="rotate(-0, 135.824507, 38.806576)">POU2F1</text>
    </g>
   </g>
   <g id="text_4">
    <g clip-path="url(#p4c887c07b8)">
     <text style="font: 6px 'sans-serif'; text-anchor: middle" x="42.971134" y="92.153895" transform="rotate(-0, 42.971134, 92.153895)">AR</text>
    </g>
   </g>
   <g id="text_5">
    <g clip-path="url(#p4c887c07b8)">
     <text style="font: 6px 'sans-serif'; text-anchor: middle" x="95.199294" y="47.417046" transform="rotate(-0, 95.199294, 47.417046)">CEBPA</text>
    </g>
   </g>
   <g id="text_6">
    <g clip-path="url(#p4c887c07b8)">
     <text style="font: 6px 'sans-serif'; text-anchor: middle" x="67.302003" y="108.148086" transform="rotate(-0, 67.302003, 108.148086)">CREB1</text>
    </g>
   </g>
   <g id="text_7">
    <g clip-path="url(#p4c887c07b8)">
     <text style="font: 6px 'sans-serif'; text-anchor: middle" x="125.558699" y="75.480867" transform="rotate(-0, 125.558699, 75.480867)">SP1</text>
    </g>
   </g>
   <g id="text_8">
    <g clip-path="url(#p4c887c07b8)">
     <text style="font: 6px 'sans-serif'; text-anchor: middle" x="128.936115" y="168.146762" transform="rotate(-0, 128.936115, 168.146762)">USF1</text>
    </g>
   </g>
   <g id="text_9">
    <g clip-path="url(#p4c887c07b8)">
     <text style="font: 6px 'sans-serif'; text-anchor: middle" x="119.801998" y="118.825379" transform="rotate(-0, 119.801998, 118.825379)">HIF1A</text>
    </g>
   </g>
   <g id="text_10">
    <g clip-path="url(#p4c887c07b8)">
     <text style="font: 6px 'sans-serif'; text-anchor: middle" x="114.330074" y="55.937036" transform="rotate(-0, 114.330074, 55.937036)">JUN</text>
    </g>
   </g>
   <g id="text_11">
    <g clip-path="url(#p4c887c07b8)">
     <text style="font: 6px 'sans-serif'; text-anchor: middle" x="97.703673" y="169.525305" transform="rotate(-0, 97.703673, 169.525305)">USF2</text>
    </g>
   </g>
   <g id="text_12">
    <g clip-path="url(#p4c887c07b8)">
     <text style="font: 6px 'sans-serif'; text-anchor: middle" x="107.495952" y="98.612335" transform="rotate(-0, 107.495952, 98.612335)">NFKB1</text>
    </g>
   </g>
   <g id="text_13">
    <g clip-path="url(#p4c887c07b8)">
     <text style="font: 6px 'sans-serif'; text-anchor: middle" x="152.576213" y="130.443046" transform="rotate(-0, 152.576213, 130.443046)">ERG</text>
    </g>
   </g>
   <g id="text_14">
    <g clip-path="url(#p4c887c07b8)">
     <text style="fill: #1a1a1a; font: 9px 'sans-serif'; text-anchor: middle" x="87.028093" y="88.990099" transform="rotate(-0, 87.028093, 88.990099)">STAT1</text>
    </g>
   </g>
   <g id="text_15">
    <g clip-path="url(#p4c887c07b8)">
     <text style="fill: #1a1a1a; font: 9px 'sans-serif'; text-anchor: middle" x="153.725345" y="80.196935" transform="rotate(-0, 153.725345, 80.196935)">SPI1</text>
    </g>
   </g>
   <g id="text_16">
    <g clip-path="url(#p4c887c07b8)">
     <text style="fill: #1a1a1a; font: 9px 'sans-serif'; text-anchor: middle" x="181.318241" y="87.167668" transform="rotate(-0, 181.318241, 87.167668)">RUNX1</text>
    </g>
   </g>
   <g id="text_17">
    <text style="fill: #262626; font: 12px 'sans-serif'; text-anchor: middle" x="112.144687" y="15.789375" transform="rotate(-0, 112.144687, 15.789375)">MDE</text>
   </g>
   <g id="legend_1">
    <g id="patch_2">
     <path d="M 8.4 157.807875 
L 91.204687 157.807875 
Q 92.404687 157.807875 92.404687 156.607875 
L 92.404687 140.145375 
Q 92.404687 138.945375 91.204687 138.945375 
L 8.4 138.945375 
Q 7.2 138.945375 7.2 140.145375 
L 7.2 156.607875 
Q 7.2 157.807875 8.4 157.807875 
z
" style="fill: #ffffff; opacity: 0.8; stroke: #cccccc; stroke-linejoin: miter"/>
    </g>
    <g id="patch_3">
     <path d="M 9.6 145.657875 
L 11.1 145.657875 
L 11.1 141.457875 
L 9.6 141.457875 
z
" style="fill: #48186a"/>
    </g>
    <g id="patch_4">
     <path d="M 11.1 145.657875 
L 12.6 145.657875 
L 12.6 141.457875 
L 11.1 141.457875 
z
" style="fill: #424086"/>
    </g>
    <g id="patch_5">
     <path d="M 12.6 145.657875 
L 14.1 145.657875 
L 14.1 141.457875 
L 12.6 141.457875 
z
" style="fill: #33638d"/>
    </g>
    <g id="patch_6">
     <path d="M 14.1 145.657875 
L 15.6 145.657875 
L 15.6 141.457875 
L 14.1 141.457875 
z
" style="fill: #26828e"/>
    </g>
    <g id="patch_7">
     <path d="M 15.6 145.657875 
L 17.1 145.657875 
L 17.1 141.457875 
L 15.6 141.457875 
z
" style="fill: #1fa088"/>
    </g>
    <g id="patch_8">
     <path d="M 17.1 145.657875 
L 18.6 145.657875 
L 18.6 141.457875 
L 17.1 141.457875 
z
" style="fill: #3fbc73"/>
    </g>
    <g id="patch_9">
     <path d="M 18.6 145.657875 
L 20.1 145.657875 
L 20.1 141.457875 
L 18.6 141.457875 
z
" style="fill: #84d44b"/>
    </g>
    <g id="patch_10">
     <path d="M 20.1 145.657875 
L 21.6 145.657875 
L 21.6 141.457875 
L 20.1 141.457875 
z
" style="fill: #d8e219"/>
    </g>
    <g id="text_18">
     <text style="fill: #262626; font: 6px 'sans-serif'; text-anchor: start" x="26.4" y="145.657875" transform="rotate(-0, 26.4, 145.657875)">P.adj:3.10e-08,4.79e-02</text>
    </g>
    <g id="patch_11">
     <path d="M 9.6 154.215375 
L 11.1 154.215375 
L 11.1 150.015375 
L 9.6 150.015375 
z
" style="fill: #d1d5db"/>
    </g>
    <g id="patch_12">
     <path d="M 11.1 154.215375 
L 12.6 154.215375 
L 12.6 150.015375 
L 11.1 150.015375 
z
" style="fill: #b5b8bd"/>
    </g>
    <g id="patch_13">
     <path d="M 12.6 154.215375 
L 14.1 154.215375 
L 14.1 150.015375 
L 12.6 150.015375 
z
" style="fill: #989b9f"/>
    </g>
    <g id="patch_14">
     <path d="M 14.1 154.215375 
L 15.6 154.215375 
L 15.6 150.015375 
L 14.1 150.015375 
z
" style="fill: #7b7d80"/>
    </g>
    <g id="patch_15">
     <path d="M 15.6 154.215375 
L 17.1 154.215375 
L 17.1 150.015375 
L 15.6 150.015375 
z
" style="fill: #7b7d80"/>
    </g>
    <g id="patch_16">
     <path d="M 17.1 154.215375 
L 18.6 154.215375 
L 18.6 150.015375 
L 17.1 150.015375 
z
" style="fill: #5f6063"/>
    </g>
    <g id="patch_17">
     <path d="M 18.6 154.215375 
L 20.1 154.215375 
L 20.1 150.015375 
L 18.6 150.015375 
z
" style="fill: #424344"/>
    </g>
    <g id="patch_18">
     <path d="M 20.1 154.215375 
L 21.6 154.215375 
L 21.6 150.015375 
L 20.1 150.015375 
z
" style="fill: #252626"/>
    </g>
    <g id="text_19">
     <text style="fill: #262626; font: 6px 'sans-serif'; text-anchor: start" x="26.4" y="154.215375" transform="rotate(-0, 26.4, 154.215375)">G.shared:1-7</text>
    </g>
   </g>
   <g id="legend_2">
    <g id="patch_19">
     <path d="M 32.644687 198.177375 
L 92.404687 198.177375 
Q 93.604687 198.177375 93.604687 196.977375 
L 93.604687 158.141437 
Q 93.604687 156.941437 92.404687 156.941437 
L 32.644687 156.941437 
Q 31.444687 156.941437 31.444687 158.141437 
L 31.444687 196.977375 
Q 31.444687 198.177375 32.644687 198.177375 
z
" style="fill: #ffffff; opacity: 0.8; stroke: #cccccc; stroke-linejoin: miter"/>
    </g>
    <g id="text_20">
     <text style="fill: #262626; font: 12px 'sans-serif'; text-anchor: start" x="33.844687" y="167.930812" transform="rotate(-0, 33.844687, 167.930812)">No. Genes</text>
    </g>
    <g id="PathCollection_5">
     <defs>
      <path id="m98e4796e4b" d="M 0 2.236068 
C 0.593012 2.236068 1.161816 2.000462 1.581139 1.581139 
C 2.000462 1.161816 2.236068 0.593012 2.236068 0 
C 2.236068 -0.593012 2.000462 -1.161816 1.581139 -1.581139 
C 1.161816 -2.000462 0.593012 -2.236068 0 -2.236068 
C -0.593012 -2.236068 -1.161816 -2.000462 -1.581139 -1.581139 
C -2.000462 -1.161816 -2.236068 -0.593012 -2.236068 0 
C -2.236068 0.593012 -2.000462 1.161816 -1.581139 1.581139 
C -1.161816 2.000462 -0.593012 2.236068 0 2.236068 
z
" style="stroke: #222222"/>
     </defs>
     <g>
      <use xlink:href="#m98e4796e4b" x="56.788125" y="176.0355" style="fill: #222222; stroke: #222222"/>
     </g>
    </g>
    <g id="text_21">
     <text style="fill: #262626; font: 6px 'sans-serif'; text-anchor: start" x="67.588125" y="177.6105" transform="rotate(-0, 67.588125, 177.6105)">4</text>
    </g>
    <g id="PathCollection_6">
     <defs>
      <path id="m92d23c0439" d="M 0 4.41588 
C 1.171105 4.41588 2.294403 3.950595 3.122499 3.122499 
C 3.950595 2.294403 4.41588 1.171105 4.41588 0 
C 4.41588 -1.171105 3.950595 -2.294403 3.122499 -3.122499 
C 2.294403 -3.950595 1.171105 -4.41588 0 -4.41588 
C -1.171105 -4.41588 -2.294403 -3.950595 -3.122499 -3.122499 
C -3.950595 -2.294403 -4.41588 -1.171105 -4.41588 0 
C -4.41588 1.171105 -3.950595 2.294403 -3.122499 3.122499 
C -2.294403 3.950595 -1.171105 4.41588 0 4.41588 
z
" style="stroke: #222222"/>
     </defs>
     <g>
      <use xlink:href="#m92d23c0439" x="56.788125" y="184.522687" style="fill: #222222; stroke: #222222"/>
     </g>
    </g>
    <g id="text_22">
     <text style="fill: #262626; font: 6px 'sans-serif'; text-anchor: start" x="67.588125" y="186.097687" transform="rotate(-0, 67.588125, 186.097687)">12</text>
    </g>
    <g id="PathCollection_7">
     <defs>
      <path id="m1c92740242" d="M 0 5.477226 
C 1.452577 5.477226 2.845856 4.900111 3.872983 3.872983 
C 4.900111 2.845856 5.477226 1.452577 5.477226 0 
C 5.477226 -1.452577 4.900111 -2.845856 3.872983 -3.872983 
C 2.845856 -4.900111 1.452577 -5.477226 0 -5.477226 
C -1.452577 -5.477226 -2.845856 -4.900111 -3.872983 -3.872983 
C -4.900111 -2.845856 -5.477226 -1.452577 -5.477226 0 
C -5.477226 1.452577 -4.900111 2.845856 -3.872983 3.872983 
C -2.845856 4.900111 -1.452577 5.477226 0 5.477226 
z
" style="stroke: #222222"/>
     </defs>
     <g>
      <use xlink:href="#m1c92740242" x="56.788125" y="193.009875" style="fill: #222222; stroke: #222222"/>
     </g>
    </g>
    <g id="text_23">
     <text style="fill: #262626; font: 6px 'sans-serif'; text-anchor: start" x="67.588125" y="194.584875" transform="rotate(-0, 67.588125, 194.584875)">25</text>
    </g>
   </g>
   <g id="legend_3">
    <g id="patch_20">
     <path d="M 32.644687 198.177375 
L 92.404687 198.177375 
Q 93.604687 198.177375 93.604687 196.977375 
L 93.604687 158.141437 
Q 93.604687 156.941437 92.404687 156.941437 
L 32.644687 156.941437 
Q 31.444687 156.941437 31.444687 158.141437 
L 31.444687 196.977375 
Q 31.444687 198.177375 32.644687 198.177375 
z
" style="fill: #ffffff; opacity: 0.8; stroke: #cccccc; stroke-linejoin: miter"/>
    </g>
    <g id="text_24">
     <text style="fill: #262626; font: 12px 'sans-serif'; text-anchor: start" x="33.844687" y="167.930812" transform="rotate(-0, 33.844687, 167.930812)">No. Genes</text>
    </g>
    <g id="PathCollection_8">
     <g>
      <use xlink:href="#m98e4796e4b" x="56.788125" y="176.0355" style="fill: #222222; stroke: #222222"/>
     </g>
    </g>
    <g id="text_25">
     <text style="fill: #262626; font: 6px 'sans-serif'; text-anchor: start" x="67.588125" y="177.6105" transform="rotate(-0, 67.588125, 177.6105)">4</text>
    </g>
    <g id="PathCollection_9">
     <g>
      <use xlink:href="#m92d23c0439" x="56.788125" y="184.522687" style="fill: #222222; stroke: #222222"/>
     </g>
    </g>
    <g id="text_26">
     <text style="fill: #262626; font: 6px 'sans-serif'; text-anchor: start" x="67.588125" y="186.097687" transform="rotate(-0, 67.588125, 186.097687)">12</text>
    </g>
    <g id="PathCollection_10">
     <g>
      <use xlink:href="#m1c92740242" x="56.788125" y="193.009875" style="fill: #222222; stroke: #222222"/>
     </g>
    </g>
    <g id="text_27">
     <text style="fill: #262626; font: 6px 'sans-serif'; text-anchor: start" x="67.588125" y="194.584875" transform="rotate(-0, 67.588125, 194.584875)">25</text>
    </g>
   </g>
  </g>
 </g>
 <defs>
  <clipPath id="p4c887c07b8">
   <rect x="28.444687" y="21.789375" width="167.4" height="163.08"/>
  </clipPath>
 </defs>
</svg>
