<?xml version="1.0" encoding="utf-8" standalone="no"?>
<!DOCTYPE svg PUBLIC "-//W3C//DTD SVG 1.1//EN"
  "http://www.w3.org/Graphics/SVG/1.1/DTD/svg11.dtd">
<svg xmlns:xlink="http://www.w3.org/1999/xlink" width="181.8pt" height="205.377375pt" viewBox="0 0 181.8 205.377375" xmlns="http://www.w3.org/2000/svg" version="1.1">
 <metadata>
  <rdf:RDF xmlns:dc="http://purl.org/dc/elements/1.1/" xmlns:cc="http://creativecommons.org/ns#" xmlns:rdf="http://www.w3.org/1999/02/22-rdf-syntax-ns#">
   <cc:Work>
    <dc:type rdf:resource="http://purl.org/dc/dcmitype/StillImage"/>
    <dc:date>2022-06-10T10:12:20.768145</dc:date>
    <dc:format>image/svg+xml</dc:format>
    <dc:creator>
     <cc:Agent>
      <dc:title>Matplotlib v3.5.2, https://matplotlib.org/</dc:title>
     </cc:Agent>
    </dc:creator>
   </cc:Work>
  </rdf:RDF>
 </metadata>
 <defs>
  <style type="text/css">*{stroke-linejoin: round; stroke-linecap: butt}</style>
 </defs>
 <g id="figure_1">
  <g id="patch_1">
   <path d="M 0 205.377375 
L 181.8 205.377375 
L 181.8 0 
L 0 0 
L 0 205.377375 
z
" style="fill: none"/>
  </g>
  <g id="axes_1">
   <g id="LineCollection_1">
    <path d="M 61.199175 170.717805 
L 21.726446 96.215652 
" clip-path="url(#p991be4194b)" style="fill: none; stroke: #a6a9ae"/>
    <path d="M 61.199175 170.717805 
L 83.700792 105.547781 
" clip-path="url(#p991be4194b)" style="fill: none; stroke: #505153"/>
    <path d="M 61.199175 170.717805 
L 45.052515 67.977653 
" clip-path="url(#p991be4194b)" style="fill: none; stroke: #7b7d80"/>
    <path d="M 61.199175 170.717805 
L 99.658487 61.923236 
" clip-path="url(#p991be4194b)" style="fill: none; stroke: #d1d5db"/>
    <path d="M 61.199175 170.717805 
L 96.737776 161.435863 
" clip-path="url(#p991be4194b)" style="fill: none; stroke: #7b7d80"/>
    <path d="M 61.199175 170.717805 
L 25.152159 146.97377 
" clip-path="url(#p991be4194b)" style="fill: none; stroke: #a6a9ae"/>
    <path d="M 21.726446 96.215652 
L 83.700792 105.547781 
" clip-path="url(#p991be4194b)" style="fill: none; stroke: #a6a9ae"/>
    <path d="M 21.726446 96.215652 
L 45.052515 67.977653 
" clip-path="url(#p991be4194b)" style="fill: none; stroke: #7b7d80"/>
    <path d="M 21.726446 96.215652 
L 96.737776 161.435863 
" clip-path="url(#p991be4194b)" style="fill: none; stroke: #d1d5db"/>
    <path d="M 21.726446 96.215652 
L 25.152159 146.97377 
" clip-path="url(#p991be4194b)" style="fill: none; stroke: #d1d5db"/>
    <path d="M 83.700792 105.547781 
L 45.052515 67.977653 
" clip-path="url(#p991be4194b)" style="fill: none; stroke: #7b7d80"/>
    <path d="M 83.700792 105.547781 
L 99.658487 61.923236 
" clip-path="url(#p991be4194b)" style="fill: none; stroke: #a6a9ae"/>
    <path d="M 83.700792 105.547781 
L 96.737776 161.435863 
" clip-path="url(#p991be4194b)" style="fill: none; stroke: #252626"/>
    <path d="M 83.700792 105.547781 
L 25.152159 146.97377 
" clip-path="url(#p991be4194b)" style="fill: none; stroke: #7b7d80"/>
    <path d="M 83.700792 105.547781 
L 159.536574 35.940945 
" clip-path="url(#p991be4194b)" style="fill: none; stroke: #d1d5db"/>
    <path d="M 45.052515 67.977653 
L 99.658487 61.923236 
" clip-path="url(#p991be4194b)" style="fill: none; stroke: #d1d5db"/>
    <path d="M 45.052515 67.977653 
L 96.737776 161.435863 
" clip-path="url(#p991be4194b)" style="fill: none; stroke: #a6a9ae"/>
    <path d="M 45.052515 67.977653 
L 25.152159 146.97377 
" clip-path="url(#p991be4194b)" style="fill: none; stroke: #a6a9ae"/>
    <path d="M 99.658487 61.923236 
L 25.152159 146.97377 
" clip-path="url(#p991be4194b)" style="fill: none; stroke: #d1d5db"/>
    <path d="M 99.658487 61.923236 
L 160.073554 98.005248 
" clip-path="url(#p991be4194b)" style="fill: none; stroke: #a6a9ae"/>
    <path d="M 99.658487 61.923236 
L 159.536574 35.940945 
" clip-path="url(#p991be4194b)" style="fill: none; stroke: #d1d5db"/>
    <path d="M 96.737776 161.435863 
L 25.152159 146.97377 
" clip-path="url(#p991be4194b)" style="fill: none; stroke: #a6a9ae"/>
    <path d="M 160.073554 98.005248 
L 159.536574 35.940945 
" clip-path="url(#p991be4194b)" style="fill: none; stroke: #a6a9ae"/>
   </g>
   <g id="PathCollection_1"/>
   <g id="PathCollection_2"/>
   <g id="PathCollection_3"/>
   <g id="PathCollection_4">
    <path d="M 61.199175 175.440907 
C 62.451756 175.440907 63.653203 174.943251 64.538912 174.057542 
C 65.424621 173.171833 65.922277 171.970386 65.922277 170.717805 
C 65.922277 169.465223 65.424621 168.263776 64.538912 167.378067 
C 63.653203 166.492359 62.451756 165.994703 61.199175 165.994703 
C 59.946593 165.994703 58.745146 166.492359 57.859437 167.378067 
C 56.973729 168.263776 56.476073 169.465223 56.476073 170.717805 
C 56.476073 171.970386 56.973729 173.171833 57.859437 174.057542 
C 58.745146 174.943251 59.946593 175.440907 61.199175 175.440907 
z
" clip-path="url(#p991be4194b)" style="fill: #54c568; stroke: #54c568"/>
    <path d="M 21.726446 101.692877 
C 23.179023 101.692877 24.572302 101.115762 25.59943 100.088635 
C 26.626557 99.061508 27.203672 97.668229 27.203672 96.215652 
C 27.203672 94.763074 26.626557 93.369795 25.59943 92.342668 
C 24.572302 91.315541 23.179023 90.738426 21.726446 90.738426 
C 20.273869 90.738426 18.88059 91.315541 17.853463 92.342668 
C 16.826336 93.369795 16.249221 94.763074 16.249221 96.215652 
C 16.249221 97.668229 16.826336 99.061508 17.853463 100.088635 
C 18.88059 101.115762 20.273869 101.692877 21.726446 101.692877 
z
" clip-path="url(#p991be4194b)" style="fill: #c8e020; stroke: #c8e020"/>
    <path d="M 83.700792 108.178955 
C 84.398588 108.178955 85.067897 107.901718 85.561313 107.408302 
C 86.054729 106.914886 86.331966 106.245576 86.331966 105.547781 
C 86.331966 104.849985 86.054729 104.180676 85.561313 103.68726 
C 85.067897 103.193844 84.398588 102.916607 83.700792 102.916607 
C 83.002997 102.916607 82.333687 103.193844 81.840271 103.68726 
C 81.346855 104.180676 81.069618 104.849985 81.069618 105.547781 
C 81.069618 106.245576 81.346855 106.914886 81.840271 107.408302 
C 82.333687 107.901718 83.002997 108.178955 83.700792 108.178955 
z
" clip-path="url(#p991be4194b)" style="fill: #440154; stroke: #440154"/>
    <path d="M 45.052515 71.80066 
C 46.066388 71.80066 47.038873 71.397844 47.755789 70.680927 
C 48.472706 69.96401 48.875522 68.991526 48.875522 67.977653 
C 48.875522 66.963779 48.472706 65.991295 47.755789 65.274378 
C 47.038873 64.557462 46.066388 64.154646 45.052515 64.154646 
C 44.038642 64.154646 43.066157 64.557462 42.349241 65.274378 
C 41.632324 65.991295 41.229508 66.963779 41.229508 67.977653 
C 41.229508 68.991526 41.632324 69.96401 42.349241 70.680927 
C 43.066157 71.397844 44.038642 71.80066 45.052515 71.80066 
z
" clip-path="url(#p991be4194b)" style="fill: #3d4e8a; stroke: #3d4e8a"/>
    <path d="M 99.658487 64.159304 
C 100.2515 64.159304 100.820303 63.923698 101.239626 63.504375 
C 101.658949 63.085052 101.894555 62.516248 101.894555 61.923236 
C 101.894555 61.330224 101.658949 60.76142 101.239626 60.342097 
C 100.820303 59.922774 100.2515 59.687168 99.658487 59.687168 
C 99.065475 59.687168 98.496672 59.922774 98.077349 60.342097 
C 97.658026 60.76142 97.422419 61.330224 97.422419 61.923236 
C 97.422419 62.516248 97.658026 63.085052 98.077349 63.504375 
C 98.496672 63.923698 99.065475 64.159304 99.658487 64.159304 
z
" clip-path="url(#p991be4194b)" style="fill: #463480; stroke: #463480"/>
    <path d="M 96.737776 165.950796 
C 97.935151 165.950796 99.083645 165.475074 99.930316 164.628403 
C 100.776987 163.781731 101.252709 162.633238 101.252709 161.435863 
C 101.252709 160.238489 100.776987 159.089995 99.930316 158.243324 
C 99.083645 157.396653 97.935151 156.920931 96.737776 156.920931 
C 95.540402 156.920931 94.391908 157.396653 93.545237 158.243324 
C 92.698566 159.089995 92.222844 160.238489 92.222844 161.435863 
C 92.222844 162.633238 92.698566 163.781731 93.545237 164.628403 
C 94.391908 165.475074 95.540402 165.950796 96.737776 165.950796 
z
" clip-path="url(#p991be4194b)" style="fill: #46327e; stroke: #46327e"/>
    <path d="M 25.152159 152.272536 
C 26.557408 152.272536 27.905291 151.714225 28.898953 150.720563 
C 29.892614 149.726902 30.450925 148.379019 30.450925 146.97377 
C 30.450925 145.568521 29.892614 144.220638 28.898953 143.226976 
C 27.905291 142.233315 26.557408 141.675004 25.152159 141.675004 
C 23.74691 141.675004 22.399027 142.233315 21.405366 143.226976 
C 20.411704 144.220638 19.853393 145.568521 19.853393 146.97377 
C 19.853393 148.379019 20.411704 149.726902 21.405366 150.720563 
C 22.399027 151.714225 23.74691 152.272536 25.152159 152.272536 
z
" clip-path="url(#p991be4194b)" style="fill: #dae319; stroke: #dae319"/>
    <path d="M 159.536574 40.455878 
C 160.733949 40.455878 161.882442 39.980156 162.729114 39.133485 
C 163.575785 38.286813 164.051507 37.138319 164.051507 35.940945 
C 164.051507 34.743571 163.575785 33.595077 162.729114 32.748406 
C 161.882442 31.901735 160.733949 31.426013 159.536574 31.426013 
C 158.3392 31.426013 157.190706 31.901735 156.344035 32.748406 
C 155.497364 33.595077 155.021642 34.743571 155.021642 35.940945 
C 155.021642 37.138319 155.497364 38.286813 156.344035 39.133485 
C 157.190706 39.980156 158.3392 40.455878 159.536574 40.455878 
z
" clip-path="url(#p991be4194b)" style="fill: #fde725; stroke: #fde725"/>
    <path d="M 160.073554 103.304014 
C 161.478803 103.304014 162.826686 102.745703 163.820347 101.752042 
C 164.814008 100.758381 165.37232 99.410497 165.37232 98.005248 
C 165.37232 96.599999 164.814008 95.252116 163.820347 94.258455 
C 162.826686 93.264794 161.478803 92.706482 160.073554 92.706482 
C 158.668305 92.706482 157.320421 93.264794 156.32676 94.258455 
C 155.333099 95.252116 154.774788 96.599999 154.774788 98.005248 
C 154.774788 99.410497 155.333099 100.758381 156.32676 101.752042 
C 157.320421 102.745703 158.668305 103.304014 160.073554 103.304014 
z
" clip-path="url(#p991be4194b)" style="fill: #dae319; stroke: #dae319"/>
   </g>
   <g id="text_1">
    <g clip-path="url(#p991be4194b)">
     <text style="font: 6px 'sans-serif'; text-anchor: middle" x="61.199175" y="169.525305" transform="rotate(-0, 61.199175, 169.525305)">EGR1</text>
    </g>
   </g>
   <g id="text_2">
    <g clip-path="url(#p991be4194b)">
     <text style="font: 6px 'sans-serif'; text-anchor: middle" x="21.726446" y="95.023152" transform="rotate(-0, 21.726446, 95.023152)">EPAS1</text>
    </g>
   </g>
   <g id="text_3">
    <g clip-path="url(#p991be4194b)">
     <text style="font: 6px 'sans-serif'; text-anchor: middle" x="83.700792" y="104.355281" transform="rotate(-0, 83.700792, 104.355281)">SP1</text>
    </g>
   </g>
   <g id="text_4">
    <g clip-path="url(#p991be4194b)">
     <text style="font: 6px 'sans-serif'; text-anchor: middle" x="45.052515" y="66.785153" transform="rotate(-0, 45.052515, 66.785153)">HIF1A</text>
    </g>
   </g>
   <g id="text_5">
    <g clip-path="url(#p991be4194b)">
     <text style="font: 6px 'sans-serif'; text-anchor: middle" x="96.737776" y="160.243363" transform="rotate(-0, 96.737776, 160.243363)">JUN</text>
    </g>
   </g>
   <g id="text_6">
    <g clip-path="url(#p991be4194b)">
     <text style="font: 6px 'sans-serif'; text-anchor: middle" x="25.152159" y="145.78127" transform="rotate(-0, 25.152159, 145.78127)">SMAD3</text>
    </g>
   </g>
   <g id="text_7">
    <g clip-path="url(#p991be4194b)">
     <text style="font: 6px 'sans-serif'; text-anchor: middle" x="159.536574" y="34.748445" transform="rotate(-0, 159.536574, 34.748445)">IRF1</text>
    </g>
   </g>
   <g id="text_8">
    <g clip-path="url(#p991be4194b)">
     <text style="fill: #1a1a1a; font: 9px 'sans-serif'; text-anchor: middle" x="99.658487" y="60.134486" transform="rotate(-0, 99.658487, 60.134486)">STAT1</text>
    </g>
   </g>
   <g id="text_9">
    <g clip-path="url(#p991be4194b)">
     <text style="fill: #1a1a1a; font: 9px 'sans-serif'; text-anchor: middle" x="160.073554" y="96.216498" transform="rotate(-0, 160.073554, 96.216498)">SPI1</text>
    </g>
   </g>
   <g id="text_10">
    <text style="fill: #262626; font: 12px 'sans-serif'; text-anchor: middle" x="90.9" y="15.789375" transform="rotate(-0, 90.9, 15.789375)">TPDE</text>
   </g>
   <g id="legend_1">
    <g id="patch_2">
     <path d="M 78.36 157.807875 
L 161.164688 157.807875 
Q 162.364688 157.807875 162.364688 156.607875 
L 162.364688 140.145375 
Q 162.364688 138.945375 161.164688 138.945375 
L 78.36 138.945375 
Q 77.16 138.945375 77.16 140.145375 
L 77.16 156.607875 
Q 77.16 157.807875 78.36 157.807875 
z
" style="fill: #ffffff; opacity: 0.8; stroke: #cccccc; stroke-linejoin: miter"/>
    </g>
    <g id="patch_3">
     <path d="M 79.56 145.657875 
L 81.06 145.657875 
L 81.06 141.457875 
L 79.56 141.457875 
z
" style="fill: #48186a"/>
    </g>
    <g id="patch_4">
     <path d="M 81.06 145.657875 
L 82.56 145.657875 
L 82.56 141.457875 
L 81.06 141.457875 
z
" style="fill: #424086"/>
    </g>
    <g id="patch_5">
     <path d="M 82.56 145.657875 
L 84.06 145.657875 
L 84.06 141.457875 
L 82.56 141.457875 
z
" style="fill: #33638d"/>
    </g>
    <g id="patch_6">
     <path d="M 84.06 145.657875 
L 85.56 145.657875 
L 85.56 141.457875 
L 84.06 141.457875 
z
" style="fill: #26828e"/>
    </g>
    <g id="patch_7">
     <path d="M 85.56 145.657875 
L 87.06 145.657875 
L 87.06 141.457875 
L 85.56 141.457875 
z
" style="fill: #1fa088"/>
    </g>
    <g id="patch_8">
     <path d="M 87.06 145.657875 
L 88.56 145.657875 
L 88.56 141.457875 
L 87.06 141.457875 
z
" style="fill: #3fbc73"/>
    </g>
    <g id="patch_9">
     <path d="M 88.56 145.657875 
L 90.06 145.657875 
L 90.06 141.457875 
L 88.56 141.457875 
z
" style="fill: #84d44b"/>
    </g>
    <g id="patch_10">
     <path d="M 90.06 145.657875 
L 91.56 145.657875 
L 91.56 141.457875 
L 90.06 141.457875 
z
" style="fill: #d8e219"/>
    </g>
    <g id="text_11">
     <text style="fill: #262626; font: 6px 'sans-serif'; text-anchor: start" x="96.36" y="145.657875" transform="rotate(-0, 96.36, 145.657875)">P.adj:4.19e-03,3.26e-02</text>
    </g>
    <g id="patch_11">
     <path d="M 79.56 154.215375 
L 81.06 154.215375 
L 81.06 150.015375 
L 79.56 150.015375 
z
" style="fill: #d1d5db"/>
    </g>
    <g id="patch_12">
     <path d="M 81.06 154.215375 
L 82.56 154.215375 
L 82.56 150.015375 
L 81.06 150.015375 
z
" style="fill: #d1d5db"/>
    </g>
    <g id="patch_13">
     <path d="M 82.56 154.215375 
L 84.06 154.215375 
L 84.06 150.015375 
L 82.56 150.015375 
z
" style="fill: #a6a9ae"/>
    </g>
    <g id="patch_14">
     <path d="M 84.06 154.215375 
L 85.56 154.215375 
L 85.56 150.015375 
L 84.06 150.015375 
z
" style="fill: #7b7d80"/>
    </g>
    <g id="patch_15">
     <path d="M 85.56 154.215375 
L 87.06 154.215375 
L 87.06 150.015375 
L 85.56 150.015375 
z
" style="fill: #7b7d80"/>
    </g>
    <g id="patch_16">
     <path d="M 87.06 154.215375 
L 88.56 154.215375 
L 88.56 150.015375 
L 87.06 150.015375 
z
" style="fill: #505153"/>
    </g>
    <g id="patch_17">
     <path d="M 88.56 154.215375 
L 90.06 154.215375 
L 90.06 150.015375 
L 88.56 150.015375 
z
" style="fill: #252626"/>
    </g>
    <g id="patch_18">
     <path d="M 90.06 154.215375 
L 91.56 154.215375 
L 91.56 150.015375 
L 90.06 150.015375 
z
" style="fill: #252626"/>
    </g>
    <g id="text_12">
     <text style="fill: #262626; font: 6px 'sans-serif'; text-anchor: start" x="96.36" y="154.215375" transform="rotate(-0, 96.36, 154.215375)">G.shared:1-6</text>
    </g>
   </g>
   <g id="legend_2">
    <g id="patch_19">
     <path d="M 11.4 198.177375 
L 71.16 198.177375 
Q 72.36 198.177375 72.36 196.977375 
L 72.36 158.141437 
Q 72.36 156.941437 71.16 156.941437 
L 11.4 156.941437 
Q 10.2 156.941437 10.2 158.141437 
L 10.2 196.977375 
Q 10.2 198.177375 11.4 198.177375 
z
" style="fill: #ffffff; opacity: 0.8; stroke: #cccccc; stroke-linejoin: miter"/>
    </g>
    <g id="text_13">
     <text style="fill: #262626; font: 12px 'sans-serif'; text-anchor: start" x="12.6" y="167.930812" transform="rotate(-0, 12.6, 167.930812)">No. Genes</text>
    </g>
    <g id="PathCollection_5">
     <defs>
      <path id="m07f6ae24f7" d="M 0 2.236068 
C 0.593012 2.236068 1.161816 2.000462 1.581139 1.581139 
C 2.000462 1.161816 2.236068 0.593012 2.236068 0 
C 2.236068 -0.593012 2.000462 -1.161816 1.581139 -1.581139 
C 1.161816 -2.000462 0.593012 -2.236068 0 -2.236068 
C -0.593012 -2.236068 -1.161816 -2.000462 -1.581139 -1.581139 
C -2.000462 -1.161816 -2.236068 -0.593012 -2.236068 0 
C -2.236068 0.593012 -2.000462 1.161816 -1.581139 1.581139 
C -1.161816 2.000462 -0.593012 2.236068 0 2.236068 
z
" style="stroke: #222222"/>
     </defs>
     <g>
      <use xlink:href="#m07f6ae24f7" x="35.543438" y="176.0355" style="fill: #222222; stroke: #222222"/>
     </g>
    </g>
    <g id="text_14">
     <text style="fill: #262626; font: 6px 'sans-serif'; text-anchor: start" x="46.343438" y="177.6105" transform="rotate(-0, 46.343438, 177.6105)">3</text>
    </g>
    <g id="PathCollection_6">
     <defs>
      <path id="mb5005a01bd" d="M 0 4.41588 
C 1.171105 4.41588 2.294403 3.950595 3.122499 3.122499 
C 3.950595 2.294403 4.41588 1.171105 4.41588 0 
C 4.41588 -1.171105 3.950595 -2.294403 3.122499 -3.122499 
C 2.294403 -3.950595 1.171105 -4.41588 0 -4.41588 
C -1.171105 -4.41588 -2.294403 -3.950595 -3.122499 -3.122499 
C -3.950595 -2.294403 -4.41588 -1.171105 -4.41588 0 
C -4.41588 1.171105 -3.950595 2.294403 -3.122499 3.122499 
C -2.294403 3.950595 -1.171105 4.41588 0 4.41588 
z
" style="stroke: #222222"/>
     </defs>
     <g>
      <use xlink:href="#mb5005a01bd" x="35.543438" y="184.522687" style="fill: #222222; stroke: #222222"/>
     </g>
    </g>
    <g id="text_15">
     <text style="fill: #262626; font: 6px 'sans-serif'; text-anchor: start" x="46.343438" y="186.097687" transform="rotate(-0, 46.343438, 186.097687)">8</text>
    </g>
    <g id="PathCollection_7">
     <defs>
      <path id="mc9307f699b" d="M 0 5.477226 
C 1.452577 5.477226 2.845856 4.900111 3.872983 3.872983 
C 4.900111 2.845856 5.477226 1.452577 5.477226 0 
C 5.477226 -1.452577 4.900111 -2.845856 3.872983 -3.872983 
C 2.845856 -4.900111 1.452577 -5.477226 0 -5.477226 
C -1.452577 -5.477226 -2.845856 -4.900111 -3.872983 -3.872983 
C -4.900111 -2.845856 -5.477226 -1.452577 -5.477226 0 
C -5.477226 1.452577 -4.900111 2.845856 -3.872983 3.872983 
C -2.845856 4.900111 -1.452577 5.477226 0 5.477226 
z
" style="stroke: #222222"/>
     </defs>
     <g>
      <use xlink:href="#mc9307f699b" x="35.543438" y="193.009875" style="fill: #222222; stroke: #222222"/>
     </g>
    </g>
    <g id="text_16">
     <text style="fill: #262626; font: 6px 'sans-serif'; text-anchor: start" x="46.343438" y="194.584875" transform="rotate(-0, 46.343438, 194.584875)">16</text>
    </g>
   </g>
   <g id="legend_3">
    <g id="patch_20">
     <path d="M 11.4 198.177375 
L 71.16 198.177375 
Q 72.36 198.177375 72.36 196.977375 
L 72.36 158.141437 
Q 72.36 156.941437 71.16 156.941437 
L 11.4 156.941437 
Q 10.2 156.941437 10.2 158.141437 
L 10.2 196.977375 
Q 10.2 198.177375 11.4 198.177375 
z
" style="fill: #ffffff; opacity: 0.8; stroke: #cccccc; stroke-linejoin: miter"/>
    </g>
    <g id="text_17">
     <text style="fill: #262626; font: 12px 'sans-serif'; text-anchor: start" x="12.6" y="167.930812" transform="rotate(-0, 12.6, 167.930812)">No. Genes</text>
    </g>
    <g id="PathCollection_8">
     <g>
      <use xlink:href="#m07f6ae24f7" x="35.543438" y="176.0355" style="fill: #222222; stroke: #222222"/>
     </g>
    </g>
    <g id="text_18">
     <text style="fill: #262626; font: 6px 'sans-serif'; text-anchor: start" x="46.343438" y="177.6105" transform="rotate(-0, 46.343438, 177.6105)">3</text>
    </g>
    <g id="PathCollection_9">
     <g>
      <use xlink:href="#mb5005a01bd" x="35.543438" y="184.522687" style="fill: #222222; stroke: #222222"/>
     </g>
    </g>
    <g id="text_19">
     <text style="fill: #262626; font: 6px 'sans-serif'; text-anchor: start" x="46.343438" y="186.097687" transform="rotate(-0, 46.343438, 186.097687)">8</text>
    </g>
    <g id="PathCollection_10">
     <g>
      <use xlink:href="#mc9307f699b" x="35.543438" y="193.009875" style="fill: #222222; stroke: #222222"/>
     </g>
    </g>
    <g id="text_20">
     <text style="fill: #262626; font: 6px 'sans-serif'; text-anchor: start" x="46.343438" y="194.584875" transform="rotate(-0, 46.343438, 194.584875)">16</text>
    </g>
   </g>
  </g>
 </g>
 <defs>
  <clipPath id="p991be4194b">
   <rect x="7.2" y="21.789375" width="167.4" height="163.08"/>
  </clipPath>
 </defs>
</svg>
