<?xml version="1.0" encoding="utf-8" standalone="no"?>
<!DOCTYPE svg PUBLIC "-//W3C//DTD SVG 1.1//EN"
  "http://www.w3.org/Graphics/SVG/1.1/DTD/svg11.dtd">
<svg xmlns:xlink="http://www.w3.org/1999/xlink" width="216pt" height="720pt" viewBox="0 0 216 720" xmlns="http://www.w3.org/2000/svg" version="1.1">
 <metadata>
  <rdf:RDF xmlns:dc="http://purl.org/dc/elements/1.1/" xmlns:cc="http://creativecommons.org/ns#" xmlns:rdf="http://www.w3.org/1999/02/22-rdf-syntax-ns#">
   <cc:Work>
    <dc:type rdf:resource="http://purl.org/dc/dcmitype/StillImage"/>
    <dc:date>2022-06-30T13:56:28.892458</dc:date>
    <dc:format>image/svg+xml</dc:format>
    <dc:creator>
     <cc:Agent>
      <dc:title>Matplotlib v3.5.2, https://matplotlib.org/</dc:title>
     </cc:Agent>
    </dc:creator>
   </cc:Work>
  </rdf:RDF>
 </metadata>
 <defs>
  <style type="text/css">*{stroke-linejoin: round; stroke-linecap: butt}</style>
 </defs>
 <g id="figure_1">
  <g id="patch_1">
   <path d="M 0 720 
L 216 720 
L 216 0 
L 0 0 
z
" style="fill: #ffffff"/>
  </g>
  <g id="axes_1">
   <g id="patch_2">
    <path d="M 27 630 
L 194.4 630 
L 194.4 86.4 
L 27 86.4 
z
" style="fill: #ffffff"/>
   </g>
   <g id="matplotlib.axis_1">
    <g id="xtick_1">
     <g id="line2d_1">
      <path d="M 58.232915 630 
L 58.232915 86.4 
" clip-path="url(#p40f91a7d15)" style="fill: none; stroke: #cccccc; stroke-linecap: round"/>
     </g>
     <g id="text_1">
      <text style="fill: #262626; font: 11px 'sans-serif'; text-anchor: middle" x="58.232915" y="647.373594" transform="rotate(-0, 58.232915, 647.373594)">0.05</text>
     </g>
    </g>
    <g id="xtick_2">
     <g id="line2d_2">
      <path d="M 93.791509 630 
L 93.791509 86.4 
" clip-path="url(#p40f91a7d15)" style="fill: none; stroke: #cccccc; stroke-linecap: round"/>
     </g>
     <g id="text_2">
      <text style="fill: #262626; font: 11px 'sans-serif'; text-anchor: middle" x="93.791509" y="647.373594" transform="rotate(-0, 93.791509, 647.373594)">0.10</text>
     </g>
    </g>
    <g id="xtick_3">
     <g id="line2d_3">
      <path d="M 129.350103 630 
L 129.350103 86.4 
" clip-path="url(#p40f91a7d15)" style="fill: none; stroke: #cccccc; stroke-linecap: round"/>
     </g>
     <g id="text_3">
      <text style="fill: #262626; font: 11px 'sans-serif'; text-anchor: middle" x="129.350103" y="647.373594" transform="rotate(-0, 129.350103, 647.373594)">0.15</text>
     </g>
    </g>
    <g id="xtick_4">
     <g id="line2d_4">
      <path d="M 164.908697 630 
L 164.908697 86.4 
" clip-path="url(#p40f91a7d15)" style="fill: none; stroke: #cccccc; stroke-linecap: round"/>
     </g>
     <g id="text_4">
      <text style="fill: #262626; font: 11px 'sans-serif'; text-anchor: middle" x="164.908697" y="647.373594" transform="rotate(-0, 164.908697, 647.373594)">0.20</text>
     </g>
    </g>
   </g>
   <g id="matplotlib.axis_2">
    <g id="ytick_1">
     <g id="line2d_5">
      <path d="M 27 605.290909 
L 194.4 605.290909 
" clip-path="url(#p40f91a7d15)" style="fill: none; stroke: #cccccc; stroke-linecap: round"/>
     </g>
     <g id="text_5">
      <text style="fill: #262626; font: 11px 'sans-serif'; text-anchor: end" x="17.5" y="609.294737" transform="rotate(-0, 17.5, 609.294737)">acute inflammatory response</text>
     </g>
    </g>
    <g id="ytick_2">
     <g id="line2d_6">
      <path d="M 27 586.987879 
L 194.4 586.987879 
" clip-path="url(#p40f91a7d15)" style="fill: none; stroke: #cccccc; stroke-linecap: round"/>
     </g>
     <g id="text_6">
      <text style="fill: #262626; font: 11px 'sans-serif'; text-anchor: end" x="17.5" y="590.924676" transform="rotate(-0, 17.5, 590.924676)">acute-phase response</text>
     </g>
    </g>
    <g id="ytick_3">
     <g id="line2d_7">
      <path d="M 27 568.684848 
L 194.4 568.684848 
" clip-path="url(#p40f91a7d15)" style="fill: none; stroke: #cccccc; stroke-linecap: round"/>
     </g>
     <g id="text_7">
      <text style="fill: #262626; font: 11px 'sans-serif'; text-anchor: end" x="17.5" y="572.621645" transform="rotate(-0, 17.5, 572.621645)">collagen-containing extracellular matrix</text>
     </g>
    </g>
    <g id="ytick_4">
     <g id="line2d_8">
      <path d="M 27 550.381818 
L 194.4 550.381818 
" clip-path="url(#p40f91a7d15)" style="fill: none; stroke: #cccccc; stroke-linecap: round"/>
     </g>
     <g id="text_8">
      <text style="fill: #262626; font: 11px 'sans-serif'; text-anchor: end" x="17.5" y="554.318615" transform="rotate(-0, 17.5, 554.318615)">blood microparticle</text>
     </g>
    </g>
    <g id="ytick_5">
     <g id="line2d_9">
      <path d="M 27 532.078788 
L 194.4 532.078788 
" clip-path="url(#p40f91a7d15)" style="fill: none; stroke: #cccccc; stroke-linecap: round"/>
     </g>
     <g id="text_9">
      <text style="fill: #262626; font: 11px 'sans-serif'; text-anchor: end" x="17.5" y="536.015585" transform="rotate(-0, 17.5, 536.015585)">mononuclear cell differentiation</text>
     </g>
    </g>
    <g id="ytick_6">
     <g id="line2d_10">
      <path d="M 27 513.775758 
L 194.4 513.775758 
" clip-path="url(#p40f91a7d15)" style="fill: none; stroke: #cccccc; stroke-linecap: round"/>
     </g>
     <g id="text_10">
      <text style="fill: #262626; font: 11px 'sans-serif'; text-anchor: end" x="17.5" y="517.779586" transform="rotate(-0, 17.5, 517.779586)">positive regulation of cytokine production</text>
     </g>
    </g>
    <g id="ytick_7">
     <g id="line2d_11">
      <path d="M 27 495.472727 
L 194.4 495.472727 
" clip-path="url(#p40f91a7d15)" style="fill: none; stroke: #cccccc; stroke-linecap: round"/>
     </g>
     <g id="text_11">
      <text style="fill: #262626; font: 11px 'sans-serif'; text-anchor: end" x="17.5" y="499.476555" transform="rotate(-0, 17.5, 499.476555)">positive regulation of hemopoiesis</text>
     </g>
    </g>
    <g id="ytick_8">
     <g id="line2d_12">
      <path d="M 27 477.169697 
L 194.4 477.169697 
" clip-path="url(#p40f91a7d15)" style="fill: none; stroke: #cccccc; stroke-linecap: round"/>
     </g>
     <g id="text_12">
      <text style="fill: #262626; font: 11px 'sans-serif'; text-anchor: end" x="17.5" y="481.173525" transform="rotate(-0, 17.5, 481.173525)">positive regulation of leukocyte differentiation</text>
     </g>
    </g>
    <g id="ytick_9">
     <g id="line2d_13">
      <path d="M 27 458.866667 
L 194.4 458.866667 
" clip-path="url(#p40f91a7d15)" style="fill: none; stroke: #cccccc; stroke-linecap: round"/>
     </g>
     <g id="text_13">
      <text style="fill: #262626; font: 11px 'sans-serif'; text-anchor: end" x="17.5" y="462.803464" transform="rotate(-0, 17.5, 462.803464)">external encapsulating structure organization</text>
     </g>
    </g>
    <g id="ytick_10">
     <g id="line2d_14">
      <path d="M 27 440.563636 
L 194.4 440.563636 
" clip-path="url(#p40f91a7d15)" style="fill: none; stroke: #cccccc; stroke-linecap: round"/>
     </g>
     <g id="text_14">
      <text style="fill: #262626; font: 11px 'sans-serif'; text-anchor: end" x="17.5" y="444.567464" transform="rotate(-0, 17.5, 444.567464)">regulation of GTPase activity</text>
     </g>
    </g>
    <g id="ytick_11">
     <g id="line2d_15">
      <path d="M 27 422.260606 
L 194.4 422.260606 
" clip-path="url(#p40f91a7d15)" style="fill: none; stroke: #cccccc; stroke-linecap: round"/>
     </g>
     <g id="text_15">
      <text style="fill: #262626; font: 11px 'sans-serif'; text-anchor: end" x="17.5" y="426.197403" transform="rotate(-0, 17.5, 426.197403)">extracellular structure organization</text>
     </g>
    </g>
    <g id="ytick_12">
     <g id="line2d_16">
      <path d="M 27 403.957576 
L 194.4 403.957576 
" clip-path="url(#p40f91a7d15)" style="fill: none; stroke: #cccccc; stroke-linecap: round"/>
     </g>
     <g id="text_16">
      <text style="fill: #262626; font: 11px 'sans-serif'; text-anchor: end" x="17.5" y="407.894373" transform="rotate(-0, 17.5, 407.894373)">extracellular matrix organization</text>
     </g>
    </g>
    <g id="ytick_13">
     <g id="line2d_17">
      <path d="M 27 385.654545 
L 194.4 385.654545 
" clip-path="url(#p40f91a7d15)" style="fill: none; stroke: #cccccc; stroke-linecap: round"/>
     </g>
     <g id="text_17">
      <text style="fill: #262626; font: 11px 'sans-serif'; text-anchor: end" x="17.5" y="389.658374" transform="rotate(-0, 17.5, 389.658374)">lymphocyte differentiation</text>
     </g>
    </g>
    <g id="ytick_14">
     <g id="line2d_18">
      <path d="M 27 367.351515 
L 194.4 367.351515 
" clip-path="url(#p40f91a7d15)" style="fill: none; stroke: #cccccc; stroke-linecap: round"/>
     </g>
     <g id="text_18">
      <text style="fill: #262626; font: 11px 'sans-serif'; text-anchor: end" x="17.5" y="371.288312" transform="rotate(-0, 17.5, 371.288312)">serine-type endopeptidase inhibitor activity</text>
     </g>
    </g>
    <g id="ytick_15">
     <g id="line2d_19">
      <path d="M 27 349.048485 
L 194.4 349.048485 
" clip-path="url(#p40f91a7d15)" style="fill: none; stroke: #cccccc; stroke-linecap: round"/>
     </g>
     <g id="text_19">
      <text style="fill: #262626; font: 11px 'sans-serif'; text-anchor: end" x="17.5" y="353.052313" transform="rotate(-0, 17.5, 353.052313)">negative regulation of endopeptidase activity</text>
     </g>
    </g>
    <g id="ytick_16">
     <g id="line2d_20">
      <path d="M 27 330.745455 
L 194.4 330.745455 
" clip-path="url(#p40f91a7d15)" style="fill: none; stroke: #cccccc; stroke-linecap: round"/>
     </g>
     <g id="text_20">
      <text style="fill: #262626; font: 11px 'sans-serif'; text-anchor: end" x="17.5" y="334.749283" transform="rotate(-0, 17.5, 334.749283)">negative regulation of peptidase activity</text>
     </g>
    </g>
    <g id="ytick_17">
     <g id="line2d_21">
      <path d="M 27 312.442424 
L 194.4 312.442424 
" clip-path="url(#p40f91a7d15)" style="fill: none; stroke: #cccccc; stroke-linecap: round"/>
     </g>
     <g id="text_21">
      <text style="fill: #262626; font: 11px 'sans-serif'; text-anchor: end" x="17.5" y="316.446252" transform="rotate(-0, 17.5, 316.446252)">positive regulation of lymphocyte differentiation</text>
     </g>
    </g>
    <g id="ytick_18">
     <g id="line2d_22">
      <path d="M 27 294.139394 
L 194.4 294.139394 
" clip-path="url(#p40f91a7d15)" style="fill: none; stroke: #cccccc; stroke-linecap: round"/>
     </g>
     <g id="text_22">
      <text style="fill: #262626; font: 11px 'sans-serif'; text-anchor: end" x="17.5" y="298.076191" transform="rotate(-0, 17.5, 298.076191)">leukocyte cell-cell adhesion</text>
     </g>
    </g>
    <g id="ytick_19">
     <g id="line2d_23">
      <path d="M 27 275.836364 
L 194.4 275.836364 
" clip-path="url(#p40f91a7d15)" style="fill: none; stroke: #cccccc; stroke-linecap: round"/>
     </g>
     <g id="text_23">
      <text style="fill: #262626; font: 11px 'sans-serif'; text-anchor: end" x="17.5" y="279.773161" transform="rotate(-0, 17.5, 279.773161)">neutrophil mediated immunity</text>
     </g>
    </g>
    <g id="ytick_20">
     <g id="line2d_24">
      <path d="M 27 257.533333 
L 194.4 257.533333 
" clip-path="url(#p40f91a7d15)" style="fill: none; stroke: #cccccc; stroke-linecap: round"/>
     </g>
     <g id="text_24">
      <text style="fill: #262626; font: 11px 'sans-serif'; text-anchor: end" x="17.5" y="261.537161" transform="rotate(-0, 17.5, 261.537161)">positive regulation of GTPase activity</text>
     </g>
    </g>
    <g id="ytick_21">
     <g id="line2d_25">
      <path d="M 27 239.230303 
L 194.4 239.230303 
" clip-path="url(#p40f91a7d15)" style="fill: none; stroke: #cccccc; stroke-linecap: round"/>
     </g>
     <g id="text_25">
      <text style="fill: #262626; font: 11px 'sans-serif'; text-anchor: end" x="17.5" y="243.1671" transform="rotate(-0, 17.5, 243.1671)">protein-lipid complex</text>
     </g>
    </g>
    <g id="ytick_22">
     <g id="line2d_26">
      <path d="M 27 220.927273 
L 194.4 220.927273 
" clip-path="url(#p40f91a7d15)" style="fill: none; stroke: #cccccc; stroke-linecap: round"/>
     </g>
     <g id="text_26">
      <text style="fill: #262626; font: 11px 'sans-serif'; text-anchor: end" x="17.5" y="224.86407" transform="rotate(-0, 17.5, 224.86407)">plasma lipoprotein particle</text>
     </g>
    </g>
    <g id="ytick_23">
     <g id="line2d_27">
      <path d="M 27 202.624242 
L 194.4 202.624242 
" clip-path="url(#p40f91a7d15)" style="fill: none; stroke: #cccccc; stroke-linecap: round"/>
     </g>
     <g id="text_27">
      <text style="fill: #262626; font: 11px 'sans-serif'; text-anchor: end" x="17.5" y="206.561039" transform="rotate(-0, 17.5, 206.561039)">high-density lipoprotein particle</text>
     </g>
    </g>
    <g id="ytick_24">
     <g id="line2d_28">
      <path d="M 27 184.321212 
L 194.4 184.321212 
" clip-path="url(#p40f91a7d15)" style="fill: none; stroke: #cccccc; stroke-linecap: round"/>
     </g>
     <g id="text_28">
      <text style="fill: #262626; font: 11px 'sans-serif'; text-anchor: end" x="17.5" y="188.258009" transform="rotate(-0, 17.5, 188.258009)">lipoprotein particle</text>
     </g>
    </g>
    <g id="ytick_25">
     <g id="line2d_29">
      <path d="M 27 166.018182 
L 194.4 166.018182 
" clip-path="url(#p40f91a7d15)" style="fill: none; stroke: #cccccc; stroke-linecap: round"/>
     </g>
     <g id="text_29">
      <text style="fill: #262626; font: 11px 'sans-serif'; text-anchor: end" x="17.5" y="169.954979" transform="rotate(-0, 17.5, 169.954979)">peptidase inhibitor activity</text>
     </g>
    </g>
    <g id="ytick_26">
     <g id="line2d_30">
      <path d="M 27 147.715152 
L 194.4 147.715152 
" clip-path="url(#p40f91a7d15)" style="fill: none; stroke: #cccccc; stroke-linecap: round"/>
     </g>
     <g id="text_30">
      <text style="fill: #262626; font: 11px 'sans-serif'; text-anchor: end" x="17.5" y="151.651948" transform="rotate(-0, 17.5, 151.651948)">endopeptidase inhibitor activity</text>
     </g>
    </g>
    <g id="ytick_27">
     <g id="line2d_31">
      <path d="M 27 129.412121 
L 194.4 129.412121 
" clip-path="url(#p40f91a7d15)" style="fill: none; stroke: #cccccc; stroke-linecap: round"/>
     </g>
     <g id="text_31">
      <text style="fill: #262626; font: 11px 'sans-serif'; text-anchor: end" x="17.5" y="133.348918" transform="rotate(-0, 17.5, 133.348918)">endopeptidase regulator activity</text>
     </g>
    </g>
    <g id="ytick_28">
     <g id="line2d_32">
      <path d="M 27 111.109091 
L 194.4 111.109091 
" clip-path="url(#p40f91a7d15)" style="fill: none; stroke: #cccccc; stroke-linecap: round"/>
     </g>
     <g id="text_32">
      <text style="fill: #262626; font: 11px 'sans-serif'; text-anchor: end" x="17.5" y="115.045888" transform="rotate(-0, 17.5, 115.045888)">peptidase regulator activity</text>
     </g>
    </g>
   </g>
   <g id="PathCollection_1">
    <path d="M 48.884587 609.900681 
C 50.107113 609.900681 51.279732 609.414967 52.144188 608.55051 
C 53.008644 607.686054 53.494359 606.513435 53.494359 605.290909 
C 53.494359 604.068383 53.008644 602.895764 52.144188 602.031308 
C 51.279732 601.166852 50.107113 600.681137 48.884587 600.681137 
C 47.662061 600.681137 46.489442 601.166852 45.624986 602.031308 
C 44.760529 602.895764 44.274815 604.068383 44.274815 605.290909 
C 44.274815 606.513435 44.760529 607.686054 45.624986 608.55051 
C 46.489442 609.414967 47.662061 609.900681 48.884587 609.900681 
z
" clip-path="url(#p40f91a7d15)" style="fill: #f08080; stroke: #f08080"/>
    <path d="M 40.147832 590.695978 
C 41.131231 590.695978 42.074485 590.305269 42.769854 589.609901 
C 43.465222 588.914533 43.855931 587.971278 43.855931 586.987879 
C 43.855931 586.004479 43.465222 585.061225 42.769854 584.365857 
C 42.074485 583.670488 41.131231 583.27978 40.147832 583.27978 
C 39.164432 583.27978 38.221178 583.670488 37.525809 584.365857 
C 36.830441 585.061225 36.439732 586.004479 36.439732 586.987879 
C 36.439732 587.971278 36.830441 588.914533 37.525809 589.609901 
C 38.221178 590.305269 39.164432 590.695978 40.147832 590.695978 
z
" clip-path="url(#p40f91a7d15)" style="fill: #f08080; stroke: #f08080"/>
    <path d="M 69.418013 575.087973 
C 71.116141 575.087973 72.744947 574.413299 73.945705 573.212541 
C 75.146463 572.011783 75.821137 570.382977 75.821137 568.684848 
C 75.821137 566.98672 75.146463 565.357914 73.945705 564.157156 
C 72.744947 562.956398 71.116141 562.281724 69.418013 562.281724 
C 67.719884 562.281724 66.091078 562.956398 64.89032 564.157156 
C 63.689562 565.357914 63.014888 566.98672 63.014888 568.684848 
C 63.014888 570.382977 63.689562 572.011783 64.89032 573.212541 
C 66.091078 574.413299 67.719884 575.087973 69.418013 575.087973 
z
" clip-path="url(#p40f91a7d15)" style="fill: #f08080; stroke: #f08080"/>
    <path d="M 46.880876 554.909511 
C 48.081634 554.909511 49.233374 554.432444 50.082438 553.58338 
C 50.931502 552.734316 51.408568 551.582576 51.408568 550.381818 
C 51.408568 549.18106 50.931502 548.02932 50.082438 547.180256 
C 49.233374 546.331192 48.081634 545.854126 46.880876 545.854126 
C 45.680117 545.854126 44.528378 546.331192 43.679313 547.180256 
C 42.830249 548.02932 42.353183 549.18106 42.353183 550.381818 
C 42.353183 551.582576 42.830249 552.734316 43.679313 553.58338 
C 44.528378 554.432444 45.680117 554.909511 46.880876 554.909511 
z
" clip-path="url(#p40f91a7d15)" style="fill: #f08080; stroke: #f08080"/>
    <path d="M 55.67045 540.430434 
C 57.885332 540.430434 60.009797 539.550452 61.575956 537.984294 
C 63.142114 536.418135 64.022096 534.29367 64.022096 532.078788 
C 64.022096 529.863905 63.142114 527.73944 61.575956 526.173282 
C 60.009797 524.607124 57.885332 523.727141 55.67045 523.727141 
C 53.455567 523.727141 51.331102 524.607124 49.764944 526.173282 
C 48.198785 527.73944 47.318803 529.863905 47.318803 532.078788 
C 47.318803 534.29367 48.198785 536.418135 49.764944 537.984294 
C 51.331102 539.550452 53.455567 540.430434 55.67045 540.430434 
z
" clip-path="url(#p40f91a7d15)" style="fill: #32cd32; stroke: #32cd32"/>
    <path d="M 56.723518 522.261039 
C 58.973841 522.261039 61.132299 521.366976 62.723518 519.775758 
C 64.314736 518.184539 65.208799 516.026081 65.208799 513.775758 
C 65.208799 511.525435 64.314736 509.366976 62.723518 507.775758 
C 61.132299 506.184539 58.973841 505.290476 56.723518 505.290476 
C 54.473195 505.290476 52.314736 506.184539 50.723518 507.775758 
C 49.132299 509.366976 48.238236 511.525435 48.238236 513.775758 
C 48.238236 516.026081 49.132299 518.184539 50.723518 519.775758 
C 52.314736 521.366976 54.473195 522.261039 56.723518 522.261039 
z
" clip-path="url(#p40f91a7d15)" style="fill: #32cd32; stroke: #32cd32"/>
    <path d="M 39.523408 501.388807 
C 41.092371 501.388807 42.597284 500.765452 43.706708 499.656027 
C 44.816132 498.546603 45.439488 497.04169 45.439488 495.472727 
C 45.439488 493.903765 44.816132 492.398851 43.706708 491.289427 
C 42.597284 490.180003 41.092371 489.556647 39.523408 489.556647 
C 37.954445 489.556647 36.449532 490.180003 35.340108 491.289427 
C 34.230684 492.398851 33.607328 493.903765 33.607328 495.472727 
C 33.607328 497.04169 34.230684 498.546603 35.340108 499.656027 
C 36.449532 500.765452 37.954445 501.388807 39.523408 501.388807 
z
" clip-path="url(#p40f91a7d15)" style="fill: #32cd32; stroke: #32cd32"/>
    <path d="M 39.523408 483.085777 
C 41.092371 483.085777 42.597284 482.462421 43.706708 481.352997 
C 44.816132 480.243573 45.439488 478.73866 45.439488 477.169697 
C 45.439488 475.600734 44.816132 474.095821 43.706708 472.986397 
C 42.597284 471.876973 41.092371 471.253617 39.523408 471.253617 
C 37.954445 471.253617 36.449532 471.876973 35.340108 472.986397 
C 34.230684 474.095821 33.607328 475.600734 33.607328 477.169697 
C 33.607328 478.73866 34.230684 480.243573 35.340108 481.352997 
C 36.449532 482.462421 37.954445 483.085777 39.523408 483.085777 
z
" clip-path="url(#p40f91a7d15)" style="fill: #32cd32; stroke: #32cd32"/>
    <path d="M 65.484422 464.845797 
C 67.070106 464.845797 68.591058 464.215798 69.712306 463.09455 
C 70.833553 461.973302 71.463552 460.452351 71.463552 458.866667 
C 71.463552 457.280983 70.833553 455.760031 69.712306 454.638783 
C 68.591058 453.517535 67.070106 452.887536 65.484422 452.887536 
C 63.898738 452.887536 62.377786 453.517535 61.256538 454.638783 
C 60.13529 455.760031 59.505292 457.280983 59.505292 458.866667 
C 59.505292 460.452351 60.13529 461.973302 61.256538 463.09455 
C 62.377786 464.215798 63.898738 464.845797 65.484422 464.845797 
z
" clip-path="url(#p40f91a7d15)" style="fill: #f08080; stroke: #f08080"/>
    <path d="M 58.127608 449.238312 
C 60.428159 449.238312 62.634795 448.324294 64.26153 446.697558 
C 65.888265 445.070823 66.802284 442.864187 66.802284 440.563636 
C 66.802284 438.263085 65.888265 436.056449 64.26153 434.429714 
C 62.634795 432.802979 60.428159 431.888961 58.127608 431.888961 
C 55.827057 431.888961 53.620421 432.802979 51.993686 434.429714 
C 50.366951 436.056449 49.452932 438.263085 49.452932 440.563636 
C 49.452932 442.864187 50.366951 445.070823 51.993686 446.697558 
C 53.620421 448.324294 55.827057 449.238312 58.127608 449.238312 
z
" clip-path="url(#p40f91a7d15)" style="fill: #32cd32; stroke: #32cd32"/>
    <path d="M 64.610746 428.176686 
C 66.179709 428.176686 67.684622 427.55333 68.794047 426.443906 
C 69.903471 425.334482 70.526826 423.829569 70.526826 422.260606 
C 70.526826 420.691643 69.903471 419.18673 68.794047 418.077306 
C 67.684622 416.967882 66.179709 416.344526 64.610746 416.344526 
C 63.041784 416.344526 61.53687 416.967882 60.427446 418.077306 
C 59.318022 419.18673 58.694667 420.691643 58.694667 422.260606 
C 58.694667 423.829569 59.318022 425.334482 60.427446 426.443906 
C 61.53687 427.55333 63.041784 428.176686 64.610746 428.176686 
z
" clip-path="url(#p40f91a7d15)" style="fill: #f08080; stroke: #f08080"/>
    <path d="M 64.610746 409.873656 
C 66.179709 409.873656 67.684622 409.2503 68.794047 408.140876 
C 69.903471 407.031452 70.526826 405.526538 70.526826 403.957576 
C 70.526826 402.388613 69.903471 400.8837 68.794047 399.774276 
C 67.684622 398.664851 66.179709 398.041496 64.610746 398.041496 
C 63.041784 398.041496 61.53687 398.664851 60.427446 399.774276 
C 59.318022 400.8837 58.694667 402.388613 58.694667 403.957576 
C 58.694667 405.526538 59.318022 407.031452 60.427446 408.140876 
C 61.53687 409.2503 63.041784 409.873656 64.610746 409.873656 
z
" clip-path="url(#p40f91a7d15)" style="fill: #f08080; stroke: #f08080"/>
    <path d="M 50.756133 393.351948 
C 52.797508 393.351948 54.755548 392.540901 56.199018 391.097431 
C 57.642488 389.653961 58.453535 387.69592 58.453535 385.654545 
C 58.453535 383.613171 57.642488 381.65513 56.199018 380.21166 
C 54.755548 378.76819 52.797508 377.957143 50.756133 377.957143 
C 48.714758 377.957143 46.756717 378.76819 45.313247 380.21166 
C 43.869777 381.65513 43.05873 383.613171 43.05873 385.654545 
C 43.05873 387.69592 43.869777 389.653961 45.313247 391.097431 
C 46.756717 392.540901 48.714758 393.351948 50.756133 393.351948 
z
" clip-path="url(#p40f91a7d15)" style="fill: #32cd32; stroke: #32cd32"/>
    <path d="M 41.871599 371.25664 
C 42.90725 371.25664 43.900623 370.845171 44.632939 370.112855 
C 45.365255 369.380539 45.776724 368.387166 45.776724 367.351515 
C 45.776724 366.315864 45.365255 365.322491 44.632939 364.590175 
C 43.900623 363.857859 42.90725 363.44639 41.871599 363.44639 
C 40.835948 363.44639 39.842574 363.857859 39.110258 364.590175 
C 38.377942 365.322491 37.966474 366.315864 37.966474 367.351515 
C 37.966474 368.387166 38.377942 369.380539 39.110258 370.112855 
C 39.842574 370.845171 40.835948 371.25664 41.871599 371.25664 
z
" clip-path="url(#p40f91a7d15)" style="fill: #f08080; stroke: #f08080"/>
    <path d="M 53.252965 354.073423 
C 54.585594 354.073423 55.863821 353.543964 56.806132 352.601652 
C 57.748443 351.659341 58.277902 350.381114 58.277902 349.048485 
C 58.277902 347.715856 57.748443 346.437628 56.806132 345.495317 
C 55.863821 344.553006 54.585594 344.023547 53.252965 344.023547 
C 51.920335 344.023547 50.642108 344.553006 49.699797 345.495317 
C 48.757486 346.437628 48.228027 347.715856 48.228027 349.048485 
C 48.228027 350.381114 48.757486 351.659341 49.699797 352.601652 
C 50.642108 353.543964 51.920335 354.073423 53.252965 354.073423 
z
" clip-path="url(#p40f91a7d15)" style="fill: #f08080; stroke: #f08080"/>
    <path d="M 54.12664 335.844474 
C 55.478916 335.844474 56.775988 335.307209 57.732191 334.351006 
C 58.688395 333.394802 59.22566 332.09773 59.22566 330.745455 
C 59.22566 329.393179 58.688395 328.096107 57.732191 327.139903 
C 56.775988 326.1837 55.478916 325.646435 54.12664 325.646435 
C 52.774364 325.646435 51.477292 326.1837 50.521089 327.139903 
C 49.564885 328.096107 49.027621 329.393179 49.027621 330.745455 
C 49.027621 332.09773 49.564885 333.394802 50.521089 334.351006 
C 51.477292 335.307209 52.774364 335.844474 54.12664 335.844474 
z
" clip-path="url(#p40f91a7d15)" style="fill: #f08080; stroke: #f08080"/>
    <path d="M 34.609091 317.366853 
C 35.915065 317.366853 37.167725 316.847984 38.091188 315.924521 
C 39.014651 315.001058 39.53352 313.748398 39.53352 312.442424 
C 39.53352 311.13645 39.014651 309.88379 38.091188 308.960327 
C 37.167725 308.036864 35.915065 307.517995 34.609091 307.517995 
C 33.303117 307.517995 32.050457 308.036864 31.126994 308.960327 
C 30.203531 309.88379 29.684662 311.13645 29.684662 312.442424 
C 29.684662 313.748398 30.203531 315.001058 31.126994 315.924521 
C 32.050457 316.847984 33.303117 317.366853 34.609091 317.366853 
z
" clip-path="url(#p40f91a7d15)" style="fill: #32cd32; stroke: #32cd32"/>
    <path d="M 50.40511 301.787923 
C 52.433524 301.787923 54.379132 300.982026 55.813437 299.547721 
C 57.247742 298.113416 58.053639 296.167808 58.053639 294.139394 
C 58.053639 292.11098 57.247742 290.165372 55.813437 288.731067 
C 54.379132 287.296762 52.433524 286.490865 50.40511 286.490865 
C 48.376696 286.490865 46.431088 287.296762 44.996783 288.731067 
C 43.562478 290.165372 42.756581 292.11098 42.756581 294.139394 
C 42.756581 296.167808 43.562478 298.113416 44.996783 299.547721 
C 46.431088 300.982026 48.376696 301.787923 50.40511 301.787923 
z
" clip-path="url(#p40f91a7d15)" style="fill: #32cd32; stroke: #32cd32"/>
    <path d="M 57.425563 284.409578 
C 59.699206 284.409578 61.880032 283.50625 63.487741 281.898541 
C 65.095449 280.290833 65.998777 278.110007 65.998777 275.836364 
C 65.998777 273.562721 65.095449 271.381894 63.487741 269.774186 
C 61.880032 268.166477 59.699206 267.26315 57.425563 267.26315 
C 55.15192 267.26315 52.971093 268.166477 51.363385 269.774186 
C 49.755677 271.381894 48.852349 273.562721 48.852349 275.836364 
C 48.852349 278.110007 49.755677 280.290833 51.363385 281.898541 
C 52.971093 283.50625 55.15192 284.409578 57.425563 284.409578 
z
" clip-path="url(#p40f91a7d15)" style="fill: #32cd32; stroke: #32cd32"/>
    <path d="M 52.862269 265.517693 
C 54.979745 265.517693 57.010781 264.676411 58.508063 263.179128 
C 60.005346 261.681846 60.846628 259.65081 60.846628 257.533333 
C 60.846628 255.415856 60.005346 253.384821 58.508063 251.887538 
C 57.010781 250.390256 54.979745 249.548974 52.862269 249.548974 
C 50.744792 249.548974 48.713756 250.390256 47.216474 251.887538 
C 45.719191 253.384821 44.877909 255.415856 44.877909 257.533333 
C 44.877909 259.65081 45.719191 261.681846 47.216474 263.179128 
C 48.713756 264.676411 50.744792 265.517693 52.862269 265.517693 
z
" clip-path="url(#p40f91a7d15)" style="fill: #32cd32; stroke: #32cd32"/>
    <path d="M 186.790909 587.987879 
C 187.056112 587.987879 187.310489 587.882512 187.498016 587.694986 
C 187.685543 587.507459 187.790909 587.253082 187.790909 586.987879 
C 187.790909 586.722676 187.685543 586.468299 187.498016 586.280772 
C 187.310489 586.093245 187.056112 585.987879 186.790909 585.987879 
C 186.525706 585.987879 186.271329 586.093245 186.083802 586.280772 
C 185.896275 586.468299 185.790909 586.722676 185.790909 586.987879 
C 185.790909 587.253082 185.896275 587.507459 186.083802 587.694986 
C 186.271329 587.882512 186.525706 587.987879 186.790909 587.987879 
z
" clip-path="url(#p40f91a7d15)" style="fill: #8b0000; stroke: #8b0000"/>
    <path d="M 124.270304 239.730303 
C 124.402906 239.730303 124.530094 239.67762 124.623857 239.583856 
C 124.717621 239.490093 124.770304 239.362905 124.770304 239.230303 
C 124.770304 239.097701 124.717621 238.970513 124.623857 238.87675 
C 124.530094 238.782986 124.402906 238.730303 124.270304 238.730303 
C 124.137703 238.730303 124.010514 238.782986 123.916751 238.87675 
C 123.822987 238.970513 123.770304 239.097701 123.770304 239.230303 
C 123.770304 239.362905 123.822987 239.490093 123.916751 239.583856 
C 124.010514 239.67762 124.137703 239.730303 124.270304 239.730303 
z
" clip-path="url(#p40f91a7d15)" style="fill: #8b0000; stroke: #8b0000"/>
    <path d="M 124.270304 221.427273 
C 124.402906 221.427273 124.530094 221.37459 124.623857 221.280826 
C 124.717621 221.187063 124.770304 221.059874 124.770304 220.927273 
C 124.770304 220.794671 124.717621 220.667483 124.623857 220.573719 
C 124.530094 220.479956 124.402906 220.427273 124.270304 220.427273 
C 124.137703 220.427273 124.010514 220.479956 123.916751 220.573719 
C 123.822987 220.667483 123.770304 220.794671 123.770304 220.927273 
C 123.770304 221.059874 123.822987 221.187063 123.916751 221.280826 
C 124.010514 221.37459 124.137703 221.427273 124.270304 221.427273 
z
" clip-path="url(#p40f91a7d15)" style="fill: #8b0000; stroke: #8b0000"/>
    <path d="M 124.270304 203.124242 
C 124.402906 203.124242 124.530094 203.071559 124.623857 202.977796 
C 124.717621 202.884032 124.770304 202.756844 124.770304 202.624242 
C 124.770304 202.491641 124.717621 202.364452 124.623857 202.270689 
C 124.530094 202.176926 124.402906 202.124242 124.270304 202.124242 
C 124.137703 202.124242 124.010514 202.176926 123.916751 202.270689 
C 123.822987 202.364452 123.770304 202.491641 123.770304 202.624242 
C 123.770304 202.756844 123.822987 202.884032 123.916751 202.977796 
C 124.010514 203.071559 124.137703 203.124242 124.270304 203.124242 
z
" clip-path="url(#p40f91a7d15)" style="fill: #8b0000; stroke: #8b0000"/>
    <path d="M 124.270304 184.821212 
C 124.402906 184.821212 124.530094 184.768529 124.623857 184.674766 
C 124.717621 184.581002 124.770304 184.453814 124.770304 184.321212 
C 124.770304 184.188611 124.717621 184.061422 124.623857 183.967659 
C 124.530094 183.873895 124.402906 183.821212 124.270304 183.821212 
C 124.137703 183.821212 124.010514 183.873895 123.916751 183.967659 
C 123.822987 184.061422 123.770304 184.188611 123.770304 184.321212 
C 123.770304 184.453814 123.822987 184.581002 123.916751 184.674766 
C 124.010514 184.768529 124.137703 184.821212 124.270304 184.821212 
z
" clip-path="url(#p40f91a7d15)" style="fill: #8b0000; stroke: #8b0000"/>
    <path d="M 175.068296 167.018182 
C 175.333499 167.018182 175.587876 166.912816 175.775402 166.725289 
C 175.962929 166.537762 176.068296 166.283385 176.068296 166.018182 
C 176.068296 165.752979 175.962929 165.498602 175.775402 165.311075 
C 175.587876 165.123548 175.333499 165.018182 175.068296 165.018182 
C 174.803093 165.018182 174.548716 165.123548 174.361189 165.311075 
C 174.173662 165.498602 174.068296 165.752979 174.068296 166.018182 
C 174.068296 166.283385 174.173662 166.537762 174.361189 166.725289 
C 174.548716 166.912816 174.803093 167.018182 175.068296 167.018182 
z
" clip-path="url(#p40f91a7d15)" style="fill: #8b0000; stroke: #8b0000"/>
    <path d="M 175.068296 148.715152 
C 175.333499 148.715152 175.587876 148.609785 175.775402 148.422258 
C 175.962929 148.234731 176.068296 147.980355 176.068296 147.715152 
C 176.068296 147.449948 175.962929 147.195572 175.775402 147.008045 
C 175.587876 146.820518 175.333499 146.715152 175.068296 146.715152 
C 174.803093 146.715152 174.548716 146.820518 174.361189 147.008045 
C 174.173662 147.195572 174.068296 147.449948 174.068296 147.715152 
C 174.068296 147.980355 174.173662 148.234731 174.361189 148.422258 
C 174.548716 148.609785 174.803093 148.715152 175.068296 148.715152 
z
" clip-path="url(#p40f91a7d15)" style="fill: #8b0000; stroke: #8b0000"/>
    <path d="M 175.068296 130.412121 
C 175.333499 130.412121 175.587876 130.306755 175.775402 130.119228 
C 175.962929 129.931701 176.068296 129.677324 176.068296 129.412121 
C 176.068296 129.146918 175.962929 128.892541 175.775402 128.705014 
C 175.587876 128.517488 175.333499 128.412121 175.068296 128.412121 
C 174.803093 128.412121 174.548716 128.517488 174.361189 128.705014 
C 174.173662 128.892541 174.068296 129.146918 174.068296 129.412121 
C 174.068296 129.677324 174.173662 129.931701 174.361189 130.119228 
C 174.548716 130.306755 174.803093 130.412121 175.068296 130.412121 
z
" clip-path="url(#p40f91a7d15)" style="fill: #8b0000; stroke: #8b0000"/>
    <path d="M 175.068296 112.109091 
C 175.333499 112.109091 175.587876 112.003725 175.775402 111.816198 
C 175.962929 111.628671 176.068296 111.374294 176.068296 111.109091 
C 176.068296 110.843888 175.962929 110.589511 175.775402 110.401984 
C 175.587876 110.214457 175.333499 110.109091 175.068296 110.109091 
C 174.803093 110.109091 174.548716 110.214457 174.361189 110.401984 
C 174.173662 110.589511 174.068296 110.843888 174.068296 111.109091 
C 174.068296 111.374294 174.173662 111.628671 174.361189 111.816198 
C 174.548716 112.003725 174.803093 112.109091 175.068296 112.109091 
z
" clip-path="url(#p40f91a7d15)" style="fill: #8b0000; stroke: #8b0000"/>
    <path d="M 186.790909 606.290909 
C 187.056112 606.290909 187.310489 606.185543 187.498016 605.998016 
C 187.685543 605.810489 187.790909 605.556112 187.790909 605.290909 
C 187.790909 605.025706 187.685543 604.771329 187.498016 604.583802 
C 187.310489 604.396275 187.056112 604.290909 186.790909 604.290909 
C 186.525706 604.290909 186.271329 604.396275 186.083802 604.583802 
C 185.896275 604.771329 185.790909 605.025706 185.790909 605.290909 
C 185.790909 605.556112 185.896275 605.810489 186.083802 605.998016 
C 186.271329 606.185543 186.525706 606.290909 186.790909 606.290909 
z
" clip-path="url(#p40f91a7d15)" style="fill: #8b0000; stroke: #8b0000"/>
   </g>
   <g id="PathCollection_2"/>
   <g id="PathCollection_3"/>
   <g id="patch_3">
    <path d="M 27 630 
L 27 86.4 
" style="fill: none; stroke: #cccccc; stroke-width: 1.25; stroke-linejoin: miter; stroke-linecap: square"/>
   </g>
   <g id="patch_4">
    <path d="M 194.4 630 
L 194.4 86.4 
" style="fill: none; stroke: #cccccc; stroke-width: 1.25; stroke-linejoin: miter; stroke-linecap: square"/>
   </g>
   <g id="patch_5">
    <path d="M 27 630 
L 194.4 630 
" style="fill: none; stroke: #cccccc; stroke-width: 1.25; stroke-linejoin: miter; stroke-linecap: square"/>
   </g>
   <g id="patch_6">
    <path d="M 27 86.4 
L 194.4 86.4 
" style="fill: none; stroke: #cccccc; stroke-width: 1.25; stroke-linejoin: miter; stroke-linecap: square"/>
   </g>
   <g id="text_33">
    <text style="fill: #262626; font: 12px 'sans-serif'; text-anchor: middle" x="110.7" y="80.4" transform="rotate(-0, 110.7, 80.4)">Up regulated</text>
   </g>
   <g id="legend_1">
    <g id="patch_7">
     <path d="M 32.6 680.36 
L 93.16 680.36 
Q 94.76 680.36 94.76 678.76 
L 94.76 641.953125 
Q 94.76 640.353125 93.16 640.353125 
L 32.6 640.353125 
Q 31 640.353125 31 641.953125 
L 31 678.76 
Q 31 680.36 32.6 680.36 
z
" style="fill: #ffffff; opacity: 0.8; stroke: #cccccc; stroke-linejoin: miter"/>
    </g>
    <g id="text_34">
     <text style="fill: #262626; font: 12px 'sans-serif'; text-anchor: start" x="34.2" y="652.1425" transform="rotate(-0, 34.2, 652.1425)">No. Genes</text>
    </g>
    <g id="PathCollection_4">
     <defs>
      <path id="mdec758a7e0" d="M 0 2 
C 0.530406 2 1.03916 1.789267 1.414214 1.414214 
C 1.789267 1.03916 2 0.530406 2 0 
C 2 -0.530406 1.789267 -1.03916 1.414214 -1.414214 
C 1.03916 -1.789267 0.530406 -2 0 -2 
C -0.530406 -2 -1.03916 -1.789267 -1.414214 -1.414214 
C -1.789267 -1.03916 -2 -0.530406 -2 0 
C -2 0.530406 -1.789267 1.03916 -1.414214 1.414214 
C -1.03916 1.789267 -0.530406 2 0 2 
z
" style="stroke: #222222"/>
     </defs>
     <g>
      <use xlink:href="#mdec758a7e0" x="53.006875" y="662.15375" style="fill: #222222; stroke: #222222"/>
     </g>
    </g>
    <g id="text_35">
     <text style="fill: #262626; font: 8px 'sans-serif'; text-anchor: start" x="67.406875" y="664.25375" transform="rotate(-0, 67.406875, 664.25375)">2</text>
    </g>
    <g id="PathCollection_5">
     <defs>
      <path id="md272e06e5e" d="M 0 8.803408 
C 2.334691 8.803408 4.574074 7.875826 6.22495 6.22495 
C 7.875826 4.574074 8.803408 2.334691 8.803408 0 
C 8.803408 -2.334691 7.875826 -4.574074 6.22495 -6.22495 
C 4.574074 -7.875826 2.334691 -8.803408 0 -8.803408 
C -2.334691 -8.803408 -4.574074 -7.875826 -6.22495 -6.22495 
C -7.875826 -4.574074 -8.803408 -2.334691 -8.803408 0 
C -8.803408 2.334691 -7.875826 4.574074 -6.22495 6.22495 
C -4.574074 7.875826 -2.334691 8.803408 0 8.803408 
z
" style="stroke: #222222"/>
     </defs>
     <g>
      <use xlink:href="#md272e06e5e" x="53.006875" y="673.47" style="fill: #222222; stroke: #222222"/>
     </g>
    </g>
    <g id="text_36">
     <text style="fill: #262626; font: 8px 'sans-serif'; text-anchor: start" x="67.406875" y="675.57" transform="rotate(-0, 67.406875, 675.57)">101</text>
    </g>
   </g>
   <g id="legend_2">
    <g id="patch_8">
     <path d="M 32.6 680.36 
L 93.16 680.36 
Q 94.76 680.36 94.76 678.76 
L 94.76 641.953125 
Q 94.76 640.353125 93.16 640.353125 
L 32.6 640.353125 
Q 31 640.353125 31 641.953125 
L 31 678.76 
Q 31 680.36 32.6 680.36 
z
" style="fill: #ffffff; opacity: 0.8; stroke: #cccccc; stroke-linejoin: miter"/>
    </g>
    <g id="text_37">
     <text style="fill: #262626; font: 12px 'sans-serif'; text-anchor: start" x="34.2" y="652.1425" transform="rotate(-0, 34.2, 652.1425)">No. Genes</text>
    </g>
    <g id="PathCollection_6">
     <g>
      <use xlink:href="#mdec758a7e0" x="53.006875" y="662.15375" style="fill: #222222; stroke: #222222"/>
     </g>
    </g>
    <g id="text_38">
     <text style="fill: #262626; font: 8px 'sans-serif'; text-anchor: start" x="67.406875" y="664.25375" transform="rotate(-0, 67.406875, 664.25375)">2</text>
    </g>
    <g id="PathCollection_7">
     <g>
      <use xlink:href="#md272e06e5e" x="53.006875" y="673.47" style="fill: #222222; stroke: #222222"/>
     </g>
    </g>
    <g id="text_39">
     <text style="fill: #262626; font: 8px 'sans-serif'; text-anchor: start" x="67.406875" y="675.57" transform="rotate(-0, 67.406875, 675.57)">101</text>
    </g>
   </g>
  </g>
 </g>
 <defs>
  <clipPath id="p40f91a7d15">
   <rect x="27" y="86.4" width="167.4" height="543.6"/>
  </clipPath>
 </defs>
</svg>
