<?xml version="1.0" encoding="utf-8" standalone="no"?>
<!DOCTYPE svg PUBLIC "-//W3C//DTD SVG 1.1//EN"
  "http://www.w3.org/Graphics/SVG/1.1/DTD/svg11.dtd">
<svg xmlns:xlink="http://www.w3.org/1999/xlink" width="216pt" height="720pt" viewBox="0 0 216 720" xmlns="http://www.w3.org/2000/svg" version="1.1">
 <metadata>
  <rdf:RDF xmlns:dc="http://purl.org/dc/elements/1.1/" xmlns:cc="http://creativecommons.org/ns#" xmlns:rdf="http://www.w3.org/1999/02/22-rdf-syntax-ns#">
   <cc:Work>
    <dc:type rdf:resource="http://purl.org/dc/dcmitype/StillImage"/>
    <dc:date>2022-06-30T13:56:28.432508</dc:date>
    <dc:format>image/svg+xml</dc:format>
    <dc:creator>
     <cc:Agent>
      <dc:title>Matplotlib v3.5.2, https://matplotlib.org/</dc:title>
     </cc:Agent>
    </dc:creator>
   </cc:Work>
  </rdf:RDF>
 </metadata>
 <defs>
  <style type="text/css">*{stroke-linejoin: round; stroke-linecap: butt}</style>
 </defs>
 <g id="figure_1">
  <g id="patch_1">
   <path d="M 0 720 
L 216 720 
L 216 0 
L 0 0 
z
" style="fill: #ffffff"/>
  </g>
  <g id="axes_1">
   <g id="patch_2">
    <path d="M 27 630 
L 194.4 630 
L 194.4 86.4 
L 27 86.4 
z
" style="fill: #ffffff"/>
   </g>
   <g id="matplotlib.axis_1">
    <g id="xtick_1">
     <g id="line2d_1">
      <path d="M 90.081818 630 
L 90.081818 86.4 
" clip-path="url(#pcf8ba06806)" style="fill: none; stroke: #cccccc; stroke-linecap: round"/>
     </g>
     <g id="text_1">
      <text style="fill: #262626; font: 11px 'sans-serif'; text-anchor: middle" x="90.081818" y="647.373594" transform="rotate(-0, 90.081818, 647.373594)">0.2</text>
     </g>
    </g>
    <g id="xtick_2">
     <g id="line2d_2">
      <path d="M 154.554545 630 
L 154.554545 86.4 
" clip-path="url(#pcf8ba06806)" style="fill: none; stroke: #cccccc; stroke-linecap: round"/>
     </g>
     <g id="text_2">
      <text style="fill: #262626; font: 11px 'sans-serif'; text-anchor: middle" x="154.554545" y="647.373594" transform="rotate(-0, 154.554545, 647.373594)">0.4</text>
     </g>
    </g>
   </g>
   <g id="matplotlib.axis_2">
    <g id="ytick_1">
     <g id="line2d_3">
      <path d="M 27 605.290909 
L 194.4 605.290909 
" clip-path="url(#pcf8ba06806)" style="fill: none; stroke: #cccccc; stroke-linecap: round"/>
     </g>
     <g id="text_3">
      <text style="fill: #262626; font: 11px 'sans-serif'; text-anchor: end" x="17.5" y="609.227706" transform="rotate(-0, 17.5, 609.227706)">cell fate commitment</text>
     </g>
    </g>
    <g id="ytick_2">
     <g id="line2d_4">
      <path d="M 27 588.250157 
L 194.4 588.250157 
" clip-path="url(#pcf8ba06806)" style="fill: none; stroke: #cccccc; stroke-linecap: round"/>
     </g>
     <g id="text_4">
      <text style="fill: #262626; font: 11px 'sans-serif'; text-anchor: end" x="17.5" y="592.186954" transform="rotate(-0, 17.5, 592.186954)">synaptic membrane</text>
     </g>
    </g>
    <g id="ytick_3">
     <g id="line2d_5">
      <path d="M 27 571.209404 
L 194.4 571.209404 
" clip-path="url(#pcf8ba06806)" style="fill: none; stroke: #cccccc; stroke-linecap: round"/>
     </g>
     <g id="text_5">
      <text style="fill: #262626; font: 11px 'sans-serif'; text-anchor: end" x="17.5" y="575.146201" transform="rotate(-0, 17.5, 575.146201)">postsynaptic membrane</text>
     </g>
    </g>
    <g id="ytick_4">
     <g id="line2d_6">
      <path d="M 27 554.168652 
L 194.4 554.168652 
" clip-path="url(#pcf8ba06806)" style="fill: none; stroke: #cccccc; stroke-linecap: round"/>
     </g>
     <g id="text_6">
      <text style="fill: #262626; font: 11px 'sans-serif'; text-anchor: end" x="17.5" y="558.17248" transform="rotate(-0, 17.5, 558.17248)">pattern specification process</text>
     </g>
    </g>
    <g id="ytick_5">
     <g id="line2d_7">
      <path d="M 27 537.1279 
L 194.4 537.1279 
" clip-path="url(#pcf8ba06806)" style="fill: none; stroke: #cccccc; stroke-linecap: round"/>
     </g>
     <g id="text_7">
      <text style="fill: #262626; font: 11px 'sans-serif'; text-anchor: end" x="17.5" y="541.064697" transform="rotate(-0, 17.5, 541.064697)">embryonic organ development</text>
     </g>
    </g>
    <g id="ytick_6">
     <g id="line2d_8">
      <path d="M 27 520.087147 
L 194.4 520.087147 
" clip-path="url(#pcf8ba06806)" style="fill: none; stroke: #cccccc; stroke-linecap: round"/>
     </g>
     <g id="text_8">
      <text style="fill: #262626; font: 11px 'sans-serif'; text-anchor: end" x="17.5" y="523.959491" transform="rotate(-0, 17.5, 523.959491)">presynapse</text>
     </g>
    </g>
    <g id="ytick_7">
     <g id="line2d_9">
      <path d="M 27 503.046395 
L 194.4 503.046395 
" clip-path="url(#pcf8ba06806)" style="fill: none; stroke: #cccccc; stroke-linecap: round"/>
     </g>
     <g id="text_9">
      <text style="fill: #262626; font: 11px 'sans-serif'; text-anchor: end" x="17.5" y="506.983192" transform="rotate(-0, 17.5, 506.983192)">axonogenesis</text>
     </g>
    </g>
    <g id="ytick_8">
     <g id="line2d_10">
      <path d="M 27 486.005643 
L 194.4 486.005643 
" clip-path="url(#pcf8ba06806)" style="fill: none; stroke: #cccccc; stroke-linecap: round"/>
     </g>
     <g id="text_10">
      <text style="fill: #262626; font: 11px 'sans-serif'; text-anchor: end" x="17.5" y="490.009471" transform="rotate(-0, 17.5, 490.009471)">modulation of chemical synaptic transmission</text>
     </g>
    </g>
    <g id="ytick_9">
     <g id="line2d_11">
      <path d="M 27 468.96489 
L 194.4 468.96489 
" clip-path="url(#pcf8ba06806)" style="fill: none; stroke: #cccccc; stroke-linecap: round"/>
     </g>
     <g id="text_11">
      <text style="fill: #262626; font: 11px 'sans-serif'; text-anchor: end" x="17.5" y="472.968718" transform="rotate(-0, 17.5, 472.968718)">regulation of trans-synaptic signaling</text>
     </g>
    </g>
    <g id="ytick_10">
     <g id="line2d_12">
      <path d="M 27 451.924138 
L 194.4 451.924138 
" clip-path="url(#pcf8ba06806)" style="fill: none; stroke: #cccccc; stroke-linecap: round"/>
     </g>
     <g id="text_12">
      <text style="fill: #262626; font: 11px 'sans-serif'; text-anchor: end" x="17.5" y="455.860935" transform="rotate(-0, 17.5, 455.860935)">regionalization</text>
     </g>
    </g>
    <g id="ytick_11">
     <g id="line2d_13">
      <path d="M 27 434.883386 
L 194.4 434.883386 
" clip-path="url(#pcf8ba06806)" style="fill: none; stroke: #cccccc; stroke-linecap: round"/>
     </g>
     <g id="text_13">
      <text style="fill: #262626; font: 11px 'sans-serif'; text-anchor: end" x="17.5" y="438.820182" transform="rotate(-0, 17.5, 438.820182)">apical plasma membrane</text>
     </g>
    </g>
    <g id="ytick_12">
     <g id="line2d_14">
      <path d="M 27 417.842633 
L 194.4 417.842633 
" clip-path="url(#pcf8ba06806)" style="fill: none; stroke: #cccccc; stroke-linecap: round"/>
     </g>
     <g id="text_14">
      <text style="fill: #262626; font: 11px 'sans-serif'; text-anchor: end" x="17.5" y="421.846461" transform="rotate(-0, 17.5, 421.846461)">apical part of cell</text>
     </g>
    </g>
    <g id="ytick_13">
     <g id="line2d_15">
      <path d="M 27 400.801881 
L 194.4 400.801881 
" clip-path="url(#pcf8ba06806)" style="fill: none; stroke: #cccccc; stroke-linecap: round"/>
     </g>
     <g id="text_15">
      <text style="fill: #262626; font: 11px 'sans-serif'; text-anchor: end" x="17.5" y="404.738678" transform="rotate(-0, 17.5, 404.738678)">anion transmembrane transporter activity</text>
     </g>
    </g>
    <g id="ytick_14">
     <g id="line2d_16">
      <path d="M 27 383.761129 
L 194.4 383.761129 
" clip-path="url(#pcf8ba06806)" style="fill: none; stroke: #cccccc; stroke-linecap: round"/>
     </g>
     <g id="text_16">
      <text style="fill: #262626; font: 11px 'sans-serif'; text-anchor: end" x="17.5" y="387.697925" transform="rotate(-0, 17.5, 387.697925)">brush border membrane</text>
     </g>
    </g>
    <g id="ytick_15">
     <g id="line2d_17">
      <path d="M 27 366.720376 
L 194.4 366.720376 
" clip-path="url(#pcf8ba06806)" style="fill: none; stroke: #cccccc; stroke-linecap: round"/>
     </g>
     <g id="text_17">
      <text style="fill: #262626; font: 11px 'sans-serif'; text-anchor: end" x="17.5" y="370.657173" transform="rotate(-0, 17.5, 370.657173)">secondary active transmembrane transporter activity</text>
     </g>
    </g>
    <g id="ytick_16">
     <g id="line2d_18">
      <path d="M 27 349.679624 
L 194.4 349.679624 
" clip-path="url(#pcf8ba06806)" style="fill: none; stroke: #cccccc; stroke-linecap: round"/>
     </g>
     <g id="text_18">
      <text style="fill: #262626; font: 11px 'sans-serif'; text-anchor: end" x="17.5" y="353.616421" transform="rotate(-0, 17.5, 353.616421)">brush border</text>
     </g>
    </g>
    <g id="ytick_17">
     <g id="line2d_19">
      <path d="M 27 332.638871 
L 194.4 332.638871 
" clip-path="url(#pcf8ba06806)" style="fill: none; stroke: #cccccc; stroke-linecap: round"/>
     </g>
     <g id="text_19">
      <text style="fill: #262626; font: 11px 'sans-serif'; text-anchor: end" x="17.5" y="336.575668" transform="rotate(-0, 17.5, 336.575668)">solute:sodium symporter activity</text>
     </g>
    </g>
    <g id="ytick_18">
     <g id="line2d_20">
      <path d="M 27 315.598119 
L 194.4 315.598119 
" clip-path="url(#pcf8ba06806)" style="fill: none; stroke: #cccccc; stroke-linecap: round"/>
     </g>
     <g id="text_20">
      <text style="fill: #262626; font: 11px 'sans-serif'; text-anchor: end" x="17.5" y="319.534916" transform="rotate(-0, 17.5, 319.534916)">active transmembrane transporter activity</text>
     </g>
    </g>
    <g id="ytick_19">
     <g id="line2d_21">
      <path d="M 27 298.557367 
L 194.4 298.557367 
" clip-path="url(#pcf8ba06806)" style="fill: none; stroke: #cccccc; stroke-linecap: round"/>
     </g>
     <g id="text_21">
      <text style="fill: #262626; font: 11px 'sans-serif'; text-anchor: end" x="17.5" y="302.494164" transform="rotate(-0, 17.5, 302.494164)">sodium ion transmembrane transporter activity</text>
     </g>
    </g>
    <g id="ytick_20">
     <g id="line2d_22">
      <path d="M 27 281.516614 
L 194.4 281.516614 
" clip-path="url(#pcf8ba06806)" style="fill: none; stroke: #cccccc; stroke-linecap: round"/>
     </g>
     <g id="text_22">
      <text style="fill: #262626; font: 11px 'sans-serif'; text-anchor: end" x="17.5" y="285.453411" transform="rotate(-0, 17.5, 285.453411)">active ion transmembrane transporter activity</text>
     </g>
    </g>
    <g id="ytick_21">
     <g id="line2d_23">
      <path d="M 27 264.475862 
L 194.4 264.475862 
" clip-path="url(#pcf8ba06806)" style="fill: none; stroke: #cccccc; stroke-linecap: round"/>
     </g>
     <g id="text_23">
      <text style="fill: #262626; font: 11px 'sans-serif'; text-anchor: end" x="17.5" y="268.412659" transform="rotate(-0, 17.5, 268.412659)">glucosidase activity</text>
     </g>
    </g>
    <g id="ytick_22">
     <g id="line2d_24">
      <path d="M 27 247.43511 
L 194.4 247.43511 
" clip-path="url(#pcf8ba06806)" style="fill: none; stroke: #cccccc; stroke-linecap: round"/>
     </g>
     <g id="text_24">
      <text style="fill: #262626; font: 11px 'sans-serif'; text-anchor: end" x="17.5" y="251.371907" transform="rotate(-0, 17.5, 251.371907)">hydrolase activity, acting on glycosyl bonds</text>
     </g>
    </g>
    <g id="ytick_23">
     <g id="line2d_25">
      <path d="M 27 230.394357 
L 194.4 230.394357 
" clip-path="url(#pcf8ba06806)" style="fill: none; stroke: #cccccc; stroke-linecap: round"/>
     </g>
     <g id="text_25">
      <text style="fill: #262626; font: 11px 'sans-serif'; text-anchor: end" x="17.5" y="234.401623" transform="rotate(-0, 17.5, 234.401623)">hydrolase activity, hydrolyzing O-glycosyl compounds</text>
     </g>
    </g>
    <g id="ytick_24">
     <g id="line2d_26">
      <path d="M 27 213.353605 
L 194.4 213.353605 
" clip-path="url(#pcf8ba06806)" style="fill: none; stroke: #cccccc; stroke-linecap: round"/>
     </g>
     <g id="text_26">
      <text style="fill: #262626; font: 11px 'sans-serif'; text-anchor: end" x="17.5" y="217.290402" transform="rotate(-0, 17.5, 217.290402)">ceramide catabolic process</text>
     </g>
    </g>
    <g id="ytick_25">
     <g id="line2d_27">
      <path d="M 27 196.312853 
L 194.4 196.312853 
" clip-path="url(#pcf8ba06806)" style="fill: none; stroke: #cccccc; stroke-linecap: round"/>
     </g>
     <g id="text_27">
      <text style="fill: #262626; font: 11px 'sans-serif'; text-anchor: end" x="17.5" y="200.24965" transform="rotate(-0, 17.5, 200.24965)">glycoside metabolic process</text>
     </g>
    </g>
    <g id="ytick_26">
     <g id="line2d_28">
      <path d="M 27 179.2721 
L 194.4 179.2721 
" clip-path="url(#pcf8ba06806)" style="fill: none; stroke: #cccccc; stroke-linecap: round"/>
     </g>
     <g id="text_28">
      <text style="fill: #262626; font: 11px 'sans-serif'; text-anchor: end" x="17.5" y="183.208897" transform="rotate(-0, 17.5, 183.208897)">glycoside catabolic process</text>
     </g>
    </g>
    <g id="ytick_27">
     <g id="line2d_29">
      <path d="M 27 162.231348 
L 194.4 162.231348 
" clip-path="url(#pcf8ba06806)" style="fill: none; stroke: #cccccc; stroke-linecap: round"/>
     </g>
     <g id="text_29">
      <text style="fill: #262626; font: 11px 'sans-serif'; text-anchor: end" x="17.5" y="166.168145" transform="rotate(-0, 17.5, 166.168145)">glycolipid catabolic process</text>
     </g>
    </g>
    <g id="ytick_28">
     <g id="line2d_30">
      <path d="M 27 145.190596 
L 194.4 145.190596 
" clip-path="url(#pcf8ba06806)" style="fill: none; stroke: #cccccc; stroke-linecap: round"/>
     </g>
     <g id="text_30">
      <text style="fill: #262626; font: 11px 'sans-serif'; text-anchor: end" x="17.5" y="149.127392" transform="rotate(-0, 17.5, 149.127392)">oligosaccharide catabolic process</text>
     </g>
    </g>
    <g id="ytick_29">
     <g id="line2d_31">
      <path d="M 27 128.149843 
L 194.4 128.149843 
" clip-path="url(#pcf8ba06806)" style="fill: none; stroke: #cccccc; stroke-linecap: round"/>
     </g>
     <g id="text_31">
      <text style="fill: #262626; font: 11px 'sans-serif'; text-anchor: end" x="17.5" y="132.08664" transform="rotate(-0, 17.5, 132.08664)">glycosphingolipid catabolic process</text>
     </g>
    </g>
    <g id="ytick_30">
     <g id="line2d_32">
      <path d="M 27 111.109091 
L 194.4 111.109091 
" clip-path="url(#pcf8ba06806)" style="fill: none; stroke: #cccccc; stroke-linecap: round"/>
     </g>
     <g id="text_32">
      <text style="fill: #262626; font: 11px 'sans-serif'; text-anchor: end" x="17.5" y="115.045888" transform="rotate(-0, 17.5, 115.045888)">glycosylceramide metabolic process</text>
     </g>
    </g>
   </g>
   <g id="PathCollection_1">
    <path d="M 35.361759 612.414813 
C 37.25104 612.414813 39.063196 611.664193 40.399119 610.32827 
C 41.735043 608.992346 42.485662 607.18019 42.485662 605.290909 
C 42.485662 603.401628 41.735043 601.589472 40.399119 600.253549 
C 39.063196 598.917625 37.25104 598.167006 35.361759 598.167006 
C 33.472478 598.167006 31.660322 598.917625 30.324398 600.253549 
C 28.988475 601.589472 28.237855 603.401628 28.237855 605.290909 
C 28.237855 607.18019 28.988475 608.992346 30.324398 610.32827 
C 31.660322 611.664193 33.472478 612.414813 35.361759 612.414813 
z
" clip-path="url(#pcf8ba06806)" style="fill: #ff8c00; stroke: #ff8c00"/>
    <path d="M 37.701259 596.312414 
C 39.839395 596.312414 41.890246 595.462924 43.402136 593.951034 
C 44.914026 592.439144 45.763517 590.388292 45.763517 588.250157 
C 45.763517 586.112021 44.914026 584.06117 43.402136 582.54928 
C 41.890246 581.037389 39.839395 580.187899 37.701259 580.187899 
C 35.563123 580.187899 33.512272 581.037389 32.000382 582.54928 
C 30.488491 584.06117 29.639001 586.112021 29.639001 588.250157 
C 29.639001 590.388292 30.488491 592.439144 32.000382 593.951034 
C 33.512272 595.462924 35.563123 596.312414 37.701259 596.312414 
z
" clip-path="url(#pcf8ba06806)" style="fill: #ff8c00; stroke: #ff8c00"/>
    <path d="M 34.70647 578.209404 
C 36.562891 578.209404 38.343529 577.47184 39.656217 576.159152 
C 40.968905 574.846463 41.70647 573.065826 41.70647 571.209404 
C 41.70647 569.352983 40.968905 567.572345 39.656217 566.259657 
C 38.343529 564.946969 36.562891 564.209404 34.70647 564.209404 
C 32.850048 564.209404 31.069411 564.946969 29.756722 566.259657 
C 28.444034 567.572345 27.70647 569.352983 27.70647 571.209404 
C 27.70647 573.065826 28.444034 574.846463 29.756722 576.159152 
C 31.069411 577.47184 32.850048 578.209404 34.70647 578.209404 
z
" clip-path="url(#pcf8ba06806)" style="fill: #ff8c00; stroke: #ff8c00"/>
    <path d="M 39.099308 562.550179 
C 41.322115 562.550179 43.454181 561.667049 45.025943 560.095287 
C 46.597705 558.523525 47.480836 556.391459 47.480836 554.168652 
C 47.480836 551.945845 46.597705 549.813779 45.025943 548.242017 
C 43.454181 546.670255 41.322115 545.787125 39.099308 545.787125 
C 36.876501 545.787125 34.744435 546.670255 33.172674 548.242017 
C 31.600912 549.813779 30.717781 551.945845 30.717781 554.168652 
C 30.717781 556.391459 31.600912 558.523525 33.172674 560.095287 
C 34.744435 561.667049 36.876501 562.550179 39.099308 562.550179 
z
" clip-path="url(#pcf8ba06806)" style="fill: #ff8c00; stroke: #ff8c00"/>
    <path d="M 38.573715 545.343738 
C 40.752581 545.343738 42.8425 544.478065 44.38319 542.937375 
C 45.923881 541.396684 46.789554 539.306765 46.789554 537.1279 
C 46.789554 534.949034 45.923881 532.859115 44.38319 531.318425 
C 42.8425 529.777734 40.752581 528.912061 38.573715 528.912061 
C 36.39485 528.912061 34.304931 529.777734 32.76424 531.318425 
C 31.22355 532.859115 30.357877 534.949034 30.357877 537.1279 
C 30.357877 539.306765 31.22355 541.396684 32.76424 542.937375 
C 34.304931 544.478065 36.39485 545.343738 38.573715 545.343738 
z
" clip-path="url(#pcf8ba06806)" style="fill: #ff8c00; stroke: #ff8c00"/>
    <path d="M 39.565939 528.761823 
C 41.86649 528.761823 44.073126 527.847805 45.699861 526.221069 
C 47.326596 524.594334 48.240615 522.387698 48.240615 520.087147 
C 48.240615 517.786596 47.326596 515.57996 45.699861 513.953225 
C 44.073126 512.32649 41.86649 511.412472 39.565939 511.412472 
C 37.265388 511.412472 35.058752 512.32649 33.432017 513.953225 
C 31.805282 515.57996 30.891263 517.786596 30.891263 520.087147 
C 30.891263 522.387698 31.805282 524.594334 33.432017 526.221069 
C 35.058752 527.847805 37.265388 528.761823 39.565939 528.761823 
z
" clip-path="url(#pcf8ba06806)" style="fill: #ff8c00; stroke: #ff8c00"/>
    <path d="M 39.508103 511.561088 
C 41.766226 511.561088 43.932166 510.663926 45.5289 509.067192 
C 47.125634 507.470458 48.022796 505.304518 48.022796 503.046395 
C 48.022796 500.788272 47.125634 498.622332 45.5289 497.025598 
C 43.932166 495.428864 41.766226 494.531702 39.508103 494.531702 
C 37.24998 494.531702 35.08404 495.428864 33.487305 497.025598 
C 31.890571 498.622332 30.99341 500.788272 30.99341 503.046395 
C 30.99341 505.304518 31.890571 507.470458 33.487305 509.067192 
C 35.08404 510.663926 37.24998 511.561088 39.508103 511.561088 
z
" clip-path="url(#pcf8ba06806)" style="fill: #ff8c00; stroke: #ff8c00"/>
    <path d="M 38.22332 494.11428 
C 40.373756 494.11428 42.436405 493.259903 43.956993 491.739315 
C 45.47758 490.218727 46.331958 488.156078 46.331958 486.005643 
C 46.331958 483.855207 45.47758 481.792558 43.956993 480.27197 
C 42.436405 478.751382 40.373756 477.897005 38.22332 477.897005 
C 36.072884 477.897005 34.010235 478.751382 32.489648 480.27197 
C 30.96906 481.792558 30.114683 483.855207 30.114683 486.005643 
C 30.114683 488.156078 30.96906 490.218727 32.489648 491.739315 
C 34.010235 493.259903 36.072884 494.11428 38.22332 494.11428 
z
" clip-path="url(#pcf8ba06806)" style="fill: #ff8c00; stroke: #ff8c00"/>
    <path d="M 38.22332 477.073528 
C 40.373756 477.073528 42.436405 476.21915 43.956993 474.698563 
C 45.47758 473.177975 46.331958 471.115326 46.331958 468.96489 
C 46.331958 466.814455 45.47758 464.751806 43.956993 463.231218 
C 42.436405 461.71063 40.373756 460.856253 38.22332 460.856253 
C 36.072884 460.856253 34.010235 461.71063 32.489648 463.231218 
C 30.96906 464.751806 30.114683 466.814455 30.114683 468.96489 
C 30.114683 471.115326 30.96906 473.177975 32.489648 474.698563 
C 34.010235 476.21915 36.072884 477.073528 38.22332 477.073528 
z
" clip-path="url(#pcf8ba06806)" style="fill: #ff8c00; stroke: #ff8c00"/>
    <path d="M 36.237747 459.357172 
C 38.209011 459.357172 40.099802 458.573981 41.493696 457.180087 
C 42.88759 455.786193 43.670781 453.895402 43.670781 451.924138 
C 43.670781 449.952874 42.88759 448.062083 41.493696 446.668189 
C 40.099802 445.274295 38.209011 444.491104 36.237747 444.491104 
C 34.266483 444.491104 32.375692 445.274295 30.981798 446.668189 
C 29.587904 448.062083 28.804713 449.952874 28.804713 451.924138 
C 28.804713 453.895402 29.587904 455.786193 30.981798 457.180087 
C 32.375692 458.573981 34.266483 459.357172 36.237747 459.357172 
z
" clip-path="url(#pcf8ba06806)" style="fill: #ff8c00; stroke: #ff8c00"/>
    <path d="M 50.466046 437.965593 
C 51.283457 437.965593 52.067499 437.640832 52.645495 437.062835 
C 53.223492 436.484838 53.548253 435.700796 53.548253 434.883386 
C 53.548253 434.065975 53.223492 433.281933 52.645495 432.703936 
C 52.067499 432.125939 51.283457 431.801179 50.466046 431.801179 
C 49.648635 431.801179 48.864593 432.125939 48.286597 432.703936 
C 47.7086 433.281933 47.383839 434.065975 47.383839 434.883386 
C 47.383839 435.700796 47.7086 436.484838 48.286597 437.062835 
C 48.864593 437.640832 49.648635 437.965593 50.466046 437.965593 
z
" clip-path="url(#pcf8ba06806)" style="fill: #008080; stroke: #008080"/>
    <path d="M 52.019606 421.044195 
C 52.86867 421.044195 53.683073 420.706859 54.283452 420.10648 
C 54.883831 419.5061 55.221168 418.691697 55.221168 417.842633 
C 55.221168 416.993569 54.883831 416.179166 54.283452 415.578787 
C 53.683073 414.978408 52.86867 414.641071 52.019606 414.641071 
C 51.170541 414.641071 50.356138 414.978408 49.755759 415.578787 
C 49.15538 416.179166 48.818044 416.993569 48.818044 417.842633 
C 48.818044 418.691697 49.15538 419.5061 49.755759 420.10648 
C 50.356138 420.706859 51.170541 421.044195 52.019606 421.044195 
z
" clip-path="url(#pcf8ba06806)" style="fill: #008080; stroke: #008080"/>
    <path d="M 53.427273 404.003443 
C 54.276337 404.003443 55.09074 403.666106 55.691119 403.065727 
C 56.291498 402.465348 56.628835 401.650945 56.628835 400.801881 
C 56.628835 399.952817 56.291498 399.138414 55.691119 398.538035 
C 55.09074 397.937656 54.276337 397.600319 53.427273 397.600319 
C 52.578209 397.600319 51.763805 397.937656 51.163426 398.538035 
C 50.563047 399.138414 50.225711 399.952817 50.225711 400.801881 
C 50.225711 401.650945 50.563047 402.465348 51.163426 403.065727 
C 51.763805 403.666106 52.578209 404.003443 53.427273 404.003443 
z
" clip-path="url(#pcf8ba06806)" style="fill: #008080; stroke: #008080"/>
    <path d="M 34.930449 385.631957 
C 35.426599 385.631957 35.902494 385.434835 36.253325 385.084004 
C 36.604155 384.733173 36.801278 384.257278 36.801278 383.761129 
C 36.801278 383.264979 36.604155 382.789084 36.253325 382.438253 
C 35.902494 382.087422 35.426599 381.8903 34.930449 381.8903 
C 34.434299 381.8903 33.958404 382.087422 33.607573 382.438253 
C 33.256743 382.789084 33.05962 383.264979 33.05962 383.761129 
C 33.05962 384.257278 33.256743 384.733173 33.607573 385.084004 
C 33.958404 385.434835 34.434299 385.631957 34.930449 385.631957 
z
" clip-path="url(#pcf8ba06806)" style="fill: #008080; stroke: #008080"/>
    <path d="M 42.790909 369.220376 
C 43.453917 369.220376 44.089859 368.95696 44.558676 368.488143 
C 45.027493 368.019326 45.290909 367.383384 45.290909 366.720376 
C 45.290909 366.057368 45.027493 365.421426 44.558676 364.952609 
C 44.089859 364.483792 43.453917 364.220376 42.790909 364.220376 
C 42.127901 364.220376 41.491959 364.483792 41.023142 364.952609 
C 40.554325 365.421426 40.290909 366.057368 40.290909 366.720376 
C 40.290909 367.383384 40.554325 368.019326 41.023142 368.488143 
C 41.491959 368.95696 42.127901 369.220376 42.790909 369.220376 
z
" clip-path="url(#pcf8ba06806)" style="fill: #008080; stroke: #008080"/>
    <path d="M 35.707229 351.616115 
C 36.220793 351.616115 36.713391 351.412075 37.076535 351.04893 
C 37.43968 350.685786 37.643721 350.193187 37.643721 349.679624 
C 37.643721 349.16606 37.43968 348.673462 37.076535 348.310317 
C 36.713391 347.947173 36.220793 347.743132 35.707229 347.743132 
C 35.193665 347.743132 34.701067 347.947173 34.337923 348.310317 
C 33.974778 348.673462 33.770737 349.16606 33.770737 349.679624 
C 33.770737 350.193187 33.974778 350.685786 34.337923 351.04893 
C 34.701067 351.412075 35.193665 351.616115 35.707229 351.616115 
z
" clip-path="url(#pcf8ba06806)" style="fill: #008080; stroke: #008080"/>
    <path d="M 34.609091 334.441647 
C 35.087193 334.441647 35.545777 334.251695 35.883846 333.913626 
C 36.221915 333.575557 36.411867 333.116973 36.411867 332.638871 
C 36.411867 332.16077 36.221915 331.702186 35.883846 331.364117 
C 35.545777 331.026048 35.087193 330.836096 34.609091 330.836096 
C 34.130989 330.836096 33.672405 331.026048 33.334336 331.364117 
C 32.996267 331.702186 32.806315 332.16077 32.806315 332.638871 
C 32.806315 333.116973 32.996267 333.575557 33.334336 333.913626 
C 33.672405 334.251695 34.130989 334.441647 34.609091 334.441647 
z
" clip-path="url(#pcf8ba06806)" style="fill: #008080; stroke: #008080"/>
    <path d="M 43.609091 318.147629 
C 44.285229 318.147629 44.933765 317.878996 45.411867 317.400895 
C 45.889968 316.922793 46.158601 316.274257 46.158601 315.598119 
C 46.158601 314.921981 45.889968 314.273445 45.411867 313.795343 
C 44.933765 313.317242 44.285229 313.048609 43.609091 313.048609 
C 42.932953 313.048609 42.284417 313.317242 41.806315 313.795343 
C 41.328214 314.273445 41.059581 314.921981 41.059581 315.598119 
C 41.059581 316.274257 41.328214 316.922793 41.806315 317.400895 
C 42.284417 317.878996 42.932953 318.147629 43.609091 318.147629 
z
" clip-path="url(#pcf8ba06806)" style="fill: #008080; stroke: #008080"/>
    <path d="M 37.881818 300.678687 
C 38.444399 300.678687 38.984014 300.455171 39.381818 300.057367 
C 39.779623 299.659562 40.003139 299.119948 40.003139 298.557367 
C 40.003139 297.994786 39.779623 297.455171 39.381818 297.057367 
C 38.984014 296.659562 38.444399 296.436046 37.881818 296.436046 
C 37.319237 296.436046 36.779623 296.659562 36.381818 297.057367 
C 35.984014 297.455171 35.760498 297.994786 35.760498 298.557367 
C 35.760498 299.119948 35.984014 299.659562 36.381818 300.057367 
C 36.779623 300.455171 37.319237 300.678687 37.881818 300.678687 
z
" clip-path="url(#pcf8ba06806)" style="fill: #008080; stroke: #008080"/>
    <path d="M 39.518182 283.752682 
C 40.111194 283.752682 40.679998 283.517076 41.099321 283.097753 
C 41.518644 282.67843 41.75425 282.109627 41.75425 281.516614 
C 41.75425 280.923602 41.518644 280.354799 41.099321 279.935476 
C 40.679998 279.516153 40.111194 279.280546 39.518182 279.280546 
C 38.92517 279.280546 38.356366 279.516153 37.937043 279.935476 
C 37.51772 280.354799 37.282114 280.923602 37.282114 281.516614 
C 37.282114 282.109627 37.51772 282.67843 37.937043 283.097753 
C 38.356366 283.517076 38.92517 283.752682 39.518182 283.752682 
z
" clip-path="url(#pcf8ba06806)" style="fill: #008080; stroke: #008080"/>
    <path d="M 186.790909 264.975862 
C 186.923511 264.975862 187.050699 264.923179 187.144462 264.829415 
C 187.238226 264.735652 187.290909 264.608464 187.290909 264.475862 
C 187.290909 264.343261 187.238226 264.216072 187.144462 264.122309 
C 187.050699 264.028545 186.923511 263.975862 186.790909 263.975862 
C 186.658308 263.975862 186.531119 264.028545 186.437356 264.122309 
C 186.343592 264.216072 186.290909 264.343261 186.290909 264.475862 
C 186.290909 264.608464 186.343592 264.735652 186.437356 264.829415 
C 186.531119 264.923179 186.658308 264.975862 186.790909 264.975862 
z
" clip-path="url(#pcf8ba06806)" style="fill: #4169e1; stroke: #4169e1"/>
    <path d="M 186.790909 247.93511 
C 186.923511 247.93511 187.050699 247.882427 187.144462 247.788663 
C 187.238226 247.6949 187.290909 247.567711 187.290909 247.43511 
C 187.290909 247.302508 187.238226 247.17532 187.144462 247.081556 
C 187.050699 246.987793 186.923511 246.93511 186.790909 246.93511 
C 186.658308 246.93511 186.531119 246.987793 186.437356 247.081556 
C 186.343592 247.17532 186.290909 247.302508 186.290909 247.43511 
C 186.290909 247.567711 186.343592 247.6949 186.437356 247.788663 
C 186.531119 247.882427 186.658308 247.93511 186.790909 247.93511 
z
" clip-path="url(#pcf8ba06806)" style="fill: #4169e1; stroke: #4169e1"/>
    <path d="M 186.790909 230.894357 
C 186.923511 230.894357 187.050699 230.841674 187.144462 230.747911 
C 187.238226 230.654147 187.290909 230.526959 187.290909 230.394357 
C 187.290909 230.261756 187.238226 230.134567 187.144462 230.040804 
C 187.050699 229.947041 186.923511 229.894357 186.790909 229.894357 
C 186.658308 229.894357 186.531119 229.947041 186.437356 230.040804 
C 186.343592 230.134567 186.290909 230.261756 186.290909 230.394357 
C 186.290909 230.526959 186.343592 230.654147 186.437356 230.747911 
C 186.531119 230.841674 186.658308 230.894357 186.790909 230.894357 
z
" clip-path="url(#pcf8ba06806)" style="fill: #4169e1; stroke: #4169e1"/>
    <path d="M 133.063636 213.853605 
C 133.196238 213.853605 133.323426 213.800922 133.41719 213.707158 
C 133.510953 213.613395 133.563636 213.486207 133.563636 213.353605 
C 133.563636 213.221003 133.510953 213.093815 133.41719 213.000052 
C 133.323426 212.906288 133.196238 212.853605 133.063636 212.853605 
C 132.931035 212.853605 132.803846 212.906288 132.710083 213.000052 
C 132.61632 213.093815 132.563636 213.221003 132.563636 213.353605 
C 132.563636 213.486207 132.61632 213.613395 132.710083 213.707158 
C 132.803846 213.800922 132.931035 213.853605 133.063636 213.853605 
z
" clip-path="url(#pcf8ba06806)" style="fill: #4169e1; stroke: #4169e1"/>
    <path d="M 133.063636 196.812853 
C 133.196238 196.812853 133.323426 196.76017 133.41719 196.666406 
C 133.510953 196.572643 133.563636 196.445454 133.563636 196.312853 
C 133.563636 196.180251 133.510953 196.053063 133.41719 195.959299 
C 133.323426 195.865536 133.196238 195.812853 133.063636 195.812853 
C 132.931035 195.812853 132.803846 195.865536 132.710083 195.959299 
C 132.61632 196.053063 132.563636 196.180251 132.563636 196.312853 
C 132.563636 196.445454 132.61632 196.572643 132.710083 196.666406 
C 132.803846 196.76017 132.931035 196.812853 133.063636 196.812853 
z
" clip-path="url(#pcf8ba06806)" style="fill: #4169e1; stroke: #4169e1"/>
    <path d="M 133.063636 179.7721 
C 133.196238 179.7721 133.323426 179.719417 133.41719 179.625654 
C 133.510953 179.53189 133.563636 179.404702 133.563636 179.2721 
C 133.563636 179.139499 133.510953 179.01231 133.41719 178.918547 
C 133.323426 178.824783 133.196238 178.7721 133.063636 178.7721 
C 132.931035 178.7721 132.803846 178.824783 132.710083 178.918547 
C 132.61632 179.01231 132.563636 179.139499 132.563636 179.2721 
C 132.563636 179.404702 132.61632 179.53189 132.710083 179.625654 
C 132.803846 179.719417 132.931035 179.7721 133.063636 179.7721 
z
" clip-path="url(#pcf8ba06806)" style="fill: #4169e1; stroke: #4169e1"/>
    <path d="M 133.063636 162.731348 
C 133.196238 162.731348 133.323426 162.678665 133.41719 162.584901 
C 133.510953 162.491138 133.563636 162.36395 133.563636 162.231348 
C 133.563636 162.098746 133.510953 161.971558 133.41719 161.877795 
C 133.323426 161.784031 133.196238 161.731348 133.063636 161.731348 
C 132.931035 161.731348 132.803846 161.784031 132.710083 161.877795 
C 132.61632 161.971558 132.563636 162.098746 132.563636 162.231348 
C 132.563636 162.36395 132.61632 162.491138 132.710083 162.584901 
C 132.803846 162.678665 132.931035 162.731348 133.063636 162.731348 
z
" clip-path="url(#pcf8ba06806)" style="fill: #4169e1; stroke: #4169e1"/>
    <path d="M 133.063636 145.690596 
C 133.196238 145.690596 133.323426 145.637912 133.41719 145.544149 
C 133.510953 145.450386 133.563636 145.323197 133.563636 145.190596 
C 133.563636 145.057994 133.510953 144.930806 133.41719 144.837042 
C 133.323426 144.743279 133.196238 144.690596 133.063636 144.690596 
C 132.931035 144.690596 132.803846 144.743279 132.710083 144.837042 
C 132.61632 144.930806 132.563636 145.057994 132.563636 145.190596 
C 132.563636 145.323197 132.61632 145.450386 132.710083 145.544149 
C 132.803846 145.637912 132.931035 145.690596 133.063636 145.690596 
z
" clip-path="url(#pcf8ba06806)" style="fill: #4169e1; stroke: #4169e1"/>
    <path d="M 133.063636 128.649843 
C 133.196238 128.649843 133.323426 128.59716 133.41719 128.503397 
C 133.510953 128.409633 133.563636 128.282445 133.563636 128.149843 
C 133.563636 128.017242 133.510953 127.890053 133.41719 127.79629 
C 133.323426 127.702526 133.196238 127.649843 133.063636 127.649843 
C 132.931035 127.649843 132.803846 127.702526 132.710083 127.79629 
C 132.61632 127.890053 132.563636 128.017242 132.563636 128.149843 
C 132.563636 128.282445 132.61632 128.409633 132.710083 128.503397 
C 132.803846 128.59716 132.931035 128.649843 133.063636 128.649843 
z
" clip-path="url(#pcf8ba06806)" style="fill: #4169e1; stroke: #4169e1"/>
    <path d="M 133.063636 111.609091 
C 133.196238 111.609091 133.323426 111.556408 133.41719 111.462644 
C 133.510953 111.368881 133.563636 111.241692 133.563636 111.109091 
C 133.563636 110.976489 133.510953 110.849301 133.41719 110.755538 
C 133.323426 110.661774 133.196238 110.609091 133.063636 110.609091 
C 132.931035 110.609091 132.803846 110.661774 132.710083 110.755538 
C 132.61632 110.849301 132.563636 110.976489 132.563636 111.109091 
C 132.563636 111.241692 132.61632 111.368881 132.710083 111.462644 
C 132.803846 111.556408 132.931035 111.609091 133.063636 111.609091 
z
" clip-path="url(#pcf8ba06806)" style="fill: #4169e1; stroke: #4169e1"/>
   </g>
   <g id="PathCollection_2"/>
   <g id="PathCollection_3"/>
   <g id="patch_3">
    <path d="M 27 630 
L 27 86.4 
" style="fill: none; stroke: #cccccc; stroke-width: 1.25; stroke-linejoin: miter; stroke-linecap: square"/>
   </g>
   <g id="patch_4">
    <path d="M 194.4 630 
L 194.4 86.4 
" style="fill: none; stroke: #cccccc; stroke-width: 1.25; stroke-linejoin: miter; stroke-linecap: square"/>
   </g>
   <g id="patch_5">
    <path d="M 27 630 
L 194.4 630 
" style="fill: none; stroke: #cccccc; stroke-width: 1.25; stroke-linejoin: miter; stroke-linecap: square"/>
   </g>
   <g id="patch_6">
    <path d="M 27 86.4 
L 194.4 86.4 
" style="fill: none; stroke: #cccccc; stroke-width: 1.25; stroke-linejoin: miter; stroke-linecap: square"/>
   </g>
   <g id="text_33">
    <text style="fill: #262626; font: 12px 'sans-serif'; text-anchor: middle" x="110.7" y="80.4" transform="rotate(-0, 110.7, 80.4)">Down regulated</text>
   </g>
   <g id="legend_1">
    <g id="patch_7">
     <path d="M 32.6 680.36 
L 93.16 680.36 
Q 94.76 680.36 94.76 678.76 
L 94.76 641.953125 
Q 94.76 640.353125 93.16 640.353125 
L 32.6 640.353125 
Q 31 640.353125 31 641.953125 
L 31 678.76 
Q 31 680.36 32.6 680.36 
z
" style="fill: #ffffff; opacity: 0.8; stroke: #cccccc; stroke-linejoin: miter"/>
    </g>
    <g id="text_34">
     <text style="fill: #262626; font: 12px 'sans-serif'; text-anchor: start" x="34.2" y="652.1425" transform="rotate(-0, 34.2, 652.1425)">No. Genes</text>
    </g>
    <g id="PathCollection_4">
     <defs>
      <path id="mb8e02d7953" d="M 0 1.658312 
C 0.43979 1.658312 0.861626 1.483582 1.172604 1.172604 
C 1.483582 0.861626 1.658312 0.43979 1.658312 0 
C 1.658312 -0.43979 1.483582 -0.861626 1.172604 -1.172604 
C 0.861626 -1.483582 0.43979 -1.658312 0 -1.658312 
C -0.43979 -1.658312 -0.861626 -1.483582 -1.172604 -1.172604 
C -1.483582 -0.861626 -1.658312 -0.43979 -1.658312 0 
C -1.658312 0.43979 -1.483582 0.861626 -1.172604 1.172604 
C -0.861626 1.483582 -0.43979 1.658312 0 1.658312 
z
" style="stroke: #222222"/>
     </defs>
     <g>
      <use xlink:href="#mb8e02d7953" x="53.006875" y="662.15375" style="fill: #222222; stroke: #222222"/>
     </g>
    </g>
    <g id="text_35">
     <text style="fill: #262626; font: 8px 'sans-serif'; text-anchor: start" x="67.406875" y="664.25375" transform="rotate(-0, 67.406875, 664.25375)">1</text>
    </g>
    <g id="PathCollection_5">
     <defs>
      <path id="ma0af377809" d="M 0 8.803408 
C 2.334691 8.803408 4.574074 7.875826 6.22495 6.22495 
C 7.875826 4.574074 8.803408 2.334691 8.803408 0 
C 8.803408 -2.334691 7.875826 -4.574074 6.22495 -6.22495 
C 4.574074 -7.875826 2.334691 -8.803408 0 -8.803408 
C -2.334691 -8.803408 -4.574074 -7.875826 -6.22495 -6.22495 
C -7.875826 -4.574074 -8.803408 -2.334691 -8.803408 0 
C -8.803408 2.334691 -7.875826 4.574074 -6.22495 6.22495 
C -4.574074 7.875826 -2.334691 8.803408 0 8.803408 
z
" style="stroke: #222222"/>
     </defs>
     <g>
      <use xlink:href="#ma0af377809" x="53.006875" y="673.47" style="fill: #222222; stroke: #222222"/>
     </g>
    </g>
    <g id="text_36">
     <text style="fill: #262626; font: 8px 'sans-serif'; text-anchor: start" x="67.406875" y="675.57" transform="rotate(-0, 67.406875, 675.57)">247</text>
    </g>
   </g>
   <g id="legend_2">
    <g id="patch_8">
     <path d="M 32.6 680.36 
L 93.16 680.36 
Q 94.76 680.36 94.76 678.76 
L 94.76 641.953125 
Q 94.76 640.353125 93.16 640.353125 
L 32.6 640.353125 
Q 31 640.353125 31 641.953125 
L 31 678.76 
Q 31 680.36 32.6 680.36 
z
" style="fill: #ffffff; opacity: 0.8; stroke: #cccccc; stroke-linejoin: miter"/>
    </g>
    <g id="text_37">
     <text style="fill: #262626; font: 12px 'sans-serif'; text-anchor: start" x="34.2" y="652.1425" transform="rotate(-0, 34.2, 652.1425)">No. Genes</text>
    </g>
    <g id="PathCollection_6">
     <g>
      <use xlink:href="#mb8e02d7953" x="53.006875" y="662.15375" style="fill: #222222; stroke: #222222"/>
     </g>
    </g>
    <g id="text_38">
     <text style="fill: #262626; font: 8px 'sans-serif'; text-anchor: start" x="67.406875" y="664.25375" transform="rotate(-0, 67.406875, 664.25375)">1</text>
    </g>
    <g id="PathCollection_7">
     <g>
      <use xlink:href="#ma0af377809" x="53.006875" y="673.47" style="fill: #222222; stroke: #222222"/>
     </g>
    </g>
    <g id="text_39">
     <text style="fill: #262626; font: 8px 'sans-serif'; text-anchor: start" x="67.406875" y="675.57" transform="rotate(-0, 67.406875, 675.57)">247</text>
    </g>
   </g>
  </g>
 </g>
 <defs>
  <clipPath id="pcf8ba06806">
   <rect x="27" y="86.4" width="167.4" height="543.6"/>
  </clipPath>
 </defs>
</svg>
