<?xml version="1.0" encoding="utf-8" standalone="no"?>
<!DOCTYPE svg PUBLIC "-//W3C//DTD SVG 1.1//EN"
  "http://www.w3.org/Graphics/SVG/1.1/DTD/svg11.dtd">
<svg xmlns:xlink="http://www.w3.org/1999/xlink" width="216pt" height="720pt" viewBox="0 0 216 720" xmlns="http://www.w3.org/2000/svg" version="1.1">
 <metadata>
  <rdf:RDF xmlns:dc="http://purl.org/dc/elements/1.1/" xmlns:cc="http://creativecommons.org/ns#" xmlns:rdf="http://www.w3.org/1999/02/22-rdf-syntax-ns#">
   <cc:Work>
    <dc:type rdf:resource="http://purl.org/dc/dcmitype/StillImage"/>
    <dc:date>2022-06-10T08:41:15.483280</dc:date>
    <dc:format>image/svg+xml</dc:format>
    <dc:creator>
     <cc:Agent>
      <dc:title>Matplotlib v3.5.2, https://matplotlib.org/</dc:title>
     </cc:Agent>
    </dc:creator>
   </cc:Work>
  </rdf:RDF>
 </metadata>
 <defs>
  <style type="text/css">*{stroke-linejoin: round; stroke-linecap: butt}</style>
 </defs>
 <g id="figure_1">
  <g id="patch_1">
   <path d="M 0 720 
L 216 720 
L 216 0 
L 0 0 
z
" style="fill: #ffffff"/>
  </g>
  <g id="axes_1">
   <g id="patch_2">
    <path d="M 174.901223 366.301396 
C 177.049738 366.301396 179.110545 365.447782 180.629775 363.928552 
C 182.149005 362.409322 183.002619 360.348515 183.002619 358.2 
C 183.002619 356.051485 182.149005 353.990678 180.629775 352.471448 
C 179.110545 350.952218 177.049738 350.098604 174.901223 350.098604 
C 172.752708 350.098604 170.691901 350.952218 169.172671 352.471448 
C 167.653442 353.990678 166.799827 356.051485 166.799827 358.2 
C 166.799827 360.348515 167.653442 362.409322 169.172671 363.928552 
C 170.691901 365.447782 172.752708 366.301396 174.901223 366.301396 
z
" clip-path="url(#p9b784d34c3)" style="fill: #e68e25; opacity: 0.4"/>
   </g>
   <g id="patch_3">
    <path d="M 165.975078 358.840146 
C 165.892244 360.653991 165.458126 362.434633 164.69686 364.083077 
C 163.935594 365.731521 162.861553 367.216641 161.53445 368.455872 
C 160.207347 369.695102 158.65224 370.665044 156.955585 371.311772 
C 155.258931 371.958501 153.452765 372.269804 151.637502 372.228376 
C 149.82224 372.186948 148.032156 371.793571 146.366772 371.070114 
C 144.701388 370.346657 143.192149 369.306781 141.922962 368.008298 
C 140.653774 366.709815 139.648604 365.177242 138.963333 363.495785 
C 138.278062 361.814328 137.925629 360.015735 137.925629 358.2 
C 137.925629 356.384265 138.278062 354.585672 138.963333 352.904215 
C 139.648604 351.222758 140.653774 349.690185 141.922962 348.391702 
C 143.192149 347.093219 144.701388 346.053343 146.366772 345.329886 
C 148.032156 344.606429 149.82224 344.213052 151.637502 344.171624 
C 153.452765 344.130196 155.258931 344.441499 156.955585 345.088228 
C 158.65224 345.734956 160.207347 346.704898 161.53445 347.944128 
C 162.861553 349.183359 163.935594 350.668479 164.69686 352.316923 
C 165.458126 353.965367 165.892244 355.746009 165.975078 357.559854 
C 165.891285 349.210317 164.168912 340.957898 160.905907 333.271899 
C 157.642901 325.585899 152.902313 318.61483 146.95373 312.755123 
C 141.005147 306.895417 133.963511 302.260297 126.229266 299.113354 
C 118.495021 295.966411 110.217611 294.368451 101.867759 294.410348 
C 93.517906 294.452245 85.256949 296.133189 77.554674 299.357588 
C 69.852398 302.581987 62.85763 307.287537 56.96815 313.206643 
C 51.07867 319.12575 46.408275 326.14404 43.222564 333.862397 
C 40.036853 341.580755 38.397381 349.850042 38.397381 358.2 
C 38.397381 366.549958 40.036853 374.819245 43.222564 382.537603 
C 46.408275 390.25596 51.07867 397.27425 56.96815 403.193357 
C 62.85763 409.112463 69.852398 413.818013 77.554674 417.042412 
C 85.256949 420.266811 93.517906 421.947755 101.867759 421.989652 
C 110.217611 422.031549 118.495021 420.433589 126.229266 417.286646 
C 133.963511 414.139703 141.005147 409.504583 146.95373 403.644877 
C 152.902313 397.78517 157.642901 390.814101 160.905907 383.128101 
C 164.168912 375.442102 165.891285 367.189683 165.975078 358.840146 
" clip-path="url(#p9b784d34c3)" style="fill: #6aaf44; opacity: 0.4"/>
   </g>
   <g id="patch_4">
    <path d="M 165.975078 357.559854 
C 165.892244 355.746009 165.458126 353.965367 164.69686 352.316923 
C 163.935594 350.668479 162.861553 349.183359 161.53445 347.944128 
C 160.207347 346.704898 158.65224 345.734956 156.955585 345.088228 
C 155.258931 344.441499 153.452765 344.130196 151.637502 344.171624 
C 149.82224 344.213052 148.032156 344.606429 146.366772 345.329886 
C 144.701388 346.053343 143.192149 347.093219 141.922962 348.391702 
C 140.653774 349.690185 139.648604 351.222758 138.963333 352.904215 
C 138.278062 354.585672 137.925629 356.384265 137.925629 358.2 
C 137.925629 360.015735 138.278062 361.814328 138.963333 363.495785 
C 139.648604 365.177242 140.653774 366.709815 141.922962 368.008298 
C 143.192149 369.306781 144.701388 370.346657 146.366772 371.070114 
C 148.032156 371.793571 149.82224 372.186948 151.637502 372.228376 
C 153.452765 372.269804 155.258931 371.958501 156.955585 371.311772 
C 158.65224 370.665044 160.207347 369.695102 161.53445 368.455872 
C 162.861553 367.216641 163.935594 365.731521 164.69686 364.083077 
C 165.458126 362.434633 165.892244 360.653991 165.975078 358.840146 
C 165.97722 358.626771 165.97829 358.413386 165.97829 358.2 
C 165.97829 357.986614 165.97722 357.773229 165.975078 357.559854 
" clip-path="url(#p9b784d34c3)" style="fill: #4b7bc6; opacity: 0.4"/>
   </g>
   <g id="text_1">
    <text style="fill: #262626; font: 12px 'sans-serif'; text-anchor: middle" x="174.901223" y="361.302188" transform="rotate(-0, 174.901223, 361.302188)">1</text>
   </g>
   <g id="text_2">
    <text style="fill: #262626; font: 12px 'sans-serif'; text-anchor: middle" x="88.161505" y="361.302188" transform="rotate(-0, 88.161505, 361.302188)">59</text>
   </g>
   <g id="text_3">
    <text style="fill: #262626; font: 12px 'sans-serif'; text-anchor: middle" x="151.95196" y="361.302188" transform="rotate(-0, 151.95196, 361.302188)">3</text>
   </g>
   <g id="text_4">
    <text style="fill: #262626; font: 14.4px 'sans-serif'; text-anchor: middle" x="151.957659" y="385.403409" transform="rotate(-0, 151.957659, 385.403409)">Proteomics GO</text>
   </g>
   <g id="text_5">
    <text style="fill: #262626; font: 14.4px 'sans-serif'; text-anchor: middle" x="174.901223" y="379.657275" transform="rotate(-0, 174.901223, 379.657275)">RNAseq GO</text>
   </g>
   <g id="text_6">
    <text style="fill: #262626; font: 14.4px 'sans-serif'; text-anchor: middle" x="102.187836" y="435.346334" transform="rotate(-0, 102.187836, 435.346334)">DNA Methylation GO</text>
   </g>
  </g>
 </g>
 <defs>
  <clipPath id="p9b784d34c3">
   <rect x="27" y="283.012164" width="167.4" height="150.375671"/>
  </clipPath>
 </defs>
</svg>
