<?xml version="1.0" encoding="utf-8" standalone="no"?>
<!DOCTYPE svg PUBLIC "-//W3C//DTD SVG 1.1//EN"
  "http://www.w3.org/Graphics/SVG/1.1/DTD/svg11.dtd">
<svg xmlns:xlink="http://www.w3.org/1999/xlink" width="216pt" height="720pt" viewBox="0 0 216 720" xmlns="http://www.w3.org/2000/svg" version="1.1">
 <metadata>
  <rdf:RDF xmlns:dc="http://purl.org/dc/elements/1.1/" xmlns:cc="http://creativecommons.org/ns#" xmlns:rdf="http://www.w3.org/1999/02/22-rdf-syntax-ns#">
   <cc:Work>
    <dc:type rdf:resource="http://purl.org/dc/dcmitype/StillImage"/>
    <dc:date>2022-06-10T08:45:51.313661</dc:date>
    <dc:format>image/svg+xml</dc:format>
    <dc:creator>
     <cc:Agent>
      <dc:title>Matplotlib v3.5.2, https://matplotlib.org/</dc:title>
     </cc:Agent>
    </dc:creator>
   </cc:Work>
  </rdf:RDF>
 </metadata>
 <defs>
  <style type="text/css">*{stroke-linejoin: round; stroke-linecap: butt}</style>
 </defs>
 <g id="figure_1">
  <g id="patch_1">
   <path d="M 0 720 
L 216 720 
L 216 0 
L 0 0 
z
" style="fill: #ffffff"/>
  </g>
  <g id="axes_1">
   <g id="patch_2">
    <path d="M 55.691292 363.497086 
C 55.534143 361.735763 55.455452 359.968319 55.455452 358.2 
C 55.455452 356.431681 55.534143 354.664237 55.691292 352.902914 
C 55.123743 352.028342 54.419307 351.250639 53.604973 350.599602 
C 52.790639 349.948565 51.87694 349.432615 50.898881 349.071519 
C 49.920823 348.710422 48.891056 348.50885 47.849034 348.474525 
C 46.807011 348.440201 45.766212 348.573567 44.76651 348.869515 
C 43.766808 349.165463 42.821135 349.620164 41.965722 350.216199 
C 41.110308 350.812234 40.35622 351.541891 39.732346 352.377218 
C 39.108472 353.212544 38.622883 354.142734 38.294182 355.132151 
C 37.965482 356.121568 37.797922 357.157412 37.797922 358.2 
C 37.797922 359.242588 37.965482 360.278432 38.294182 361.267849 
C 38.622883 362.257266 39.108472 363.187456 39.732346 364.022782 
C 40.35622 364.858109 41.110308 365.587766 41.965722 366.183801 
C 42.821135 366.779836 43.766808 367.234537 44.76651 367.530485 
C 45.766212 367.826433 46.807011 367.959799 47.849034 367.925475 
C 48.891056 367.89115 49.920823 367.689578 50.898881 367.328481 
C 51.87694 366.967385 52.790639 366.451435 53.604973 365.800398 
C 54.419307 365.149361 55.123743 364.371658 55.691292 363.497086 
" clip-path="url(#pf5efce3c3f)" style="fill: #0101d7; opacity: 0.4"/>
   </g>
   <g id="patch_3">
    <path d="M 172.447321 342.08583 
C 173.920045 347.330529 174.666847 352.752452 174.666847 358.2 
C 174.666847 363.647548 173.920045 369.069471 172.447321 374.31417 
C 175.724299 373.081423 178.54856 370.877913 180.54132 367.999172 
C 182.534079 365.12043 183.602078 361.701177 183.602078 358.2 
C 183.602078 354.698823 182.534079 351.27957 180.54132 348.400828 
C 178.54856 345.522087 175.724299 343.318577 172.447321 342.08583 
" clip-path="url(#pf5efce3c3f)" style="fill: #e68e25; opacity: 0.4"/>
   </g>
   <g id="patch_4">
    <path d="M 55.691292 363.497086 
C 56.930139 377.382119 63.001584 390.402014 72.84203 400.275944 
C 82.682476 410.149875 95.681671 416.265513 109.562415 417.551521 
C 123.44316 418.837529 137.344644 415.214155 148.831605 407.316143 
C 160.318567 399.41813 168.678645 387.735271 172.447321 374.31417 
C 169.842298 375.294138 167.038078 375.627953 164.275802 375.286909 
C 161.513525 374.945866 158.874705 373.940029 156.586258 372.35589 
C 154.29781 370.771752 152.427268 368.656061 151.13548 366.190748 
C 149.843692 363.725435 149.16878 360.983251 149.16878 358.2 
C 149.16878 355.416749 149.843692 352.674565 151.13548 350.209252 
C 152.427268 347.743939 154.29781 345.628248 156.586258 344.04411 
C 158.874705 342.459971 161.513525 341.454134 164.275802 341.113091 
C 167.038078 340.772047 169.842298 341.105862 172.447321 342.08583 
C 168.678645 328.664729 160.318567 316.98187 148.831605 309.083857 
C 137.344644 301.185845 123.44316 297.562471 109.562415 298.848479 
C 95.681671 300.134487 82.682476 306.250125 72.84203 316.124056 
C 63.001584 325.997986 56.930139 339.017881 55.691292 352.902914 
C 56.714647 354.479868 57.259421 356.320096 57.259421 358.2 
C 57.259421 360.079904 56.714647 361.920132 55.691292 363.497086 
" clip-path="url(#pf5efce3c3f)" style="fill: #6aaf44; opacity: 0.4"/>
   </g>
   <g id="patch_5">
    <path d="M 55.691292 363.497086 
C 56.714647 361.920132 57.259421 360.079904 57.259421 358.2 
C 57.259421 356.320096 56.714647 354.479868 55.691292 352.902914 
C 55.534143 354.664237 55.455452 356.431681 55.455452 358.2 
C 55.455452 359.968319 55.534143 361.735763 55.691292 363.497086 
" clip-path="url(#pf5efce3c3f)" style="fill: #4b7bc6; opacity: 0.4"/>
   </g>
   <g id="patch_6">
    <path d="M 172.447321 342.08583 
C 169.842298 341.105862 167.038078 340.772047 164.275802 341.113091 
C 161.513525 341.454134 158.874705 342.459971 156.586258 344.04411 
C 154.29781 345.628248 152.427268 347.743939 151.13548 350.209252 
C 149.843692 352.674565 149.16878 355.416749 149.16878 358.2 
C 149.16878 360.983251 149.843692 363.725435 151.13548 366.190748 
C 152.427268 368.656061 154.29781 370.771752 156.586258 372.35589 
C 158.874705 373.940029 161.513525 374.945866 164.275802 375.286909 
C 167.038078 375.627953 169.842298 375.294138 172.447321 374.31417 
C 173.920045 369.069471 174.666847 363.647548 174.666847 358.2 
C 174.666847 352.752452 173.920045 347.330529 172.447321 342.08583 
" clip-path="url(#pf5efce3c3f)" style="fill: #ebde4a; opacity: 0.4"/>
   </g>
   <g id="text_1">
    <text style="fill: #262626; font: 12px 'sans-serif'; text-anchor: middle" x="46.626687" y="361.302188" transform="rotate(-0, 46.626687, 361.302188)">44</text>
   </g>
   <g id="text_2">
    <text style="fill: #262626; font: 12px 'sans-serif'; text-anchor: middle" x="179.134463" y="361.302188" transform="rotate(-0, 179.134463, 361.302188)">33</text>
   </g>
   <g id="text_3">
    <text style="fill: #262626; font: 12px 'sans-serif'; text-anchor: middle" x="118.333676" y="361.302188" transform="rotate(-0, 118.333676, 361.302188)">1613</text>
   </g>
   <g id="text_4">
    <text style="fill: #262626; font: 12px 'sans-serif'; text-anchor: middle" x="56.357437" y="361.302188" transform="rotate(-0, 56.357437, 361.302188)">2</text>
   </g>
   <g id="text_5">
    <text style="fill: #262626; font: 12px 'sans-serif'; text-anchor: middle" x="161.917814" y="361.302188" transform="rotate(-0, 161.917814, 361.302188)">111</text>
   </g>
   <g id="text_6">
    <text style="fill: #262626; font: 14.4px 'sans-serif'; text-anchor: middle" x="47.528671" y="381.123103" transform="rotate(-0, 47.528671, 381.123103)">Proteomics GO</text>
   </g>
   <g id="text_7">
    <text style="fill: #262626; font: 14.4px 'sans-serif'; text-anchor: middle" x="166.385429" y="388.793502" transform="rotate(-0, 166.385429, 388.793502)">RNAseq GO</text>
   </g>
   <g id="text_8">
    <text style="fill: #262626; font: 14.4px 'sans-serif'; text-anchor: middle" x="115.06115" y="431.182551" transform="rotate(-0, 115.06115, 431.182551)">DNA Methylation GO</text>
   </g>
   <g id="text_9">
    <text style="fill: #262626; font: 12px 'sans-serif'; text-anchor: middle" x="110.7" y="281.796381" transform="rotate(-0, 110.7, 281.796381)">Down regulated</text>
   </g>
  </g>
 </g>
 <defs>
  <clipPath id="pf5efce3c3f">
   <rect x="27" y="287.796381" width="167.4" height="140.807239"/>
  </clipPath>
 </defs>
</svg>
