<?xml version="1.0" encoding="utf-8" standalone="no"?>
<!DOCTYPE svg PUBLIC "-//W3C//DTD SVG 1.1//EN"
  "http://www.w3.org/Graphics/SVG/1.1/DTD/svg11.dtd">
<svg xmlns:xlink="http://www.w3.org/1999/xlink" width="216pt" height="720pt" viewBox="0 0 216 720" xmlns="http://www.w3.org/2000/svg" version="1.1">
 <metadata>
  <rdf:RDF xmlns:dc="http://purl.org/dc/elements/1.1/" xmlns:cc="http://creativecommons.org/ns#" xmlns:rdf="http://www.w3.org/1999/02/22-rdf-syntax-ns#">
   <cc:Work>
    <dc:type rdf:resource="http://purl.org/dc/dcmitype/StillImage"/>
    <dc:date>2022-06-10T08:45:51.408286</dc:date>
    <dc:format>image/svg+xml</dc:format>
    <dc:creator>
     <cc:Agent>
      <dc:title>Matplotlib v3.5.2, https://matplotlib.org/</dc:title>
     </cc:Agent>
    </dc:creator>
   </cc:Work>
  </rdf:RDF>
 </metadata>
 <defs>
  <style type="text/css">*{stroke-linejoin: round; stroke-linecap: butt}</style>
 </defs>
 <g id="figure_1">
  <g id="patch_1">
   <path d="M 0 720 
L 216 720 
L 216 0 
L 0 0 
z
" style="fill: #ffffff"/>
  </g>
  <g id="axes_1">
   <g id="patch_2">
    <path d="M 102.32556 306.695687 
C 99.189937 306.518492 96.056733 307.09055 93.186037 308.364374 
C 90.31534 309.638199 87.788845 311.577539 85.816277 314.02141 
C 83.84371 316.46528 82.481204 319.344134 81.841863 322.418995 
C 81.202522 325.493856 81.30454 328.67722 82.139449 331.704836 
C 84.739342 331.331456 87.364324 331.160668 89.990681 331.194015 
C 92.617037 331.227362 95.236836 331.464744 97.826412 331.904014 
C 97.270488 327.596697 97.375894 323.229617 98.138976 318.954136 
C 98.902058 314.678654 100.313897 310.544745 102.32556 306.695687 
" clip-path="url(#p0cdb636760)" style="fill: #0101d7; opacity: 0.4"/>
   </g>
   <g id="patch_3">
    <path d="M 102.32556 306.695687 
C 105.977436 306.902055 109.501504 308.117295 112.504362 310.205746 
C 115.50722 312.294196 117.872811 315.175141 119.337058 318.526971 
C 120.801304 321.878802 121.307613 325.571973 120.799465 329.194206 
C 120.291317 332.816438 118.788351 336.227737 116.458348 339.047287 
C 121.833636 342.448694 126.521113 346.831496 130.275561 351.966417 
C 134.03001 357.101337 136.784798 362.897244 138.395815 369.050935 
C 146.022685 369.358739 153.594101 367.612998 160.316203 363.99675 
C 167.038304 360.380502 172.667646 355.024714 176.613993 348.490937 
C 180.56034 341.95716 182.680772 334.48202 182.752964 326.849282 
C 182.825156 319.216545 180.846493 311.702634 177.024437 305.095382 
C 173.202381 298.48813 167.67535 293.026822 161.022851 289.284075 
C 154.370353 285.541327 146.833311 283.652686 139.201983 283.816175 
C 131.570655 283.979665 124.121414 286.189363 117.635311 290.213584 
C 111.149207 294.237805 105.86114 299.930809 102.32556 306.695687 
" clip-path="url(#p0cdb636760)" style="fill: #e68e25; opacity: 0.4"/>
   </g>
   <g id="patch_4">
    <path d="M 102.32556 306.695687 
C 100.313897 310.544745 98.902058 314.678654 98.138976 318.954136 
C 97.375894 323.229617 97.270488 327.596697 97.826412 331.904014 
C 101.129529 332.464324 104.368991 333.350653 107.497265 334.549998 
C 110.625539 335.749343 113.627248 337.255808 116.458348 339.047287 
C 118.788351 336.227737 120.291317 332.816438 120.799465 329.194206 
C 121.307613 325.571973 120.801304 321.878802 119.337058 318.526971 
C 117.872811 315.175141 115.50722 312.294196 112.504362 310.205746 
C 109.501504 308.117295 105.977436 306.902055 102.32556 306.695687 
" clip-path="url(#p0cdb636760)" style="fill: #a264b0; opacity: 0.4"/>
   </g>
   <g id="patch_5">
    <path d="M 82.139449 331.704836 
C 77.084235 332.430832 72.167606 333.91648 67.556257 336.111407 
C 62.944907 338.306335 58.691548 341.185454 54.940387 344.651149 
C 51.189226 348.116844 47.983141 352.1295 45.430833 356.55307 
C 42.878524 360.976641 41.009167 365.760561 39.886141 370.742636 
C 38.763115 375.72471 38.399256 380.84799 38.806902 385.938773 
C 39.214547 391.029557 40.389037 396.029653 42.290551 400.769537 
C 44.192065 405.50942 46.798868 409.934911 50.022576 413.895966 
C 53.246285 417.857021 57.050051 421.308362 61.30491 424.132973 
C 65.559768 426.957585 70.217084 429.123179 75.118953 430.556334 
C 80.020822 431.989489 85.111213 432.673822 90.217538 432.586132 
C 95.323864 432.498441 100.387756 431.639729 105.237526 430.03911 
C 110.087296 428.438491 114.667509 426.11426 118.822873 423.145221 
C 122.978238 420.176181 126.661257 416.59627 129.747059 412.526863 
C 132.832861 408.457455 135.286173 403.945067 137.023819 399.142688 
C 138.761464 394.34031 139.763579 389.302835 139.996189 384.201056 
C 140.228798 379.099277 139.689242 373.991512 138.395815 369.050935 
C 130.905588 368.748645 123.625872 366.476388 117.293638 362.464197 
C 110.961403 358.452005 105.797796 352.840002 102.32556 346.196325 
C 97.812352 346.451367 93.345277 345.151872 89.673147 342.515671 
C 86.001016 339.879471 83.341161 336.062585 82.139449 331.704836 
" clip-path="url(#p0cdb636760)" style="fill: #6aaf44; opacity: 0.4"/>
   </g>
   <g id="patch_6">
    <path d="M 82.139449 331.704836 
C 83.341161 336.062585 86.001016 339.879471 89.673147 342.515671 
C 93.345277 345.151872 97.812352 346.451367 102.32556 346.196325 
C 101.162045 343.970088 100.197528 341.645383 99.443267 339.249346 
C 98.689007 336.85331 98.14795 334.395302 97.826412 331.904014 
C 95.236836 331.464744 92.617037 331.227362 89.990681 331.194015 
C 87.364324 331.160668 84.739342 331.331456 82.139449 331.704836 
" clip-path="url(#p0cdb636760)" style="fill: #4b7bc6; opacity: 0.4"/>
   </g>
   <g id="patch_7">
    <path d="M 116.458348 339.047287 
C 114.72225 341.148149 112.57058 342.867743 110.138648 344.09793 
C 107.706716 345.328117 105.046591 346.042558 102.32556 346.196325 
C 105.797796 352.840002 110.961403 358.452005 117.293638 362.464197 
C 123.625872 366.476388 130.905588 368.748645 138.395815 369.050935 
C 136.784798 362.897244 134.03001 357.101337 130.275561 351.966417 
C 126.521113 346.831496 121.833636 342.448694 116.458348 339.047287 
" clip-path="url(#p0cdb636760)" style="fill: #ebde4a; opacity: 0.4"/>
   </g>
   <g id="patch_8">
    <path d="M 97.826412 331.904014 
C 98.14795 334.395302 98.689007 336.85331 99.443267 339.249346 
C 100.197528 341.645383 101.162045 343.970088 102.32556 346.196325 
C 105.046591 346.042558 107.706716 345.328117 110.138648 344.09793 
C 112.57058 342.867743 114.72225 341.148149 116.458348 339.047287 
C 113.627248 337.255808 110.625539 335.749343 107.497265 334.549998 
C 104.368991 333.350653 101.129529 332.464324 97.826412 331.904014 
" clip-path="url(#p0cdb636760)" style="fill: #877f80; opacity: 0.4"/>
   </g>
   <g id="text_1">
    <text style="fill: #262626; font: 12px 'sans-serif'; text-anchor: middle" x="88.944874" y="320.085572" transform="rotate(-0, 88.944874, 320.085572)">24</text>
   </g>
   <g id="text_2">
    <text style="fill: #262626; font: 12px 'sans-serif'; text-anchor: middle" x="154.567773" y="317.163815" transform="rotate(-0, 154.567773, 317.163815)">243</text>
   </g>
   <g id="text_3">
    <text style="fill: #262626; font: 12px 'sans-serif'; text-anchor: middle" x="113.849757" y="323.687056" transform="rotate(-0, 113.849757, 323.687056)">23</text>
   </g>
   <g id="text_4">
    <text style="fill: #262626; font: 12px 'sans-serif'; text-anchor: middle" x="74.751031" y="402.966332" transform="rotate(-0, 74.751031, 402.966332)">387</text>
   </g>
   <g id="text_5">
    <text style="fill: #262626; font: 12px 'sans-serif'; text-anchor: middle" x="91.428681" y="343.307819" transform="rotate(-0, 91.428681, 343.307819)">4</text>
   </g>
   <g id="text_6">
    <text style="fill: #262626; font: 12px 'sans-serif'; text-anchor: middle" x="118.761345" y="356.79525" transform="rotate(-0, 118.761345, 356.79525)">22</text>
   </g>
   <g id="text_7">
    <text style="fill: #262626; font: 12px 'sans-serif'; text-anchor: middle" x="107.071871" y="343.706987" transform="rotate(-0, 107.071871, 343.706987)">14</text>
   </g>
   <g id="text_8">
    <text style="fill: #262626; font: 14.4px 'sans-serif'; text-anchor: end" x="91.318549" y="306.664176" transform="rotate(-0, 91.318549, 306.664176)">Proteomics GO</text>
   </g>
   <g id="text_9">
    <text style="fill: #262626; font: 14.4px 'sans-serif'; text-anchor: start" x="161.435066" y="283.806394" transform="rotate(-0, 161.435066, 283.806394)">RNAseq GO</text>
   </g>
   <g id="text_10">
    <text style="fill: #262626; font: 14.4px 'sans-serif'; text-anchor: middle" x="89.346967" y="448.15554" transform="rotate(-0, 89.346967, 448.15554)">DNA Methylation GO</text>
   </g>
   <g id="text_11">
    <text style="fill: #262626; font: 12px 'sans-serif'; text-anchor: middle" x="110.7" y="266.161265" transform="rotate(-0, 110.7, 266.161265)">Up regulated</text>
   </g>
  </g>
 </g>
 <defs>
  <clipPath id="p0cdb636760">
   <rect x="27" y="272.161265" width="167.4" height="172.077469"/>
  </clipPath>
 </defs>
</svg>
