<?xml version="1.0" encoding="utf-8" standalone="no"?>
<!DOCTYPE svg PUBLIC "-//W3C//DTD SVG 1.1//EN"
  "http://www.w3.org/Graphics/SVG/1.1/DTD/svg11.dtd">
<svg xmlns:xlink="http://www.w3.org/1999/xlink" width="216pt" height="720pt" viewBox="0 0 216 720" xmlns="http://www.w3.org/2000/svg" version="1.1">
 <metadata>
  <rdf:RDF xmlns:dc="http://purl.org/dc/elements/1.1/" xmlns:cc="http://creativecommons.org/ns#" xmlns:rdf="http://www.w3.org/1999/02/22-rdf-syntax-ns#">
   <cc:Work>
    <dc:type rdf:resource="http://purl.org/dc/dcmitype/StillImage"/>
    <dc:date>2022-06-10T08:41:20.215282</dc:date>
    <dc:format>image/svg+xml</dc:format>
    <dc:creator>
     <cc:Agent>
      <dc:title>Matplotlib v3.5.2, https://matplotlib.org/</dc:title>
     </cc:Agent>
    </dc:creator>
   </cc:Work>
  </rdf:RDF>
 </metadata>
 <defs>
  <style type="text/css">*{stroke-linejoin: round; stroke-linecap: butt}</style>
 </defs>
 <g id="figure_1">
  <g id="patch_1">
   <path d="M 0 720 
L 216 720 
L 216 0 
L 0 0 
z
" style="fill: #ffffff"/>
  </g>
  <g id="axes_1">
   <g id="patch_2">
    <path d="M 131.139508 383.539513 
C 127.346669 380.494779 124.285387 376.636964 122.18215 372.251485 
C 120.078912 367.866005 118.986897 363.063747 118.986897 358.2 
C 118.986897 353.336253 120.078912 348.533995 122.18215 344.148515 
C 124.285387 339.763036 127.346669 335.905221 131.139508 332.860487 
C 128.373385 328.112243 124.848339 323.848816 120.704499 320.239684 
C 116.560658 316.630552 111.853667 313.724181 106.770638 311.636103 
C 101.68761 309.548025 96.2968 308.306281 90.812504 307.960232 
C 85.328208 307.614183 79.824072 308.168476 74.518895 309.601078 
C 69.213718 311.033679 64.178741 313.325351 59.614113 316.384994 
C 55.049484 319.444638 51.016502 323.231168 47.675483 327.594061 
C 44.334464 331.956955 41.730273 336.837626 39.966433 342.042059 
C 38.202592 347.246491 37.302788 352.704797 37.302788 358.2 
C 37.302788 363.695203 38.202592 369.153509 39.966433 374.357941 
C 41.730273 379.562374 44.334464 384.443045 47.675483 388.805939 
C 51.016502 393.168832 55.049484 396.955362 59.614113 400.015006 
C 64.178741 403.074649 69.213718 405.366321 74.518895 406.798922 
C 79.824072 408.231524 85.328208 408.785817 90.812504 408.439768 
C 96.2968 408.093719 101.68761 406.851975 106.770638 404.763897 
C 111.853667 402.675819 116.560658 399.769448 120.704499 396.160316 
C 124.848339 392.551184 128.373385 388.287757 131.139508 383.539513 
" clip-path="url(#p3a087623ba)" style="fill: #0101d7; opacity: 0.4"/>
   </g>
   <g id="patch_3">
    <path d="M 131.139508 332.860487 
C 135.620663 340.552702 137.982148 349.297701 137.982148 358.2 
C 137.982148 367.102299 135.620663 375.847298 131.139508 383.539513 
C 135.915769 387.373698 141.680156 389.780449 147.764807 390.480921 
C 153.849458 391.181392 160.009943 390.147445 165.532506 387.498871 
C 171.055068 384.850298 175.717859 380.693497 178.980646 375.510075 
C 182.243433 370.326654 183.975145 364.324838 183.975145 358.2 
C 183.975145 352.075162 182.243433 346.073346 178.980646 340.889925 
C 175.717859 335.706503 171.055068 331.549702 165.532506 328.901129 
C 160.009943 326.252555 153.849458 325.218608 147.764807 325.919079 
C 141.680156 326.619551 135.915769 329.026302 131.139508 332.860487 
" clip-path="url(#p3a087623ba)" style="fill: #e68e25; opacity: 0.4"/>
   </g>
   <g id="patch_4">
    <path d="M 131.139508 383.539513 
C 135.620663 375.847298 137.982148 367.102299 137.982148 358.2 
C 137.982148 349.297701 135.620663 340.552702 131.139508 332.860487 
C 127.346669 335.905221 124.285387 339.763036 122.18215 344.148515 
C 120.078912 348.533995 118.986897 353.336253 118.986897 358.2 
C 118.986897 363.063747 120.078912 367.866005 122.18215 372.251485 
C 124.285387 376.636964 127.346669 380.494779 131.139508 383.539513 
" clip-path="url(#p3a087623ba)" style="fill: #a264b0; opacity: 0.4"/>
   </g>
   <g id="text_1">
    <text style="fill: #262626; font: 12px 'sans-serif'; text-anchor: middle" x="78.144842" y="361.302187" transform="rotate(-0, 78.144842, 361.302187)">11</text>
   </g>
   <g id="text_2">
    <text style="fill: #262626; font: 12px 'sans-serif'; text-anchor: middle" x="160.978647" y="361.302187" transform="rotate(-0, 160.978647, 361.302187)">4</text>
   </g>
   <g id="text_3">
    <text style="fill: #262626; font: 12px 'sans-serif'; text-anchor: middle" x="128.484523" y="361.302187" transform="rotate(-0, 128.484523, 361.302187)">1</text>
   </g>
   <g id="text_4">
    <text style="fill: #262626; font: 14.4px 'sans-serif'; text-anchor: middle" x="87.642468" y="421.609995" transform="rotate(-0, 87.642468, 421.609995)">Proteomics GO</text>
   </g>
   <g id="text_5">
    <text style="fill: #262626; font: 14.4px 'sans-serif'; text-anchor: middle" x="151.481021" y="403.948938" transform="rotate(-0, 151.481021, 403.948938)">RNAseq GO</text>
   </g>
   <g id="text_6">
    <text style="fill: #262626; font: 14.4px 'sans-serif'; text-anchor: middle" x="184.039085" y="371.512942" transform="rotate(-0, 184.039085, 371.512942)">DNA Methylation GO</text>
   </g>
  </g>
 </g>
 <defs>
  <clipPath id="p3a087623ba">
   <rect x="27" y="297.557532" width="167.4" height="121.284936"/>
  </clipPath>
 </defs>
</svg>
