<?xml version="1.0" encoding="utf-8" standalone="no"?>
<!DOCTYPE svg PUBLIC "-//W3C//DTD SVG 1.1//EN"
  "http://www.w3.org/Graphics/SVG/1.1/DTD/svg11.dtd">
<svg xmlns:xlink="http://www.w3.org/1999/xlink" width="452.517187pt" height="255.263437pt" viewBox="0 0 452.517187 255.263437" xmlns="http://www.w3.org/2000/svg" version="1.1">
 <metadata>
  <rdf:RDF xmlns:dc="http://purl.org/dc/elements/1.1/" xmlns:cc="http://creativecommons.org/ns#" xmlns:rdf="http://www.w3.org/1999/02/22-rdf-syntax-ns#">
   <cc:Work>
    <dc:type rdf:resource="http://purl.org/dc/dcmitype/StillImage"/>
    <dc:date>2022-12-12T08:44:42.558553</dc:date>
    <dc:format>image/svg+xml</dc:format>
    <dc:creator>
     <cc:Agent>
      <dc:title>Matplotlib v3.6.2, https://matplotlib.org/</dc:title>
     </cc:Agent>
    </dc:creator>
   </cc:Work>
  </rdf:RDF>
 </metadata>
 <defs>
  <style type="text/css">*{stroke-linejoin: round; stroke-linecap: butt}</style>
 </defs>
 <g id="figure_1">
  <g id="patch_1">
   <path d="M 0 255.263437 
L 452.517187 255.263437 
L 452.517187 0 
L 0 0 
L 0 255.263437 
z
" style="fill: none"/>
  </g>
  <g id="axes_1">
   <g id="LineCollection_1">
    <path d="M 253.367263 45.547074 
L 275.045482 65.668872 
" clip-path="url(#pfa962770ed)" style="fill: none; stroke: #888a8e"/>
    <path d="M 253.367263 45.547074 
L 296.04619 56.080284 
" clip-path="url(#pfa962770ed)" style="fill: none; stroke: #313233"/>
    <path d="M 253.367263 45.547074 
L 315.619097 155.385121 
" clip-path="url(#pfa962770ed)" style="fill: none; stroke: #7b7d80"/>
    <path d="M 253.367263 45.547074 
L 195.718175 75.2506 
" clip-path="url(#pfa962770ed)" style="fill: none; stroke: #7b7d80"/>
    <path d="M 253.367263 45.547074 
L 318.489999 77.200437 
" clip-path="url(#pfa962770ed)" style="fill: none; stroke: #94969b"/>
    <path d="M 253.367263 45.547074 
L 298.728555 182.64283 
" clip-path="url(#pfa962770ed)" style="fill: none; stroke: #6f7174"/>
    <path d="M 275.045482 65.668872 
L 296.04619 56.080284 
" clip-path="url(#pfa962770ed)" style="fill: none; stroke: #a0a3a7"/>
    <path d="M 275.045482 65.668872 
L 315.619097 155.385121 
" clip-path="url(#pfa962770ed)" style="fill: none; stroke: #3e3e40"/>
    <path d="M 275.045482 65.668872 
L 195.718175 75.2506 
" clip-path="url(#pfa962770ed)" style="fill: none; stroke: #888a8e"/>
    <path d="M 275.045482 65.668872 
L 318.489999 77.200437 
" clip-path="url(#pfa962770ed)" style="fill: none; stroke: #94969b"/>
    <path d="M 275.045482 65.668872 
L 298.728555 182.64283 
" clip-path="url(#pfa962770ed)" style="fill: none; stroke: #3e3e40"/>
    <path d="M 296.04619 56.080284 
L 315.619097 155.385121 
" clip-path="url(#pfa962770ed)" style="fill: none; stroke: #94969b"/>
    <path d="M 296.04619 56.080284 
L 195.718175 75.2506 
" clip-path="url(#pfa962770ed)" style="fill: none; stroke: #94969b"/>
    <path d="M 296.04619 56.080284 
L 318.489999 77.200437 
" clip-path="url(#pfa962770ed)" style="fill: none; stroke: #adb0b5"/>
    <path d="M 296.04619 56.080284 
L 298.728555 182.64283 
" clip-path="url(#pfa962770ed)" style="fill: none; stroke: #888a8e"/>
    <path d="M 204.542237 190.047486 
L 216.540425 134.036192 
" clip-path="url(#pfa962770ed)" style="fill: none; stroke: #6f7174"/>
    <path d="M 204.542237 190.047486 
L 151.915757 186.958239 
" clip-path="url(#pfa962770ed)" style="fill: none; stroke: #adb0b5"/>
    <path d="M 204.542237 190.047486 
L 149.411182 160.507986 
" clip-path="url(#pfa962770ed)" style="fill: none; stroke: #d1d5db"/>
    <path d="M 204.542237 190.047486 
L 244.890263 114.917908 
" clip-path="url(#pfa962770ed)" style="fill: none; stroke: #c5c9ce"/>
    <path d="M 204.542237 190.047486 
L 134.027189 125.115123 
" clip-path="url(#pfa962770ed)" style="fill: none; stroke: #adb0b5"/>
    <path d="M 204.542237 190.047486 
L 255.779968 193.266462 
" clip-path="url(#pfa962770ed)" style="fill: none; stroke: #94969b"/>
    <path d="M 204.542237 190.047486 
L 222.568482 223.016299 
" clip-path="url(#pfa962770ed)" style="fill: none; stroke: #a0a3a7"/>
    <path d="M 204.542237 190.047486 
L 291.989659 159.419914 
" clip-path="url(#pfa962770ed)" style="fill: none; stroke: #94969b"/>
    <path d="M 204.542237 190.047486 
L 185.828363 112.88737 
" clip-path="url(#pfa962770ed)" style="fill: none; stroke: #a0a3a7"/>
    <path d="M 204.542237 190.047486 
L 254.723554 228.819801 
" clip-path="url(#pfa962770ed)" style="fill: none; stroke: #94969b"/>
    <path d="M 204.542237 190.047486 
L 193.342196 169.795135 
" clip-path="url(#pfa962770ed)" style="fill: none; stroke: #adb0b5"/>
    <path d="M 204.542237 190.047486 
L 260.705771 164.290635 
" clip-path="url(#pfa962770ed)" style="fill: none; stroke: #b9bcc1"/>
    <path d="M 204.542237 190.047486 
L 243.580922 154.322551 
" clip-path="url(#pfa962770ed)" style="fill: none; stroke: #c5c9ce"/>
    <path d="M 204.542237 190.047486 
L 177.456953 220.006484 
" clip-path="url(#pfa962770ed)" style="fill: none; stroke: #94969b"/>
    <path d="M 204.542237 190.047486 
L 203.408013 224.36474 
" clip-path="url(#pfa962770ed)" style="fill: none; stroke: #94969b"/>
    <path d="M 204.542237 190.047486 
L 200.718248 151.215864 
" clip-path="url(#pfa962770ed)" style="fill: none; stroke: #94969b"/>
    <path d="M 315.619097 155.385121 
L 195.718175 75.2506 
" clip-path="url(#pfa962770ed)" style="fill: none; stroke: #7b7d80"/>
    <path d="M 315.619097 155.385121 
L 318.489999 77.200437 
" clip-path="url(#pfa962770ed)" style="fill: none; stroke: #888a8e"/>
    <path d="M 315.619097 155.385121 
L 298.728555 182.64283 
" clip-path="url(#pfa962770ed)" style="fill: none; stroke: #313233"/>
    <path d="M 315.619097 155.385121 
L 244.890263 114.917908 
" clip-path="url(#pfa962770ed)" style="fill: none; stroke: #d1d5db"/>
    <path d="M 195.718175 75.2506 
L 318.489999 77.200437 
" clip-path="url(#pfa962770ed)" style="fill: none; stroke: #6f7174"/>
    <path d="M 195.718175 75.2506 
L 298.728555 182.64283 
" clip-path="url(#pfa962770ed)" style="fill: none; stroke: #6f7174"/>
    <path d="M 195.718175 75.2506 
L 244.890263 114.917908 
" clip-path="url(#pfa962770ed)" style="fill: none; stroke: #d1d5db"/>
    <path d="M 216.540425 134.036192 
L 151.915757 186.958239 
" clip-path="url(#pfa962770ed)" style="fill: none; stroke: #adb0b5"/>
    <path d="M 216.540425 134.036192 
L 134.027189 125.115123 
" clip-path="url(#pfa962770ed)" style="fill: none; stroke: #94969b"/>
    <path d="M 216.540425 134.036192 
L 255.779968 193.266462 
" clip-path="url(#pfa962770ed)" style="fill: none; stroke: #d1d5db"/>
    <path d="M 216.540425 134.036192 
L 222.568482 223.016299 
" clip-path="url(#pfa962770ed)" style="fill: none; stroke: #d1d5db"/>
    <path d="M 216.540425 134.036192 
L 291.989659 159.419914 
" clip-path="url(#pfa962770ed)" style="fill: none; stroke: #d1d5db"/>
    <path d="M 216.540425 134.036192 
L 185.828363 112.88737 
" clip-path="url(#pfa962770ed)" style="fill: none; stroke: #c5c9ce"/>
    <path d="M 216.540425 134.036192 
L 254.723554 228.819801 
" clip-path="url(#pfa962770ed)" style="fill: none; stroke: #d1d5db"/>
    <path d="M 216.540425 134.036192 
L 193.342196 169.795135 
" clip-path="url(#pfa962770ed)" style="fill: none; stroke: #94969b"/>
    <path d="M 216.540425 134.036192 
L 260.705771 164.290635 
" clip-path="url(#pfa962770ed)" style="fill: none; stroke: #a0a3a7"/>
    <path d="M 216.540425 134.036192 
L 243.580922 154.322551 
" clip-path="url(#pfa962770ed)" style="fill: none; stroke: #c5c9ce"/>
    <path d="M 216.540425 134.036192 
L 177.456953 220.006484 
" clip-path="url(#pfa962770ed)" style="fill: none; stroke: #d1d5db"/>
    <path d="M 216.540425 134.036192 
L 203.408013 224.36474 
" clip-path="url(#pfa962770ed)" style="fill: none; stroke: #d1d5db"/>
    <path d="M 216.540425 134.036192 
L 200.718248 151.215864 
" clip-path="url(#pfa962770ed)" style="fill: none; stroke: #d1d5db"/>
    <path d="M 318.489999 77.200437 
L 298.728555 182.64283 
" clip-path="url(#pfa962770ed)" style="fill: none; stroke: #7b7d80"/>
    <path d="M 298.728555 182.64283 
L 244.890263 114.917908 
" clip-path="url(#pfa962770ed)" style="fill: none; stroke: #d1d5db"/>
    <path d="M 151.915757 186.958239 
L 149.411182 160.507986 
" clip-path="url(#pfa962770ed)" style="fill: none; stroke: #d1d5db"/>
    <path d="M 151.915757 186.958239 
L 244.890263 114.917908 
" clip-path="url(#pfa962770ed)" style="fill: none; stroke: #d1d5db"/>
    <path d="M 151.915757 186.958239 
L 134.027189 125.115123 
" clip-path="url(#pfa962770ed)" style="fill: none; stroke: #b9bcc1"/>
    <path d="M 151.915757 186.958239 
L 255.779968 193.266462 
" clip-path="url(#pfa962770ed)" style="fill: none; stroke: #b9bcc1"/>
    <path d="M 151.915757 186.958239 
L 222.568482 223.016299 
" clip-path="url(#pfa962770ed)" style="fill: none; stroke: #b9bcc1"/>
    <path d="M 151.915757 186.958239 
L 185.828363 112.88737 
" clip-path="url(#pfa962770ed)" style="fill: none; stroke: #adb0b5"/>
    <path d="M 151.915757 186.958239 
L 193.342196 169.795135 
" clip-path="url(#pfa962770ed)" style="fill: none; stroke: #adb0b5"/>
    <path d="M 151.915757 186.958239 
L 260.705771 164.290635 
" clip-path="url(#pfa962770ed)" style="fill: none; stroke: #adb0b5"/>
    <path d="M 151.915757 186.958239 
L 243.580922 154.322551 
" clip-path="url(#pfa962770ed)" style="fill: none; stroke: #c5c9ce"/>
    <path d="M 149.411182 160.507986 
L 255.779968 193.266462 
" clip-path="url(#pfa962770ed)" style="fill: none; stroke: #b9bcc1"/>
    <path d="M 149.411182 160.507986 
L 222.568482 223.016299 
" clip-path="url(#pfa962770ed)" style="fill: none; stroke: #b9bcc1"/>
    <path d="M 149.411182 160.507986 
L 185.828363 112.88737 
" clip-path="url(#pfa962770ed)" style="fill: none; stroke: #d1d5db"/>
    <path d="M 149.411182 160.507986 
L 243.580922 154.322551 
" clip-path="url(#pfa962770ed)" style="fill: none; stroke: #c5c9ce"/>
    <path d="M 244.890263 114.917908 
L 255.779968 193.266462 
" clip-path="url(#pfa962770ed)" style="fill: none; stroke: #c5c9ce"/>
    <path d="M 244.890263 114.917908 
L 185.828363 112.88737 
" clip-path="url(#pfa962770ed)" style="fill: none; stroke: #a0a3a7"/>
    <path d="M 244.890263 114.917908 
L 193.342196 169.795135 
" clip-path="url(#pfa962770ed)" style="fill: none; stroke: #c5c9ce"/>
    <path d="M 244.890263 114.917908 
L 260.705771 164.290635 
" clip-path="url(#pfa962770ed)" style="fill: none; stroke: #c5c9ce"/>
    <path d="M 244.890263 114.917908 
L 243.580922 154.322551 
" clip-path="url(#pfa962770ed)" style="fill: none; stroke: #d1d5db"/>
    <path d="M 134.027189 125.115123 
L 185.828363 112.88737 
" clip-path="url(#pfa962770ed)" style="fill: none; stroke: #d1d5db"/>
    <path d="M 134.027189 125.115123 
L 193.342196 169.795135 
" clip-path="url(#pfa962770ed)" style="fill: none; stroke: #888a8e"/>
    <path d="M 134.027189 125.115123 
L 260.705771 164.290635 
" clip-path="url(#pfa962770ed)" style="fill: none; stroke: #94969b"/>
    <path d="M 134.027189 125.115123 
L 243.580922 154.322551 
" clip-path="url(#pfa962770ed)" style="fill: none; stroke: #d1d5db"/>
    <path d="M 255.779968 193.266462 
L 222.568482 223.016299 
" clip-path="url(#pfa962770ed)" style="fill: none; stroke: #3e3e40"/>
    <path d="M 255.779968 193.266462 
L 291.989659 159.419914 
" clip-path="url(#pfa962770ed)" style="fill: none; stroke: #b9bcc1"/>
    <path d="M 255.779968 193.266462 
L 185.828363 112.88737 
" clip-path="url(#pfa962770ed)" style="fill: none; stroke: #636467"/>
    <path d="M 255.779968 193.266462 
L 254.723554 228.819801 
" clip-path="url(#pfa962770ed)" style="fill: none; stroke: #b9bcc1"/>
    <path d="M 255.779968 193.266462 
L 193.342196 169.795135 
" clip-path="url(#pfa962770ed)" style="fill: none; stroke: #b9bcc1"/>
    <path d="M 255.779968 193.266462 
L 260.705771 164.290635 
" clip-path="url(#pfa962770ed)" style="fill: none; stroke: #b9bcc1"/>
    <path d="M 255.779968 193.266462 
L 243.580922 154.322551 
" clip-path="url(#pfa962770ed)" style="fill: none; stroke: #636467"/>
    <path d="M 255.779968 193.266462 
L 177.456953 220.006484 
" clip-path="url(#pfa962770ed)" style="fill: none; stroke: #b9bcc1"/>
    <path d="M 255.779968 193.266462 
L 203.408013 224.36474 
" clip-path="url(#pfa962770ed)" style="fill: none; stroke: #b9bcc1"/>
    <path d="M 255.779968 193.266462 
L 200.718248 151.215864 
" clip-path="url(#pfa962770ed)" style="fill: none; stroke: #b9bcc1"/>
    <path d="M 222.568482 223.016299 
L 291.989659 159.419914 
" clip-path="url(#pfa962770ed)" style="fill: none; stroke: #b9bcc1"/>
    <path d="M 222.568482 223.016299 
L 185.828363 112.88737 
" clip-path="url(#pfa962770ed)" style="fill: none; stroke: #94969b"/>
    <path d="M 222.568482 223.016299 
L 254.723554 228.819801 
" clip-path="url(#pfa962770ed)" style="fill: none; stroke: #b9bcc1"/>
    <path d="M 222.568482 223.016299 
L 193.342196 169.795135 
" clip-path="url(#pfa962770ed)" style="fill: none; stroke: #c5c9ce"/>
    <path d="M 222.568482 223.016299 
L 260.705771 164.290635 
" clip-path="url(#pfa962770ed)" style="fill: none; stroke: #c5c9ce"/>
    <path d="M 222.568482 223.016299 
L 243.580922 154.322551 
" clip-path="url(#pfa962770ed)" style="fill: none; stroke: #7b7d80"/>
    <path d="M 222.568482 223.016299 
L 177.456953 220.006484 
" clip-path="url(#pfa962770ed)" style="fill: none; stroke: #b9bcc1"/>
    <path d="M 222.568482 223.016299 
L 203.408013 224.36474 
" clip-path="url(#pfa962770ed)" style="fill: none; stroke: #b9bcc1"/>
    <path d="M 222.568482 223.016299 
L 200.718248 151.215864 
" clip-path="url(#pfa962770ed)" style="fill: none; stroke: #b9bcc1"/>
    <path d="M 291.989659 159.419914 
L 254.723554 228.819801 
" clip-path="url(#pfa962770ed)" style="fill: none; stroke: #4a4b4d"/>
    <path d="M 291.989659 159.419914 
L 193.342196 169.795135 
" clip-path="url(#pfa962770ed)" style="fill: none; stroke: #b9bcc1"/>
    <path d="M 291.989659 159.419914 
L 260.705771 164.290635 
" clip-path="url(#pfa962770ed)" style="fill: none; stroke: #c5c9ce"/>
    <path d="M 291.989659 159.419914 
L 177.456953 220.006484 
" clip-path="url(#pfa962770ed)" style="fill: none; stroke: #7b7d80"/>
    <path d="M 291.989659 159.419914 
L 203.408013 224.36474 
" clip-path="url(#pfa962770ed)" style="fill: none; stroke: #7b7d80"/>
    <path d="M 291.989659 159.419914 
L 200.718248 151.215864 
" clip-path="url(#pfa962770ed)" style="fill: none; stroke: #7b7d80"/>
    <path d="M 185.828363 112.88737 
L 193.342196 169.795135 
" clip-path="url(#pfa962770ed)" style="fill: none; stroke: #a0a3a7"/>
    <path d="M 185.828363 112.88737 
L 260.705771 164.290635 
" clip-path="url(#pfa962770ed)" style="fill: none; stroke: #a0a3a7"/>
    <path d="M 185.828363 112.88737 
L 243.580922 154.322551 
" clip-path="url(#pfa962770ed)" style="fill: none; stroke: #888a8e"/>
    <path d="M 254.723554 228.819801 
L 193.342196 169.795135 
" clip-path="url(#pfa962770ed)" style="fill: none; stroke: #b9bcc1"/>
    <path d="M 254.723554 228.819801 
L 260.705771 164.290635 
" clip-path="url(#pfa962770ed)" style="fill: none; stroke: #c5c9ce"/>
    <path d="M 254.723554 228.819801 
L 177.456953 220.006484 
" clip-path="url(#pfa962770ed)" style="fill: none; stroke: #7b7d80"/>
    <path d="M 254.723554 228.819801 
L 203.408013 224.36474 
" clip-path="url(#pfa962770ed)" style="fill: none; stroke: #7b7d80"/>
    <path d="M 254.723554 228.819801 
L 200.718248 151.215864 
" clip-path="url(#pfa962770ed)" style="fill: none; stroke: #7b7d80"/>
    <path d="M 193.342196 169.795135 
L 260.705771 164.290635 
" clip-path="url(#pfa962770ed)" style="fill: none; stroke: #252626"/>
    <path d="M 193.342196 169.795135 
L 243.580922 154.322551 
" clip-path="url(#pfa962770ed)" style="fill: none; stroke: #d1d5db"/>
    <path d="M 193.342196 169.795135 
L 177.456953 220.006484 
" clip-path="url(#pfa962770ed)" style="fill: none; stroke: #c5c9ce"/>
    <path d="M 193.342196 169.795135 
L 203.408013 224.36474 
" clip-path="url(#pfa962770ed)" style="fill: none; stroke: #c5c9ce"/>
    <path d="M 193.342196 169.795135 
L 200.718248 151.215864 
" clip-path="url(#pfa962770ed)" style="fill: none; stroke: #c5c9ce"/>
    <path d="M 260.705771 164.290635 
L 243.580922 154.322551 
" clip-path="url(#pfa962770ed)" style="fill: none; stroke: #d1d5db"/>
    <path d="M 260.705771 164.290635 
L 177.456953 220.006484 
" clip-path="url(#pfa962770ed)" style="fill: none; stroke: #c5c9ce"/>
    <path d="M 260.705771 164.290635 
L 203.408013 224.36474 
" clip-path="url(#pfa962770ed)" style="fill: none; stroke: #c5c9ce"/>
    <path d="M 260.705771 164.290635 
L 200.718248 151.215864 
" clip-path="url(#pfa962770ed)" style="fill: none; stroke: #c5c9ce"/>
    <path d="M 177.456953 220.006484 
L 203.408013 224.36474 
" clip-path="url(#pfa962770ed)" style="fill: none; stroke: #4a4b4d"/>
    <path d="M 177.456953 220.006484 
L 200.718248 151.215864 
" clip-path="url(#pfa962770ed)" style="fill: none; stroke: #56585a"/>
    <path d="M 203.408013 224.36474 
L 200.718248 151.215864 
" clip-path="url(#pfa962770ed)" style="fill: none; stroke: #56585a"/>
   </g>
   <g id="PathCollection_1"/>
   <g id="PathCollection_2"/>
   <g id="PathCollection_3"/>
   <g id="PathCollection_4">
    <path d="M 253.367263 47.783142 
C 253.960275 47.783142 254.529079 47.547536 254.948402 47.128213 
C 255.367725 46.70889 255.603331 46.140086 255.603331 45.547074 
C 255.603331 44.954062 255.367725 44.385258 254.948402 43.965935 
C 254.529079 43.546612 253.960275 43.311006 253.367263 43.311006 
C 252.774251 43.311006 252.205447 43.546612 251.786124 43.965935 
C 251.366801 44.385258 251.131195 44.954062 251.131195 45.547074 
C 251.131195 46.140086 251.366801 46.70889 251.786124 47.128213 
C 252.205447 47.547536 252.774251 47.783142 253.367263 47.783142 
z
" clip-path="url(#pfa962770ed)" style="fill: #450457; stroke: #450457"/>
    <path d="M 275.045482 70.210348 
C 276.249896 70.210348 277.405142 69.731829 278.256791 68.88018 
C 279.108439 68.028532 279.586958 66.873286 279.586958 65.668872 
C 279.586958 64.464459 279.108439 63.309213 278.256791 62.457564 
C 277.405142 61.605915 276.249896 61.127397 275.045482 61.127397 
C 273.841069 61.127397 272.685823 61.605915 271.834174 62.457564 
C 270.982525 63.309213 270.504007 64.464459 270.504007 65.668872 
C 270.504007 66.873286 270.982525 68.028532 271.834174 68.88018 
C 272.685823 69.731829 273.841069 70.210348 275.045482 70.210348 
z
" clip-path="url(#pfa962770ed)" style="fill: #450559; stroke: #450559"/>
    <path d="M 296.04619 60.263584 
C 297.155614 60.263584 298.219749 59.822805 299.00423 59.038324 
C 299.788711 58.253842 300.22949 57.189708 300.22949 56.080284 
C 300.22949 54.97086 299.788711 53.906725 299.00423 53.122244 
C 298.219749 52.337762 297.155614 51.896984 296.04619 51.896984 
C 294.936766 51.896984 293.872632 52.337762 293.08815 53.122244 
C 292.303669 53.906725 291.86289 54.97086 291.86289 56.080284 
C 291.86289 57.189708 292.303669 58.253842 293.08815 59.038324 
C 293.872632 59.822805 294.936766 60.263584 296.04619 60.263584 
z
" clip-path="url(#pfa962770ed)" style="fill: #450559; stroke: #450559"/>
    <path d="M 315.619097 158.235559 
C 316.375042 158.235559 317.100127 157.935219 317.634661 157.400685 
C 318.169195 156.866151 318.469535 156.141066 318.469535 155.385121 
C 318.469535 154.629175 318.169195 153.90409 317.634661 153.369556 
C 317.100127 152.835022 316.375042 152.534682 315.619097 152.534682 
C 314.863151 152.534682 314.138066 152.835022 313.603532 153.369556 
C 313.068998 153.90409 312.768658 154.629175 312.768658 155.385121 
C 312.768658 156.141066 313.068998 156.866151 313.603532 157.400685 
C 314.138066 157.935219 314.863151 158.235559 315.619097 158.235559 
z
" clip-path="url(#pfa962770ed)" style="fill: #460b5e; stroke: #460b5e"/>
    <path d="M 195.718175 79.042037 
C 196.723676 79.042037 197.688129 78.642548 198.399126 77.931551 
C 199.110123 77.220554 199.509612 76.256101 199.509612 75.2506 
C 199.509612 74.245099 199.110123 73.280645 198.399126 72.569648 
C 197.688129 71.858652 196.723676 71.459162 195.718175 71.459162 
C 194.712674 71.459162 193.74822 71.858652 193.037223 72.569648 
C 192.326227 73.280645 191.926737 74.245099 191.926737 75.2506 
C 191.926737 76.256101 192.326227 77.220554 193.037223 77.931551 
C 193.74822 78.642548 194.712674 79.042037 195.718175 79.042037 
z
" clip-path="url(#pfa962770ed)" style="fill: #481d6f; stroke: #481d6f"/>
    <path d="M 318.489999 82.384547 
C 319.864841 82.384547 321.183558 81.838316 322.155718 80.866156 
C 323.127878 79.893996 323.674109 78.575279 323.674109 77.200437 
C 323.674109 75.825595 323.127878 74.506877 322.155718 73.534717 
C 321.183558 72.562557 319.864841 72.016326 318.489999 72.016326 
C 317.115157 72.016326 315.796439 72.562557 314.824279 73.534717 
C 313.852119 74.506877 313.305888 75.825595 313.305888 77.200437 
C 313.305888 78.575279 313.852119 79.893996 314.824279 80.866156 
C 315.796439 81.838316 317.115157 82.384547 318.489999 82.384547 
z
" clip-path="url(#pfa962770ed)" style="fill: #404688; stroke: #404688"/>
    <path d="M 298.728555 185.493268 
C 299.4845 185.493268 300.209586 185.192928 300.744119 184.658394 
C 301.278653 184.12386 301.578994 183.398775 301.578994 182.64283 
C 301.578994 181.886885 301.278653 181.161799 300.744119 180.627265 
C 300.209586 180.092732 299.4845 179.792391 298.728555 179.792391 
C 297.97261 179.792391 297.247525 180.092732 296.712991 180.627265 
C 296.178457 181.161799 295.878116 181.886885 295.878116 182.64283 
C 295.878116 183.398775 296.178457 184.12386 296.712991 184.658394 
C 297.247525 185.192928 297.97261 185.493268 298.728555 185.493268 
z
" clip-path="url(#pfa962770ed)" style="fill: #39558c; stroke: #39558c"/>
    <path d="M 204.542237 195.231597 
C 205.917079 195.231597 207.235796 194.685366 208.207956 193.713206 
C 209.180117 192.741046 209.726347 191.422329 209.726347 190.047486 
C 209.726347 188.672644 209.180117 187.353927 208.207956 186.381767 
C 207.235796 185.409607 205.917079 184.863376 204.542237 184.863376 
C 203.167395 184.863376 201.848677 185.409607 200.876517 186.381767 
C 199.904357 187.353927 199.358126 188.672644 199.358126 190.047486 
C 199.358126 191.422329 199.904357 192.741046 200.876517 193.713206 
C 201.848677 194.685366 203.167395 195.231597 204.542237 195.231597 
z
" clip-path="url(#pfa962770ed)" style="fill: #306a8e; stroke: #306a8e"/>
    <path d="M 216.540425 136.88663 
C 217.29637 136.88663 218.021455 136.58629 218.555989 136.051756 
C 219.090523 135.517222 219.390863 134.792137 219.390863 134.036192 
C 219.390863 133.280247 219.090523 132.555161 218.555989 132.020627 
C 218.021455 131.486093 217.29637 131.185753 216.540425 131.185753 
C 215.78448 131.185753 215.059394 131.486093 214.52486 132.020627 
C 213.990326 132.555161 213.689986 133.280247 213.689986 134.036192 
C 213.689986 134.792137 213.990326 135.517222 214.52486 136.051756 
C 215.059394 136.58629 215.78448 136.88663 216.540425 136.88663 
z
" clip-path="url(#pfa962770ed)" style="fill: #2c728e; stroke: #2c728e"/>
    <path d="M 151.915757 190.312341 
C 152.805276 190.312341 153.658481 189.958931 154.287466 189.329947 
C 154.91645 188.700962 155.269859 187.847757 155.269859 186.958239 
C 155.269859 186.06872 154.91645 185.215515 154.287466 184.58653 
C 153.658481 183.957546 152.805276 183.604137 151.915757 183.604137 
C 151.026239 183.604137 150.173034 183.957546 149.544049 184.58653 
C 148.915065 185.215515 148.561656 186.06872 148.561656 186.958239 
C 148.561656 187.847757 148.915065 188.700962 149.544049 189.329947 
C 150.173034 189.958931 151.026239 190.312341 151.915757 190.312341 
z
" clip-path="url(#pfa962770ed)" style="fill: #21a585; stroke: #21a585"/>
    <path d="M 149.411182 165.049462 
C 150.615595 165.049462 151.770841 164.570943 152.62249 163.719294 
C 153.474139 162.867645 153.952658 161.712399 153.952658 160.507986 
C 153.952658 159.303573 153.474139 158.148327 152.62249 157.296678 
C 151.770841 156.445029 150.615595 155.96651 149.411182 155.96651 
C 148.206769 155.96651 147.051523 156.445029 146.199874 157.296678 
C 145.348225 158.148327 144.869706 159.303573 144.869706 160.507986 
C 144.869706 161.712399 145.348225 162.867645 146.199874 163.719294 
C 147.051523 164.570943 148.206769 165.049462 149.411182 165.049462 
z
" clip-path="url(#pfa962770ed)" style="fill: #27ad81; stroke: #27ad81"/>
    <path d="M 244.890263 119.459384 
C 246.094676 119.459384 247.249922 118.980865 248.101571 118.129216 
C 248.95322 117.277568 249.431739 116.122322 249.431739 114.917908 
C 249.431739 113.713495 248.95322 112.558249 248.101571 111.7066 
C 247.249922 110.854951 246.094676 110.376433 244.890263 110.376433 
C 243.68585 110.376433 242.530604 110.854951 241.678955 111.7066 
C 240.827306 112.558249 240.348788 113.713495 240.348788 114.917908 
C 240.348788 116.122322 240.827306 117.277568 241.678955 118.129216 
C 242.530604 118.980865 243.68585 119.459384 244.890263 119.459384 
z
" clip-path="url(#pfa962770ed)" style="fill: #93d741; stroke: #93d741"/>
    <path d="M 134.027189 129.298423 
C 135.136613 129.298423 136.200747 128.857644 136.985229 128.073163 
C 137.76971 127.288681 138.210489 126.224547 138.210489 125.115123 
C 138.210489 124.005699 137.76971 122.941564 136.985229 122.157083 
C 136.200747 121.372602 135.136613 120.931823 134.027189 120.931823 
C 132.917765 120.931823 131.85363 121.372602 131.069149 122.157083 
C 130.284668 122.941564 129.843889 124.005699 129.843889 125.115123 
C 129.843889 126.224547 130.284668 127.288681 131.069149 128.073163 
C 131.85363 128.857644 132.917765 129.298423 134.027189 129.298423 
z
" clip-path="url(#pfa962770ed)" style="fill: #fde725; stroke: #fde725"/>
    <path d="M 255.779968 195.50253 
C 256.37298 195.50253 256.941784 195.266924 257.361107 194.847601 
C 257.78043 194.428278 258.016036 193.859474 258.016036 193.266462 
C 258.016036 192.67345 257.78043 192.104646 257.361107 191.685323 
C 256.941784 191.266 256.37298 191.030394 255.779968 191.030394 
C 255.186956 191.030394 254.618152 191.266 254.198829 191.685323 
C 253.779506 192.104646 253.5439 192.67345 253.5439 193.266462 
C 253.5439 193.859474 253.779506 194.428278 254.198829 194.847601 
C 254.618152 195.266924 255.186956 195.50253 255.779968 195.50253 
z
" clip-path="url(#pfa962770ed)" style="fill: #440154; stroke: #440154"/>
    <path d="M 222.568482 227.557774 
C 223.772895 227.557774 224.928141 227.079256 225.77979 226.227607 
C 226.631439 225.375958 227.109957 224.220712 227.109957 223.016299 
C 227.109957 221.811885 226.631439 220.656639 225.77979 219.804991 
C 224.928141 218.953342 223.772895 218.474823 222.568482 218.474823 
C 221.364068 218.474823 220.208823 218.953342 219.357174 219.804991 
C 218.505525 220.656639 218.027006 221.811885 218.027006 223.016299 
C 218.027006 224.220712 218.505525 225.375958 219.357174 226.227607 
C 220.208823 227.079256 221.364068 227.557774 222.568482 227.557774 
z
" clip-path="url(#pfa962770ed)" style="fill: #440154; stroke: #440154"/>
    <path d="M 291.989659 164.604025 
C 293.364501 164.604025 294.683218 164.057794 295.655378 163.085634 
C 296.627539 162.113474 297.173769 160.794757 297.173769 159.419914 
C 297.173769 158.045072 296.627539 156.726355 295.655378 155.754195 
C 294.683218 154.782035 293.364501 154.235804 291.989659 154.235804 
C 290.614817 154.235804 289.296099 154.782035 288.323939 155.754195 
C 287.351779 156.726355 286.805548 158.045072 286.805548 159.419914 
C 286.805548 160.794757 287.351779 162.113474 288.323939 163.085634 
C 289.296099 164.057794 290.614817 164.604025 291.989659 164.604025 
z
" clip-path="url(#pfa962770ed)" style="fill: #470d60; stroke: #470d60"/>
    <path d="M 185.828363 115.737809 
C 186.584308 115.737809 187.309393 115.437468 187.843927 114.902934 
C 188.378461 114.368401 188.678801 113.643315 188.678801 112.88737 
C 188.678801 112.131425 188.378461 111.40634 187.843927 110.871806 
C 187.309393 110.337272 186.584308 110.036931 185.828363 110.036931 
C 185.072418 110.036931 184.347332 110.337272 183.812798 110.871806 
C 183.278264 111.40634 182.977924 112.131425 182.977924 112.88737 
C 182.977924 113.643315 183.278264 114.368401 183.812798 114.902934 
C 184.347332 115.437468 185.072418 115.737809 185.828363 115.737809 
z
" clip-path="url(#pfa962770ed)" style="fill: #470d60; stroke: #470d60"/>
    <path d="M 254.723554 234.003911 
C 256.098396 234.003911 257.417113 233.457681 258.389273 232.485521 
C 259.361433 231.513361 259.907664 230.194643 259.907664 228.819801 
C 259.907664 227.444959 259.361433 226.126242 258.389273 225.154082 
C 257.417113 224.181921 256.098396 223.635691 254.723554 223.635691 
C 253.348712 223.635691 252.029994 224.181921 251.057834 225.154082 
C 250.085674 226.126242 249.539443 227.444959 249.539443 228.819801 
C 249.539443 230.194643 250.085674 231.513361 251.057834 232.485521 
C 252.029994 233.457681 253.348712 234.003911 254.723554 234.003911 
z
" clip-path="url(#pfa962770ed)" style="fill: #471063; stroke: #471063"/>
    <path d="M 193.342196 172.031203 
C 193.935208 172.031203 194.504012 171.795596 194.923335 171.376274 
C 195.342657 170.956951 195.578264 170.388147 195.578264 169.795135 
C 195.578264 169.202123 195.342657 168.633319 194.923335 168.213996 
C 194.504012 167.794673 193.935208 167.559067 193.342196 167.559067 
C 192.749184 167.559067 192.18038 167.794673 191.761057 168.213996 
C 191.341734 168.633319 191.106128 169.202123 191.106128 169.795135 
C 191.106128 170.388147 191.341734 170.956951 191.761057 171.376274 
C 192.18038 171.795596 192.749184 172.031203 193.342196 172.031203 
z
" clip-path="url(#pfa962770ed)" style="fill: #471164; stroke: #471164"/>
    <path d="M 260.705771 167.644737 
C 261.595289 167.644737 262.448495 167.291328 263.077479 166.662344 
C 263.706464 166.033359 264.059873 165.180154 264.059873 164.290635 
C 264.059873 163.401117 263.706464 162.547911 263.077479 161.918927 
C 262.448495 161.289943 261.595289 160.936533 260.705771 160.936533 
C 259.816253 160.936533 258.963047 161.289943 258.334063 161.918927 
C 257.705079 162.547911 257.351669 163.401117 257.351669 164.290635 
C 257.351669 165.180154 257.705079 166.033359 258.334063 166.662344 
C 258.963047 167.291328 259.816253 167.644737 260.705771 167.644737 
z
" clip-path="url(#pfa962770ed)" style="fill: #471164; stroke: #471164"/>
    <path d="M 243.580922 159.506661 
C 244.955764 159.506661 246.274481 158.960431 247.246642 157.98827 
C 248.218802 157.01611 248.765032 155.697393 248.765032 154.322551 
C 248.765032 152.947709 248.218802 151.628991 247.246642 150.656831 
C 246.274481 149.684671 244.955764 149.138441 243.580922 149.138441 
C 242.20608 149.138441 240.887363 149.684671 239.915203 150.656831 
C 238.943042 151.628991 238.396812 152.947709 238.396812 154.322551 
C 238.396812 155.697393 238.943042 157.01611 239.915203 157.98827 
C 240.887363 158.960431 242.20608 159.506661 243.580922 159.506661 
z
" clip-path="url(#pfa962770ed)" style="fill: #481668; stroke: #481668"/>
    <path d="M 177.456953 224.189785 
C 178.566377 224.189785 179.630512 223.749006 180.414993 222.964524 
C 181.199475 222.180043 181.640253 221.115909 181.640253 220.006484 
C 181.640253 218.89706 181.199475 217.832926 180.414993 217.048445 
C 179.630512 216.263963 178.566377 215.823184 177.456953 215.823184 
C 176.347529 215.823184 175.283395 216.263963 174.498913 217.048445 
C 173.714432 217.832926 173.273653 218.89706 173.273653 220.006484 
C 173.273653 221.115909 173.714432 222.180043 174.498913 222.964524 
C 175.283395 223.749006 176.347529 224.189785 177.456953 224.189785 
z
" clip-path="url(#pfa962770ed)" style="fill: #eae51a; stroke: #eae51a"/>
    <path d="M 203.408013 229.548851 
C 204.782855 229.548851 206.101572 229.00262 207.073732 228.03046 
C 208.045893 227.0583 208.592123 225.739582 208.592123 224.36474 
C 208.592123 222.989898 208.045893 221.671181 207.073732 220.699021 
C 206.101572 219.726861 204.782855 219.18063 203.408013 219.18063 
C 202.033171 219.18063 200.714453 219.726861 199.742293 220.699021 
C 198.770133 221.671181 198.223903 222.989898 198.223903 224.36474 
C 198.223903 225.739582 198.770133 227.0583 199.742293 228.03046 
C 200.714453 229.00262 202.033171 229.548851 203.408013 229.548851 
z
" clip-path="url(#pfa962770ed)" style="fill: #dae319; stroke: #dae319"/>
    <path d="M 200.718248 156.399975 
C 202.093091 156.399975 203.411808 155.853744 204.383968 154.881584 
C 205.356128 153.909424 205.902359 152.590706 205.902359 151.215864 
C 205.902359 149.841022 205.356128 148.522305 204.383968 147.550145 
C 203.411808 146.577984 202.093091 146.031754 200.718248 146.031754 
C 199.343406 146.031754 198.024689 146.577984 197.052529 147.550145 
C 196.080369 148.522305 195.534138 149.841022 195.534138 151.215864 
C 195.534138 152.590706 196.080369 153.909424 197.052529 154.881584 
C 198.024689 155.853744 199.343406 156.399975 200.718248 156.399975 
z
" clip-path="url(#pfa962770ed)" style="fill: #dae319; stroke: #dae319"/>
    <path d="M 324.821357 109.194521 
C 326.273935 109.194521 327.667214 108.617406 328.694341 107.590279 
C 329.721468 106.563152 330.298583 105.169873 330.298583 103.717296 
C 330.298583 102.264719 329.721468 100.87144 328.694341 99.844312 
C 327.667214 98.817185 326.273935 98.24007 324.821357 98.24007 
C 323.36878 98.24007 321.975501 98.817185 320.948374 99.844312 
C 319.921247 100.87144 319.344132 102.264719 319.344132 103.717296 
C 319.344132 105.169873 319.921247 106.563152 320.948374 107.590279 
C 321.975501 108.617406 323.36878 109.194521 324.821357 109.194521 
z
" clip-path="url(#pfa962770ed)" style="fill: #dae319; stroke: #dae319"/>
   </g>
   <g id="text_1">
    <g clip-path="url(#pfa962770ed)">
     <text style="font: 6px 'Arial', sans-serif; text-anchor: middle" x="275.045482" y="64.40606" transform="rotate(-0 275.045482 64.40606)">embryonic organ morphogenesis</text>
    </g>
   </g>
   <g id="text_2">
    <g clip-path="url(#pfa962770ed)">
     <text style="font: 6px 'Arial', sans-serif; text-anchor: middle" x="296.04619" y="54.817471" transform="rotate(-0 296.04619 54.817471)">regionalization</text>
    </g>
   </g>
   <g id="text_3">
    <g clip-path="url(#pfa962770ed)">
     <text style="font: 6px 'Arial', sans-serif; text-anchor: middle" x="204.542237" y="188.784674" transform="rotate(-0 204.542237 188.784674)">regulation of membrane potential</text>
    </g>
   </g>
   <g id="text_4">
    <g clip-path="url(#pfa962770ed)">
     <text style="font: 6px 'Arial', sans-serif; text-anchor: middle" x="315.619097" y="154.122308" transform="rotate(-0 315.619097 154.122308)">embryonic organ development</text>
    </g>
   </g>
   <g id="text_5">
    <g clip-path="url(#pfa962770ed)">
     <text style="font: 6px 'Arial', sans-serif; text-anchor: middle" x="195.718175" y="73.987787" transform="rotate(-0 195.718175 73.987787)">epithelial tube morphogenesis</text>
    </g>
   </g>
   <g id="text_6">
    <g clip-path="url(#pfa962770ed)">
     <text style="font: 6px 'Arial', sans-serif; text-anchor: middle" x="216.540425" y="132.773379" transform="rotate(-0 216.540425 132.773379)">regulation of system process</text>
    </g>
   </g>
   <g id="text_7">
    <g clip-path="url(#pfa962770ed)">
     <text style="font: 6px 'Arial', sans-serif; text-anchor: middle" x="318.489999" y="75.937624" transform="rotate(-0 318.489999 75.937624)">urogenital system development</text>
    </g>
   </g>
   <g id="text_8">
    <g clip-path="url(#pfa962770ed)">
     <text style="font: 6px 'Arial', sans-serif; text-anchor: middle" x="298.728555" y="181.380017" transform="rotate(-0 298.728555 181.380017)">embryonic morphogenesis</text>
    </g>
   </g>
   <g id="text_9">
    <g clip-path="url(#pfa962770ed)">
     <text style="font: 6px 'Arial', sans-serif; text-anchor: middle" x="151.915757" y="185.695426" transform="rotate(-0 151.915757 185.695426)">sensory perception</text>
    </g>
   </g>
   <g id="text_10">
    <g clip-path="url(#pfa962770ed)">
     <text style="font: 6px 'Arial', sans-serif; text-anchor: middle" x="149.411182" y="159.245173" transform="rotate(-0 149.411182 159.245173)">cell junction assembly</text>
    </g>
   </g>
   <g id="text_11">
    <g clip-path="url(#pfa962770ed)">
     <text style="font: 6px 'Arial', sans-serif; text-anchor: middle" x="244.890263" y="113.655096" transform="rotate(-0 244.890263 113.655096)">signal release</text>
    </g>
   </g>
   <g id="text_12">
    <g clip-path="url(#pfa962770ed)">
     <text style="font: 6px 'Arial', sans-serif; text-anchor: middle" x="134.027189" y="123.922623" transform="rotate(-0 134.027189 123.922623)">behavior</text>
    </g>
   </g>
   <g id="text_13">
    <g clip-path="url(#pfa962770ed)">
     <text style="font: 6px 'Arial', sans-serif; text-anchor: middle" x="222.568482" y="221.753486" transform="rotate(-0 222.568482 221.753486)">postsynaptic membrane</text>
    </g>
   </g>
   <g id="text_14">
    <g clip-path="url(#pfa962770ed)">
     <text style="font: 6px 'Arial', sans-serif; text-anchor: middle" x="291.989659" y="158.227414" transform="rotate(-0 291.989659 158.227414)">transmembrane transporter complex</text>
    </g>
   </g>
   <g id="text_15">
    <g clip-path="url(#pfa962770ed)">
     <text style="font: 6px 'Arial', sans-serif; text-anchor: middle" x="185.828363" y="111.624558" transform="rotate(-0 185.828363 111.624558)">presynapse</text>
    </g>
   </g>
   <g id="text_16">
    <g clip-path="url(#pfa962770ed)">
     <text style="font: 6px 'Arial', sans-serif; text-anchor: middle" x="254.723554" y="227.627301" transform="rotate(-0 254.723554 227.627301)">transporter complex</text>
    </g>
   </g>
   <g id="text_17">
    <g clip-path="url(#pfa962770ed)">
     <text style="font: 6px 'Arial', sans-serif; text-anchor: middle" x="193.342196" y="168.532322" transform="rotate(-0 193.342196 168.532322)">cell body</text>
    </g>
   </g>
   <g id="text_18">
    <g clip-path="url(#pfa962770ed)">
     <text style="font: 6px 'Arial', sans-serif; text-anchor: middle" x="260.705771" y="163.027823" transform="rotate(-0 260.705771 163.027823)">neuronal cell body</text>
    </g>
   </g>
   <g id="text_19">
    <g clip-path="url(#pfa962770ed)">
     <text style="font: 6px 'Arial', sans-serif; text-anchor: middle" x="243.580922" y="153.059738" transform="rotate(-0 243.580922 153.059738)">glutamatergic synapse</text>
    </g>
   </g>
   <g id="text_20">
    <g clip-path="url(#pfa962770ed)">
     <text style="font: 6px 'Arial', sans-serif; text-anchor: middle" x="177.456953" y="218.743672" transform="rotate(-0 177.456953 218.743672)">channel activity</text>
    </g>
   </g>
   <g id="text_21">
    <g clip-path="url(#pfa962770ed)">
     <text style="font: 6px 'Arial', sans-serif; text-anchor: middle" x="203.408013" y="223.101928" transform="rotate(-0 203.408013 223.101928)">passive transmembrane transporter activity</text>
    </g>
   </g>
   <g id="text_22">
    <g clip-path="url(#pfa962770ed)">
     <text style="font: 6px 'Arial', sans-serif; text-anchor: middle" x="200.718248" y="149.953052" transform="rotate(-0 200.718248 149.953052)">ion channel activity</text>
    </g>
   </g>
   <g id="text_23">
    <g clip-path="url(#pfa962770ed)">
     <text style="fill: #1a1a1a; font: 9px 'Arial', sans-serif; text-anchor: middle" x="253.367263" y="43.758324" transform="rotate(-0 253.367263 43.758324)">pattern specification process</text>
    </g>
   </g>
   <g id="text_24">
    <g clip-path="url(#pfa962770ed)">
     <text style="fill: #1a1a1a; font: 9px 'Arial', sans-serif; text-anchor: middle" x="255.779968" y="191.372243" transform="rotate(-0 255.779968 191.372243)">synaptic membrane</text>
    </g>
   </g>
   <g id="text_25">
    <g clip-path="url(#pfa962770ed)">
     <text style="fill: #1a1a1a; font: 9px 'Arial', sans-serif; text-anchor: middle" x="324.821357" y="101.823077" transform="rotate(-0 324.821357 101.823077)">external encapsulating structure</text>
    </g>
   </g>
   <g id="text_26">
    <text style="fill: #262626; font: 700 18px 'Arial', sans-serif; text-anchor: middle" x="226.258594" y="20.303437" transform="rotate(-0 226.258594 20.303437)">ClusterGoSummary_MDS_TMDE_RG2Changes.csv</text>
   </g>
   <g id="legend_1">
    <g id="patch_2">
     <path d="M 208.138594 190.966687 
L 290.943281 190.966687 
Q 292.143281 190.966687 292.143281 189.766687 
L 292.143281 173.304187 
Q 292.143281 172.104187 290.943281 172.104187 
L 208.138594 172.104187 
Q 206.938594 172.104187 206.938594 173.304187 
L 206.938594 189.766687 
Q 206.938594 190.966687 208.138594 190.966687 
z
" style="fill: #ffffff; opacity: 0.8; stroke: #cccccc; stroke-linejoin: miter"/>
    </g>
    <g id="patch_3">
     <path d="M 209.338594 178.816687 
L 210.838594 178.816687 
L 210.838594 174.616687 
L 209.338594 174.616687 
z
" style="fill: #48186a"/>
    </g>
    <g id="patch_4">
     <path d="M 210.838594 178.816687 
L 212.338594 178.816687 
L 212.338594 174.616687 
L 210.838594 174.616687 
z
" style="fill: #424086"/>
    </g>
    <g id="patch_5">
     <path d="M 212.338594 178.816687 
L 213.838594 178.816687 
L 213.838594 174.616687 
L 212.338594 174.616687 
z
" style="fill: #33638d"/>
    </g>
    <g id="patch_6">
     <path d="M 213.838594 178.816687 
L 215.338594 178.816687 
L 215.338594 174.616687 
L 213.838594 174.616687 
z
" style="fill: #26828e"/>
    </g>
    <g id="patch_7">
     <path d="M 215.338594 178.816687 
L 216.838594 178.816687 
L 216.838594 174.616687 
L 215.338594 174.616687 
z
" style="fill: #1fa088"/>
    </g>
    <g id="patch_8">
     <path d="M 216.838594 178.816687 
L 218.338594 178.816687 
L 218.338594 174.616687 
L 216.838594 174.616687 
z
" style="fill: #3fbc73"/>
    </g>
    <g id="patch_9">
     <path d="M 218.338594 178.816687 
L 219.838594 178.816687 
L 219.838594 174.616687 
L 218.338594 174.616687 
z
" style="fill: #84d44b"/>
    </g>
    <g id="patch_10">
     <path d="M 219.838594 178.816687 
L 221.338594 178.816687 
L 221.338594 174.616687 
L 219.838594 174.616687 
z
" style="fill: #d8e219"/>
    </g>
    <g id="text_27">
     <text style="fill: #262626; font: 6px 'Arial', sans-serif; text-anchor: start" x="226.138594" y="178.816687" transform="rotate(-0 226.138594 178.816687)">P.adj:1.36e-05,4.90e-02</text>
    </g>
    <g id="patch_11">
     <path d="M 209.338594 187.374187 
L 210.838594 187.374187 
L 210.838594 183.174187 
L 209.338594 183.174187 
z
" style="fill: #d1d5db"/>
    </g>
    <g id="patch_12">
     <path d="M 210.838594 187.374187 
L 212.338594 187.374187 
L 212.338594 183.174187 
L 210.838594 183.174187 
z
" style="fill: #b9bcc1"/>
    </g>
    <g id="patch_13">
     <path d="M 212.338594 187.374187 
L 213.838594 187.374187 
L 213.838594 183.174187 
L 212.338594 183.174187 
z
" style="fill: #a0a3a7"/>
    </g>
    <g id="patch_14">
     <path d="M 213.838594 187.374187 
L 215.338594 187.374187 
L 215.338594 183.174187 
L 213.838594 183.174187 
z
" style="fill: #888a8e"/>
    </g>
    <g id="patch_15">
     <path d="M 215.338594 187.374187 
L 216.838594 187.374187 
L 216.838594 183.174187 
L 215.338594 183.174187 
z
" style="fill: #6f7174"/>
    </g>
    <g id="patch_16">
     <path d="M 216.838594 187.374187 
L 218.338594 187.374187 
L 218.338594 183.174187 
L 216.838594 183.174187 
z
" style="fill: #56585a"/>
    </g>
    <g id="patch_17">
     <path d="M 218.338594 187.374187 
L 219.838594 187.374187 
L 219.838594 183.174187 
L 218.338594 183.174187 
z
" style="fill: #3e3e40"/>
    </g>
    <g id="patch_18">
     <path d="M 219.838594 187.374187 
L 221.338594 187.374187 
L 221.338594 183.174187 
L 219.838594 183.174187 
z
" style="fill: #252626"/>
    </g>
    <g id="text_28">
     <text style="fill: #262626; font: 6px 'Arial', sans-serif; text-anchor: start" x="226.138594" y="187.374187" transform="rotate(-0 226.138594 187.374187)">G.shared:4-21</text>
    </g>
   </g>
   <g id="legend_2">
    <g id="patch_19">
     <path d="M 118.858594 267.239438 
L 178.618594 267.239438 
Q 179.818594 267.239438 179.818594 266.039437 
L 179.818594 227.2035 
Q 179.818594 226.0035 178.618594 226.0035 
L 118.858594 226.0035 
Q 117.658594 226.0035 117.658594 227.2035 
L 117.658594 266.039437 
Q 117.658594 267.239438 118.858594 267.239438 
z
" style="fill: #ffffff; opacity: 0.8; stroke: #cccccc; stroke-linejoin: miter"/>
    </g>
    <g id="text_29">
     <text style="fill: #262626; font: 12px 'Arial', sans-serif; text-anchor: start" x="120.058594" y="236.992875" transform="rotate(-0 120.058594 236.992875)">No. Genes</text>
    </g>
    <g id="PathCollection_5">
     <defs>
      <path id="m90f0373f10" d="M 0 2.236068 
C 0.593012 2.236068 1.161816 2.000462 1.581139 1.581139 
C 2.000462 1.161816 2.236068 0.593012 2.236068 0 
C 2.236068 -0.593012 2.000462 -1.161816 1.581139 -1.581139 
C 1.161816 -2.000462 0.593012 -2.236068 0 -2.236068 
C -0.593012 -2.236068 -1.161816 -2.000462 -1.581139 -1.581139 
C -2.000462 -1.161816 -2.236068 -0.593012 -2.236068 0 
C -2.236068 0.593012 -2.000462 1.161816 -1.581139 1.581139 
C -1.161816 2.000462 -0.593012 2.236068 0 2.236068 
z
" style="stroke: #222222"/>
     </defs>
     <g>
      <use xlink:href="#m90f0373f10" x="143.002031" y="245.097562" style="fill: #222222; stroke: #222222"/>
     </g>
    </g>
    <g id="text_30">
     <text style="fill: #262626; font: 6px 'Arial', sans-serif; text-anchor: start" x="153.802031" y="246.672562" transform="rotate(-0 153.802031 246.672562)">15</text>
    </g>
    <g id="PathCollection_6">
     <defs>
      <path id="mcc4a0af111" d="M 0 4.1833 
C 1.109424 4.1833 2.173559 3.742521 2.95804 2.95804 
C 3.742521 2.173559 4.1833 1.109424 4.1833 0 
C 4.1833 -1.109424 3.742521 -2.173559 2.95804 -2.95804 
C 2.173559 -3.742521 1.109424 -4.1833 0 -4.1833 
C -1.109424 -4.1833 -2.173559 -3.742521 -2.95804 -2.95804 
C -3.742521 -2.173559 -4.1833 -1.109424 -4.1833 0 
C -4.1833 1.109424 -3.742521 2.173559 -2.95804 2.95804 
C -2.173559 3.742521 -1.109424 4.1833 0 4.1833 
z
" style="stroke: #222222"/>
     </defs>
     <g>
      <use xlink:href="#mcc4a0af111" x="143.002031" y="253.58475" style="fill: #222222; stroke: #222222"/>
     </g>
    </g>
    <g id="text_31">
     <text style="fill: #262626; font: 6px 'Arial', sans-serif; text-anchor: start" x="153.802031" y="255.15975" transform="rotate(-0 153.802031 255.15975)">19</text>
    </g>
    <g id="PathCollection_7">
     <defs>
      <path id="m6fbe9775a0" d="M 0 5.477226 
C 1.452577 5.477226 2.845856 4.900111 3.872983 3.872983 
C 4.900111 2.845856 5.477226 1.452577 5.477226 0 
C 5.477226 -1.452577 4.900111 -2.845856 3.872983 -3.872983 
C 2.845856 -4.900111 1.452577 -5.477226 0 -5.477226 
C -1.452577 -5.477226 -2.845856 -4.900111 -3.872983 -3.872983 
C -4.900111 -2.845856 -5.477226 -1.452577 -5.477226 0 
C -5.477226 1.452577 -4.900111 2.845856 -3.872983 3.872983 
C -2.845856 4.900111 -1.452577 5.477226 0 5.477226 
z
" style="stroke: #222222"/>
     </defs>
     <g>
      <use xlink:href="#m6fbe9775a0" x="143.002031" y="262.071937" style="fill: #222222; stroke: #222222"/>
     </g>
    </g>
    <g id="text_32">
     <text style="fill: #262626; font: 6px 'Arial', sans-serif; text-anchor: start" x="153.802031" y="263.646937" transform="rotate(-0 153.802031 263.646937)">23</text>
    </g>
   </g>
   <g id="legend_3">
    <g id="patch_20">
     <path d="M 118.858594 267.239438 
L 178.618594 267.239438 
Q 179.818594 267.239438 179.818594 266.039437 
L 179.818594 227.2035 
Q 179.818594 226.0035 178.618594 226.0035 
L 118.858594 226.0035 
Q 117.658594 226.0035 117.658594 227.2035 
L 117.658594 266.039437 
Q 117.658594 267.239438 118.858594 267.239438 
z
" style="fill: #ffffff; opacity: 0.8; stroke: #cccccc; stroke-linejoin: miter"/>
    </g>
    <g id="text_33">
     <text style="fill: #262626; font: 12px 'Arial', sans-serif; text-anchor: start" x="120.058594" y="236.992875" transform="rotate(-0 120.058594 236.992875)">No. Genes</text>
    </g>
    <g id="PathCollection_8">
     <g>
      <use xlink:href="#m90f0373f10" x="143.002031" y="245.097562" style="fill: #222222; stroke: #222222"/>
     </g>
    </g>
    <g id="text_34">
     <text style="fill: #262626; font: 6px 'Arial', sans-serif; text-anchor: start" x="153.802031" y="246.672562" transform="rotate(-0 153.802031 246.672562)">15</text>
    </g>
    <g id="PathCollection_9">
     <g>
      <use xlink:href="#mcc4a0af111" x="143.002031" y="253.58475" style="fill: #222222; stroke: #222222"/>
     </g>
    </g>
    <g id="text_35">
     <text style="fill: #262626; font: 6px 'Arial', sans-serif; text-anchor: start" x="153.802031" y="255.15975" transform="rotate(-0 153.802031 255.15975)">19</text>
    </g>
    <g id="PathCollection_10">
     <g>
      <use xlink:href="#m6fbe9775a0" x="143.002031" y="262.071937" style="fill: #222222; stroke: #222222"/>
     </g>
    </g>
    <g id="text_36">
     <text style="fill: #262626; font: 6px 'Arial', sans-serif; text-anchor: start" x="153.802031" y="263.646937" transform="rotate(-0 153.802031 263.646937)">23</text>
    </g>
   </g>
  </g>
 </g>
 <defs>
  <clipPath id="pfa962770ed">
   <rect x="114.658594" y="26.303437" width="223.2" height="221.76"/>
  </clipPath>
 </defs>
</svg>
