<?xml version="1.0" encoding="utf-8" standalone="no"?>
<!DOCTYPE svg PUBLIC "-//W3C//DTD SVG 1.1//EN"
  "http://www.w3.org/Graphics/SVG/1.1/DTD/svg11.dtd">
<svg xmlns:xlink="http://www.w3.org/1999/xlink" width="460.524375pt" height="255.263437pt" viewBox="0 0 460.524375 255.263437" xmlns="http://www.w3.org/2000/svg" version="1.1">
 <metadata>
  <rdf:RDF xmlns:dc="http://purl.org/dc/elements/1.1/" xmlns:cc="http://creativecommons.org/ns#" xmlns:rdf="http://www.w3.org/1999/02/22-rdf-syntax-ns#">
   <cc:Work>
    <dc:type rdf:resource="http://purl.org/dc/dcmitype/StillImage"/>
    <dc:date>2022-12-12T08:44:52.027890</dc:date>
    <dc:format>image/svg+xml</dc:format>
    <dc:creator>
     <cc:Agent>
      <dc:title>Matplotlib v3.6.2, https://matplotlib.org/</dc:title>
     </cc:Agent>
    </dc:creator>
   </cc:Work>
  </rdf:RDF>
 </metadata>
 <defs>
  <style type="text/css">*{stroke-linejoin: round; stroke-linecap: butt}</style>
 </defs>
 <g id="figure_1">
  <g id="patch_1">
   <path d="M 0 255.263437 
L 460.524375 255.263437 
L 460.524375 0 
L 0 0 
L 0 255.263437 
z
" style="fill: none"/>
  </g>
  <g id="axes_1">
   <g id="LineCollection_1">
    <path d="M 213.430873 157.516068 
L 222.482515 45.547074 
" clip-path="url(#p8fa482c9d1)" style="fill: none; stroke: #2b2b2c"/>
    <path d="M 213.430873 157.516068 
L 227.606104 86.561478 
" clip-path="url(#p8fa482c9d1)" style="fill: none; stroke: #d1d5db"/>
    <path d="M 213.430873 157.516068 
L 197.170339 61.786271 
" clip-path="url(#p8fa482c9d1)" style="fill: none; stroke: #84878a"/>
    <path d="M 213.430873 157.516068 
L 248.948896 126.586376 
" clip-path="url(#p8fa482c9d1)" style="fill: none; stroke: #a2a5a9"/>
    <path d="M 213.430873 157.516068 
L 235.286719 147.398082 
" clip-path="url(#p8fa482c9d1)" style="fill: none; stroke: #7e8084"/>
    <path d="M 213.430873 157.516068 
L 187.104179 90.786705 
" clip-path="url(#p8fa482c9d1)" style="fill: none; stroke: #67686b"/>
    <path d="M 213.430873 157.516068 
L 219.635171 116.376429 
" clip-path="url(#p8fa482c9d1)" style="fill: none; stroke: #67686b"/>
    <path d="M 213.430873 157.516068 
L 263.846044 151.849315 
" clip-path="url(#p8fa482c9d1)" style="fill: none; stroke: #67686b"/>
    <path d="M 213.430873 157.516068 
L 193.847215 135.030287 
" clip-path="url(#p8fa482c9d1)" style="fill: none; stroke: #67686b"/>
    <path d="M 213.430873 157.516068 
L 267.189568 53.89855 
" clip-path="url(#p8fa482c9d1)" style="fill: none; stroke: #6c6e71"/>
    <path d="M 213.430873 157.516068 
L 280.358115 79.331817 
" clip-path="url(#p8fa482c9d1)" style="fill: none; stroke: #727477"/>
    <path d="M 213.430873 157.516068 
L 277.055961 122.582885 
" clip-path="url(#p8fa482c9d1)" style="fill: none; stroke: #6c6e71"/>
    <path d="M 222.482515 45.547074 
L 227.606104 86.561478 
" clip-path="url(#p8fa482c9d1)" style="fill: none; stroke: #d1d5db"/>
    <path d="M 222.482515 45.547074 
L 197.170339 61.786271 
" clip-path="url(#p8fa482c9d1)" style="fill: none; stroke: #84878a"/>
    <path d="M 222.482515 45.547074 
L 248.948896 126.586376 
" clip-path="url(#p8fa482c9d1)" style="fill: none; stroke: #a2a5a9"/>
    <path d="M 222.482515 45.547074 
L 235.286719 147.398082 
" clip-path="url(#p8fa482c9d1)" style="fill: none; stroke: #7e8084"/>
    <path d="M 222.482515 45.547074 
L 187.104179 90.786705 
" clip-path="url(#p8fa482c9d1)" style="fill: none; stroke: #67686b"/>
    <path d="M 222.482515 45.547074 
L 219.635171 116.376429 
" clip-path="url(#p8fa482c9d1)" style="fill: none; stroke: #67686b"/>
    <path d="M 222.482515 45.547074 
L 263.846044 151.849315 
" clip-path="url(#p8fa482c9d1)" style="fill: none; stroke: #67686b"/>
    <path d="M 222.482515 45.547074 
L 193.847215 135.030287 
" clip-path="url(#p8fa482c9d1)" style="fill: none; stroke: #67686b"/>
    <path d="M 222.482515 45.547074 
L 267.189568 53.89855 
" clip-path="url(#p8fa482c9d1)" style="fill: none; stroke: #6c6e71"/>
    <path d="M 222.482515 45.547074 
L 280.358115 79.331817 
" clip-path="url(#p8fa482c9d1)" style="fill: none; stroke: #727477"/>
    <path d="M 222.482515 45.547074 
L 277.055961 122.582885 
" clip-path="url(#p8fa482c9d1)" style="fill: none; stroke: #6c6e71"/>
    <path d="M 227.606104 86.561478 
L 197.170339 61.786271 
" clip-path="url(#p8fa482c9d1)" style="fill: none; stroke: #b3b7bc"/>
    <path d="M 227.606104 86.561478 
L 249.798706 71.824496 
" clip-path="url(#p8fa482c9d1)" style="fill: none; stroke: #ccd0d5"/>
    <path d="M 227.606104 86.561478 
L 248.948896 126.586376 
" clip-path="url(#p8fa482c9d1)" style="fill: none; stroke: #bfc3c9"/>
    <path d="M 227.606104 86.561478 
L 235.286719 147.398082 
" clip-path="url(#p8fa482c9d1)" style="fill: none; stroke: #c6c9cf"/>
    <path d="M 227.606104 86.561478 
L 138.030783 128.561499 
" clip-path="url(#p8fa482c9d1)" style="fill: none; stroke: #ccd0d5"/>
    <path d="M 227.606104 86.561478 
L 322.493592 174.325736 
" clip-path="url(#p8fa482c9d1)" style="fill: none; stroke: #ccd0d5"/>
    <path d="M 227.606104 86.561478 
L 187.104179 90.786705 
" clip-path="url(#p8fa482c9d1)" style="fill: none; stroke: #a8abb0"/>
    <path d="M 227.606104 86.561478 
L 219.635171 116.376429 
" clip-path="url(#p8fa482c9d1)" style="fill: none; stroke: #a8abb0"/>
    <path d="M 227.606104 86.561478 
L 263.846044 151.849315 
" clip-path="url(#p8fa482c9d1)" style="fill: none; stroke: #aeb1b6"/>
    <path d="M 227.606104 86.561478 
L 193.847215 135.030287 
" clip-path="url(#p8fa482c9d1)" style="fill: none; stroke: #b3b7bc"/>
    <path d="M 227.606104 86.561478 
L 267.189568 53.89855 
" clip-path="url(#p8fa482c9d1)" style="fill: none; stroke: #b9bdc2"/>
    <path d="M 227.606104 86.561478 
L 280.358115 79.331817 
" clip-path="url(#p8fa482c9d1)" style="fill: none; stroke: #c6c9cf"/>
    <path d="M 227.606104 86.561478 
L 277.055961 122.582885 
" clip-path="url(#p8fa482c9d1)" style="fill: none; stroke: #b9bdc2"/>
    <path d="M 197.170339 61.786271 
L 248.948896 126.586376 
" clip-path="url(#p8fa482c9d1)" style="fill: none; stroke: #a8abb0"/>
    <path d="M 197.170339 61.786271 
L 235.286719 147.398082 
" clip-path="url(#p8fa482c9d1)" style="fill: none; stroke: #b3b7bc"/>
    <path d="M 197.170339 61.786271 
L 187.104179 90.786705 
" clip-path="url(#p8fa482c9d1)" style="fill: none; stroke: #96999d"/>
    <path d="M 197.170339 61.786271 
L 219.635171 116.376429 
" clip-path="url(#p8fa482c9d1)" style="fill: none; stroke: #96999d"/>
    <path d="M 197.170339 61.786271 
L 263.846044 151.849315 
" clip-path="url(#p8fa482c9d1)" style="fill: none; stroke: #96999d"/>
    <path d="M 197.170339 61.786271 
L 193.847215 135.030287 
" clip-path="url(#p8fa482c9d1)" style="fill: none; stroke: #a2a5a9"/>
    <path d="M 197.170339 61.786271 
L 267.189568 53.89855 
" clip-path="url(#p8fa482c9d1)" style="fill: none; stroke: #9c9fa3"/>
    <path d="M 197.170339 61.786271 
L 280.358115 79.331817 
" clip-path="url(#p8fa482c9d1)" style="fill: none; stroke: #909296"/>
    <path d="M 197.170339 61.786271 
L 277.055961 122.582885 
" clip-path="url(#p8fa482c9d1)" style="fill: none; stroke: #8a8d91"/>
    <path d="M 249.798706 71.824496 
L 248.948896 126.586376 
" clip-path="url(#p8fa482c9d1)" style="fill: none; stroke: #d1d5db"/>
    <path d="M 249.798706 71.824496 
L 315.016046 144.149432 
" clip-path="url(#p8fa482c9d1)" style="fill: none; stroke: #b9bdc2"/>
    <path d="M 249.798706 71.824496 
L 207.204076 218.871284 
" clip-path="url(#p8fa482c9d1)" style="fill: none; stroke: #ccd0d5"/>
    <path d="M 249.798706 71.824496 
L 174.032456 178.808992 
" clip-path="url(#p8fa482c9d1)" style="fill: none; stroke: #d1d5db"/>
    <path d="M 249.798706 71.824496 
L 275.083412 228.819801 
" clip-path="url(#p8fa482c9d1)" style="fill: none; stroke: #d1d5db"/>
    <path d="M 248.948896 126.586376 
L 315.016046 144.149432 
" clip-path="url(#p8fa482c9d1)" style="fill: none; stroke: #bfc3c9"/>
    <path d="M 248.948896 126.586376 
L 235.286719 147.398082 
" clip-path="url(#p8fa482c9d1)" style="fill: none; stroke: #a8abb0"/>
    <path d="M 248.948896 126.586376 
L 187.104179 90.786705 
" clip-path="url(#p8fa482c9d1)" style="fill: none; stroke: #a8abb0"/>
    <path d="M 248.948896 126.586376 
L 219.635171 116.376429 
" clip-path="url(#p8fa482c9d1)" style="fill: none; stroke: #a8abb0"/>
    <path d="M 248.948896 126.586376 
L 263.846044 151.849315 
" clip-path="url(#p8fa482c9d1)" style="fill: none; stroke: #a8abb0"/>
    <path d="M 248.948896 126.586376 
L 193.847215 135.030287 
" clip-path="url(#p8fa482c9d1)" style="fill: none; stroke: #a8abb0"/>
    <path d="M 248.948896 126.586376 
L 267.189568 53.89855 
" clip-path="url(#p8fa482c9d1)" style="fill: none; stroke: #aeb1b6"/>
    <path d="M 248.948896 126.586376 
L 280.358115 79.331817 
" clip-path="url(#p8fa482c9d1)" style="fill: none; stroke: #a8abb0"/>
    <path d="M 248.948896 126.586376 
L 277.055961 122.582885 
" clip-path="url(#p8fa482c9d1)" style="fill: none; stroke: #a8abb0"/>
    <path d="M 248.948896 126.586376 
L 207.204076 218.871284 
" clip-path="url(#p8fa482c9d1)" style="fill: none; stroke: #d1d5db"/>
    <path d="M 248.948896 126.586376 
L 174.032456 178.808992 
" clip-path="url(#p8fa482c9d1)" style="fill: none; stroke: #d1d5db"/>
    <path d="M 248.948896 126.586376 
L 275.083412 228.819801 
" clip-path="url(#p8fa482c9d1)" style="fill: none; stroke: #d1d5db"/>
    <path d="M 315.016046 144.149432 
L 207.204076 218.871284 
" clip-path="url(#p8fa482c9d1)" style="fill: none; stroke: #ccd0d5"/>
    <path d="M 315.016046 144.149432 
L 174.032456 178.808992 
" clip-path="url(#p8fa482c9d1)" style="fill: none; stroke: #d1d5db"/>
    <path d="M 315.016046 144.149432 
L 275.083412 228.819801 
" clip-path="url(#p8fa482c9d1)" style="fill: none; stroke: #d1d5db"/>
    <path d="M 235.286719 147.398082 
L 187.104179 90.786705 
" clip-path="url(#p8fa482c9d1)" style="fill: none; stroke: #5a5c5e"/>
    <path d="M 235.286719 147.398082 
L 219.635171 116.376429 
" clip-path="url(#p8fa482c9d1)" style="fill: none; stroke: #5a5c5e"/>
    <path d="M 235.286719 147.398082 
L 263.846044 151.849315 
" clip-path="url(#p8fa482c9d1)" style="fill: none; stroke: #616265"/>
    <path d="M 235.286719 147.398082 
L 193.847215 135.030287 
" clip-path="url(#p8fa482c9d1)" style="fill: none; stroke: #616265"/>
    <path d="M 235.286719 147.398082 
L 267.189568 53.89855 
" clip-path="url(#p8fa482c9d1)" style="fill: none; stroke: #67686b"/>
    <path d="M 235.286719 147.398082 
L 280.358115 79.331817 
" clip-path="url(#p8fa482c9d1)" style="fill: none; stroke: #787a7d"/>
    <path d="M 235.286719 147.398082 
L 277.055961 122.582885 
" clip-path="url(#p8fa482c9d1)" style="fill: none; stroke: #616265"/>
    <path d="M 138.030783 128.561499 
L 322.493592 174.325736 
" clip-path="url(#p8fa482c9d1)" style="fill: none; stroke: #3d3e3f"/>
    <path d="M 187.104179 90.786705 
L 219.635171 116.376429 
" clip-path="url(#p8fa482c9d1)" style="fill: none; stroke: #252626"/>
    <path d="M 187.104179 90.786705 
L 263.846044 151.849315 
" clip-path="url(#p8fa482c9d1)" style="fill: none; stroke: #2b2b2c"/>
    <path d="M 187.104179 90.786705 
L 193.847215 135.030287 
" clip-path="url(#p8fa482c9d1)" style="fill: none; stroke: #373839"/>
    <path d="M 187.104179 90.786705 
L 267.189568 53.89855 
" clip-path="url(#p8fa482c9d1)" style="fill: none; stroke: #3d3e3f"/>
    <path d="M 187.104179 90.786705 
L 280.358115 79.331817 
" clip-path="url(#p8fa482c9d1)" style="fill: none; stroke: #48494b"/>
    <path d="M 187.104179 90.786705 
L 277.055961 122.582885 
" clip-path="url(#p8fa482c9d1)" style="fill: none; stroke: #373839"/>
    <path d="M 219.635171 116.376429 
L 263.846044 151.849315 
" clip-path="url(#p8fa482c9d1)" style="fill: none; stroke: #2b2b2c"/>
    <path d="M 219.635171 116.376429 
L 193.847215 135.030287 
" clip-path="url(#p8fa482c9d1)" style="fill: none; stroke: #373839"/>
    <path d="M 219.635171 116.376429 
L 267.189568 53.89855 
" clip-path="url(#p8fa482c9d1)" style="fill: none; stroke: #3d3e3f"/>
    <path d="M 219.635171 116.376429 
L 280.358115 79.331817 
" clip-path="url(#p8fa482c9d1)" style="fill: none; stroke: #48494b"/>
    <path d="M 219.635171 116.376429 
L 277.055961 122.582885 
" clip-path="url(#p8fa482c9d1)" style="fill: none; stroke: #373839"/>
    <path d="M 263.846044 151.849315 
L 193.847215 135.030287 
" clip-path="url(#p8fa482c9d1)" style="fill: none; stroke: #373839"/>
    <path d="M 263.846044 151.849315 
L 267.189568 53.89855 
" clip-path="url(#p8fa482c9d1)" style="fill: none; stroke: #3d3e3f"/>
    <path d="M 263.846044 151.849315 
L 280.358115 79.331817 
" clip-path="url(#p8fa482c9d1)" style="fill: none; stroke: #48494b"/>
    <path d="M 263.846044 151.849315 
L 277.055961 122.582885 
" clip-path="url(#p8fa482c9d1)" style="fill: none; stroke: #373839"/>
    <path d="M 193.847215 135.030287 
L 267.189568 53.89855 
" clip-path="url(#p8fa482c9d1)" style="fill: none; stroke: #434446"/>
    <path d="M 193.847215 135.030287 
L 280.358115 79.331817 
" clip-path="url(#p8fa482c9d1)" style="fill: none; stroke: #545658"/>
    <path d="M 193.847215 135.030287 
L 277.055961 122.582885 
" clip-path="url(#p8fa482c9d1)" style="fill: none; stroke: #434446"/>
    <path d="M 267.189568 53.89855 
L 280.358115 79.331817 
" clip-path="url(#p8fa482c9d1)" style="fill: none; stroke: #4e5052"/>
    <path d="M 267.189568 53.89855 
L 277.055961 122.582885 
" clip-path="url(#p8fa482c9d1)" style="fill: none; stroke: #3d3e3f"/>
    <path d="M 280.358115 79.331817 
L 277.055961 122.582885 
" clip-path="url(#p8fa482c9d1)" style="fill: none; stroke: #313132"/>
    <path d="M 207.204076 218.871284 
L 174.032456 178.808992 
" clip-path="url(#p8fa482c9d1)" style="fill: none; stroke: #434446"/>
    <path d="M 207.204076 218.871284 
L 275.083412 228.819801 
" clip-path="url(#p8fa482c9d1)" style="fill: none; stroke: #434446"/>
    <path d="M 174.032456 178.808992 
L 275.083412 228.819801 
" clip-path="url(#p8fa482c9d1)" style="fill: none; stroke: #434446"/>
   </g>
   <g id="PathCollection_1"/>
   <g id="PathCollection_2"/>
   <g id="PathCollection_3"/>
   <g id="PathCollection_4">
    <path d="M 213.430873 161.360883 
C 214.45053 161.360883 215.428562 160.955769 216.149568 160.234763 
C 216.870575 159.513756 217.275689 158.535725 217.275689 157.516068 
C 217.275689 156.49641 216.870575 155.518379 216.149568 154.797372 
C 215.428562 154.076366 214.45053 153.671252 213.430873 153.671252 
C 212.411216 153.671252 211.433184 154.076366 210.712178 154.797372 
C 209.991171 155.518379 209.586057 156.49641 209.586057 157.516068 
C 209.586057 158.535725 209.991171 159.513756 210.712178 160.234763 
C 211.433184 160.955769 212.411216 161.360883 213.430873 161.360883 
z
" clip-path="url(#p8fa482c9d1)" style="fill: #440154; stroke: #440154"/>
    <path d="M 222.482515 49.39189 
C 223.502172 49.39189 224.480204 48.986776 225.20121 48.265769 
C 225.922217 47.544763 226.327331 46.566731 226.327331 45.547074 
C 226.327331 44.527417 225.922217 43.549385 225.20121 42.828379 
C 224.480204 42.107372 223.502172 41.702258 222.482515 41.702258 
C 221.462858 41.702258 220.484826 42.107372 219.76382 42.828379 
C 219.042813 43.549385 218.637699 44.527417 218.637699 45.547074 
C 218.637699 46.566731 219.042813 47.544763 219.76382 48.265769 
C 220.484826 48.986776 221.462858 49.39189 222.482515 49.39189 
z
" clip-path="url(#p8fa482c9d1)" style="fill: #440154; stroke: #440154"/>
    <path d="M 227.606104 90.262242 
C 228.587558 90.262242 229.528946 89.872306 230.222939 89.178313 
C 230.916932 88.484321 231.306868 87.542932 231.306868 86.561478 
C 231.306868 85.580024 230.916932 84.638636 230.222939 83.944643 
C 229.528946 83.25065 228.587558 82.860714 227.606104 82.860714 
C 226.62465 82.860714 225.683261 83.25065 224.989269 83.944643 
C 224.295276 84.638636 223.90534 85.580024 223.90534 86.561478 
C 223.90534 87.542932 224.295276 88.484321 224.989269 89.178313 
C 225.683261 89.872306 226.62465 90.262242 227.606104 90.262242 
z
" clip-path="url(#p8fa482c9d1)" style="fill: #440154; stroke: #440154"/>
    <path d="M 197.170339 66.851068 
C 198.513539 66.851068 199.801906 66.317409 200.751692 65.367623 
C 201.701477 64.417838 202.235136 63.129471 202.235136 61.786271 
C 202.235136 60.443071 201.701477 59.154704 200.751692 58.204918 
C 199.801906 57.255132 198.513539 56.721473 197.170339 56.721473 
C 195.827139 56.721473 194.538772 57.255132 193.588986 58.204918 
C 192.6392 59.154704 192.105541 60.443071 192.105541 61.786271 
C 192.105541 63.129471 192.6392 64.417838 193.588986 65.367623 
C 194.538772 66.317409 195.827139 66.851068 197.170339 66.851068 
z
" clip-path="url(#p8fa482c9d1)" style="fill: #472c7a; stroke: #472c7a"/>
    <path d="M 248.948896 131.20204 
C 250.172984 131.20204 251.347101 130.715704 252.212662 129.850143 
C 253.078223 128.984582 253.564559 127.810465 253.564559 126.586376 
C 253.564559 125.362288 253.078223 124.188171 252.212662 123.32261 
C 251.347101 122.457048 250.172984 121.970713 248.948896 121.970713 
C 247.724807 121.970713 246.55069 122.457048 245.685129 123.32261 
C 244.819568 124.188171 244.333232 125.362288 244.333232 126.586376 
C 244.333232 127.810465 244.819568 128.984582 245.685129 129.850143 
C 246.55069 130.715704 247.724807 131.20204 248.948896 131.20204 
z
" clip-path="url(#p8fa482c9d1)" style="fill: #2b748e; stroke: #2b748e"/>
    <path d="M 235.286719 152.46288 
C 236.629919 152.46288 237.918286 151.929221 238.868072 150.979435 
C 239.817858 150.029649 240.351517 148.741282 240.351517 147.398082 
C 240.351517 146.054882 239.817858 144.766515 238.868072 143.816729 
C 237.918286 142.866944 236.629919 142.333285 235.286719 142.333285 
C 233.943519 142.333285 232.655152 142.866944 231.705367 143.816729 
C 230.755581 144.766515 230.221922 146.054882 230.221922 147.398082 
C 230.221922 148.741282 230.755581 150.029649 231.705367 150.979435 
C 232.655152 151.929221 233.943519 152.46288 235.286719 152.46288 
z
" clip-path="url(#p8fa482c9d1)" style="fill: #34b679; stroke: #34b679"/>
    <path d="M 187.104179 96.061749 
C 188.503137 96.061749 189.844985 95.505937 190.834198 94.516724 
C 191.823411 93.527512 192.379223 92.185663 192.379223 90.786705 
C 192.379223 89.387747 191.823411 88.045898 190.834198 87.056686 
C 189.844985 86.067473 188.503137 85.511661 187.104179 85.511661 
C 185.705221 85.511661 184.363372 86.067473 183.37416 87.056686 
C 182.384947 88.045898 181.829135 89.387747 181.829135 90.786705 
C 181.829135 92.185663 182.384947 93.527512 183.37416 94.516724 
C 184.363372 95.505937 185.705221 96.061749 187.104179 96.061749 
z
" clip-path="url(#p8fa482c9d1)" style="fill: #fde725; stroke: #fde725"/>
    <path d="M 219.635171 120.62419 
C 220.761691 120.62419 221.842222 120.176619 222.638792 119.38005 
C 223.435362 118.58348 223.882933 117.502948 223.882933 116.376429 
C 223.882933 115.249909 223.435362 114.169377 222.638792 113.372808 
C 221.842222 112.576238 220.761691 112.128667 219.635171 112.128667 
C 218.508652 112.128667 217.42812 112.576238 216.63155 113.372808 
C 215.83498 114.169377 215.38741 115.249909 215.38741 116.376429 
C 215.38741 117.502948 215.83498 118.58348 216.63155 119.38005 
C 217.42812 120.176619 218.508652 120.62419 219.635171 120.62419 
z
" clip-path="url(#p8fa482c9d1)" style="fill: #440256; stroke: #440256"/>
    <path d="M 263.846044 156.805646 
C 265.160478 156.805646 266.421253 156.283416 267.350699 155.35397 
C 268.280144 154.424525 268.802375 153.16375 268.802375 151.849315 
C 268.802375 150.534881 268.280144 149.274105 267.350699 148.34466 
C 266.421253 147.415214 265.160478 146.892984 263.846044 146.892984 
C 262.531609 146.892984 261.270834 147.415214 260.341388 148.34466 
C 259.411943 149.274105 258.889713 150.534881 258.889713 151.849315 
C 258.889713 153.16375 259.411943 154.424525 260.341388 155.35397 
C 261.270834 156.283416 262.531609 156.805646 263.846044 156.805646 
z
" clip-path="url(#p8fa482c9d1)" style="fill: #297b8e; stroke: #297b8e"/>
    <path d="M 193.847215 139.986618 
C 195.161649 139.986618 196.422424 139.464388 197.35187 138.534943 
C 198.281315 137.605497 198.803546 136.344722 198.803546 135.030287 
C 198.803546 133.715853 198.281315 132.455078 197.35187 131.525632 
C 196.422424 130.596187 195.161649 130.073956 193.847215 130.073956 
C 192.53278 130.073956 191.272005 130.596187 190.342559 131.525632 
C 189.413114 132.455078 188.890884 133.715853 188.890884 135.030287 
C 188.890884 136.344722 189.413114 137.605497 190.342559 138.534943 
C 191.272005 139.464388 192.53278 139.986618 193.847215 139.986618 
z
" clip-path="url(#p8fa482c9d1)" style="fill: #297b8e; stroke: #297b8e"/>
    <path d="M 267.189568 56.772723 
C 267.951807 56.772723 268.68293 56.469882 269.221915 55.930897 
C 269.7609 55.391912 270.063741 54.66079 270.063741 53.89855 
C 270.063741 53.136311 269.7609 52.405188 269.221915 51.866203 
C 268.68293 51.327218 267.951807 51.024377 267.189568 51.024377 
C 266.427328 51.024377 265.696205 51.327218 265.157221 51.866203 
C 264.618236 52.405188 264.315395 53.136311 264.315395 53.89855 
C 264.315395 54.66079 264.618236 55.391912 265.157221 55.930897 
C 265.696205 56.469882 266.427328 56.772723 267.189568 56.772723 
z
" clip-path="url(#p8fa482c9d1)" style="fill: #440154; stroke: #440154"/>
    <path d="M 280.358115 82.20599 
C 281.120355 82.20599 281.851478 81.903149 282.390462 81.364164 
C 282.929447 80.825179 283.232288 80.094056 283.232288 79.331817 
C 283.232288 78.569577 282.929447 77.838455 282.390462 77.29947 
C 281.851478 76.760485 281.120355 76.457644 280.358115 76.457644 
C 279.595876 76.457644 278.864753 76.760485 278.325768 77.29947 
C 277.786783 77.838455 277.483942 78.569577 277.483942 79.331817 
C 277.483942 80.094056 277.786783 80.825179 278.325768 81.364164 
C 278.864753 81.903149 279.595876 82.20599 280.358115 82.20599 
z
" clip-path="url(#p8fa482c9d1)" style="fill: #440154; stroke: #440154"/>
    <path d="M 277.055961 126.427701 
C 278.075618 126.427701 279.05365 126.022587 279.774656 125.30158 
C 280.495662 124.580574 280.900777 123.602542 280.900777 122.582885 
C 280.900777 121.563228 280.495662 120.585196 279.774656 119.86419 
C 279.05365 119.143183 278.075618 118.738069 277.055961 118.738069 
C 276.036304 118.738069 275.058272 119.143183 274.337265 119.86419 
C 273.616259 120.585196 273.211145 121.563228 273.211145 122.582885 
C 273.211145 123.602542 273.616259 124.580574 274.337265 125.30158 
C 275.058272 126.022587 276.036304 126.427701 277.055961 126.427701 
z
" clip-path="url(#p8fa482c9d1)" style="fill: #440154; stroke: #440154"/>
    <path d="M 249.798706 76.669933 
C 251.083731 76.669933 252.316298 76.159387 253.224948 75.250738 
C 254.133597 74.342088 254.644143 73.109521 254.644143 71.824496 
C 254.644143 70.539471 254.133597 69.306905 253.224948 68.398255 
C 252.316298 67.489605 251.083731 66.979059 249.798706 66.979059 
C 248.513681 66.979059 247.281115 67.489605 246.372465 68.398255 
C 245.463815 69.306905 244.953269 70.539471 244.953269 71.824496 
C 244.953269 73.109521 245.463815 74.342088 246.372465 75.250738 
C 247.281115 76.159387 248.513681 76.669933 249.798706 76.669933 
z
" clip-path="url(#p8fa482c9d1)" style="fill: #440154; stroke: #440154"/>
    <path d="M 138.030783 133.51783 
C 139.345217 133.51783 140.605992 132.9956 141.535438 132.066154 
C 142.464883 131.136709 142.987114 129.875933 142.987114 128.561499 
C 142.987114 127.247065 142.464883 125.986289 141.535438 125.056844 
C 140.605992 124.127398 139.345217 123.605168 138.030783 123.605168 
C 136.716348 123.605168 135.455573 124.127398 134.526127 125.056844 
C 133.596682 125.986289 133.074451 127.247065 133.074451 128.561499 
C 133.074451 129.875933 133.596682 131.136709 134.526127 132.066154 
C 135.455573 132.9956 136.716348 133.51783 138.030783 133.51783 
z
" clip-path="url(#p8fa482c9d1)" style="fill: #440154; stroke: #440154"/>
    <path d="M 322.493592 178.443566 
C 323.585654 178.443566 324.633134 178.009686 325.405338 177.237482 
C 326.177542 176.465278 326.611422 175.417798 326.611422 174.325736 
C 326.611422 173.233675 326.177542 172.186195 325.405338 171.413991 
C 324.633134 170.641787 323.585654 170.207907 322.493592 170.207907 
C 321.401531 170.207907 320.354051 170.641787 319.581847 171.413991 
C 318.809643 172.186195 318.375763 173.233675 318.375763 174.325736 
C 318.375763 175.417798 318.809643 176.465278 319.581847 177.237482 
C 320.354051 178.009686 321.401531 178.443566 322.493592 178.443566 
z
" clip-path="url(#p8fa482c9d1)" style="fill: #440154; stroke: #440154"/>
    <path d="M 315.016046 146.3855 
C 315.609058 146.3855 316.177862 146.149894 316.597185 145.730571 
C 317.016508 145.311248 317.252114 144.742444 317.252114 144.149432 
C 317.252114 143.55642 317.016508 142.987616 316.597185 142.568293 
C 316.177862 142.148971 315.609058 141.913364 315.016046 141.913364 
C 314.423034 141.913364 313.85423 142.148971 313.434907 142.568293 
C 313.015585 142.987616 312.779978 143.55642 312.779978 144.149432 
C 312.779978 144.742444 313.015585 145.311248 313.434907 145.730571 
C 313.85423 146.149894 314.423034 146.3855 315.016046 146.3855 
z
" clip-path="url(#p8fa482c9d1)" style="fill: #440154; stroke: #440154"/>
    <path d="M 207.204076 224.042274 
C 208.575439 224.042274 209.890818 223.497426 210.860518 222.527726 
C 211.830217 221.558026 212.375066 220.242647 212.375066 218.871284 
C 212.375066 217.499922 211.830217 216.184542 210.860518 215.214843 
C 209.890818 214.245143 208.575439 213.700295 207.204076 213.700295 
C 205.832714 213.700295 204.517334 214.245143 203.547635 215.214843 
C 202.577935 216.184542 202.033087 217.499922 202.033087 218.871284 
C 202.033087 220.242647 202.577935 221.558026 203.547635 222.527726 
C 204.517334 223.497426 205.832714 224.042274 207.204076 224.042274 
z
" clip-path="url(#p8fa482c9d1)" style="fill: #440154; stroke: #440154"/>
    <path d="M 174.032456 184.286218 
C 175.485033 184.286218 176.878312 183.709103 177.90544 182.681975 
C 178.932567 181.654848 179.509682 180.261569 179.509682 178.808992 
C 179.509682 177.356415 178.932567 175.963136 177.90544 174.936009 
C 176.878312 173.908881 175.485033 173.331766 174.032456 173.331766 
C 172.579879 173.331766 171.1866 173.908881 170.159473 174.936009 
C 169.132346 175.963136 168.555231 177.356415 168.555231 178.808992 
C 168.555231 180.261569 169.132346 181.654848 170.159473 182.681975 
C 171.1866 183.709103 172.579879 184.286218 174.032456 184.286218 
z
" clip-path="url(#p8fa482c9d1)" style="fill: #440154; stroke: #440154"/>
    <path d="M 275.083412 234.297027 
C 276.535989 234.297027 277.929268 233.719912 278.956395 232.692784 
C 279.983522 231.665657 280.560637 230.272378 280.560637 228.819801 
C 280.560637 227.367224 279.983522 225.973945 278.956395 224.946818 
C 277.929268 223.919691 276.535989 223.342576 275.083412 223.342576 
C 273.630834 223.342576 272.237556 223.919691 271.210428 224.946818 
C 270.183301 225.973945 269.606186 227.367224 269.606186 228.819801 
C 269.606186 230.272378 270.183301 231.665657 271.210428 232.692784 
C 272.237556 233.719912 273.630834 234.297027 275.083412 234.297027 
z
" clip-path="url(#p8fa482c9d1)" style="fill: #440154; stroke: #440154"/>
   </g>
   <g id="text_1">
    <g clip-path="url(#p8fa482c9d1)">
     <text style="font: 6px 'Arial', sans-serif; text-anchor: middle" x="213.430873" y="156.253255" transform="rotate(-0 213.430873 156.253255)">regulation of ion transmembrane transport</text>
    </g>
   </g>
   <g id="text_2">
    <g clip-path="url(#p8fa482c9d1)">
     <text style="font: 6px 'Arial', sans-serif; text-anchor: middle" x="222.482515" y="44.284261" transform="rotate(-0 222.482515 44.284261)">regulation of transmembrane transport</text>
    </g>
   </g>
   <g id="text_3">
    <g clip-path="url(#p8fa482c9d1)">
     <text style="font: 6px 'Arial', sans-serif; text-anchor: middle" x="227.606104" y="85.298666" transform="rotate(-0 227.606104 85.298666)">sensory perception</text>
    </g>
   </g>
   <g id="text_4">
    <g clip-path="url(#p8fa482c9d1)">
     <text style="font: 6px 'Arial', sans-serif; text-anchor: middle" x="197.170339" y="60.593771" transform="rotate(-0 197.170339 60.593771)">metal ion transport</text>
    </g>
   </g>
   <g id="text_5">
    <g clip-path="url(#p8fa482c9d1)">
     <text style="font: 6px 'Arial', sans-serif; text-anchor: middle" x="248.948896" y="125.323564" transform="rotate(-0 248.948896 125.323564)">regulation of system process</text>
    </g>
   </g>
   <g id="text_6">
    <g clip-path="url(#p8fa482c9d1)">
     <text style="font: 6px 'Arial', sans-serif; text-anchor: middle" x="315.016046" y="142.956932" transform="rotate(-0 315.016046 142.956932)">lipid localization</text>
    </g>
   </g>
   <g id="text_7">
    <g clip-path="url(#p8fa482c9d1)">
     <text style="font: 6px 'Arial', sans-serif; text-anchor: middle" x="235.286719" y="146.205582" transform="rotate(-0 235.286719 146.205582)">plasma membrane protein complex</text>
    </g>
   </g>
   <g id="text_8">
    <g clip-path="url(#p8fa482c9d1)">
     <text style="font: 6px 'Arial', sans-serif; text-anchor: middle" x="138.030783" y="127.368999" transform="rotate(-0 138.030783 127.368999)">extracellular matrix</text>
    </g>
   </g>
   <g id="text_9">
    <g clip-path="url(#p8fa482c9d1)">
     <text style="font: 6px 'Arial', sans-serif; text-anchor: middle" x="187.104179" y="89.523893" transform="rotate(-0 187.104179 89.523893)">channel activity</text>
    </g>
   </g>
   <g id="text_10">
    <g clip-path="url(#p8fa482c9d1)">
     <text style="font: 6px 'Arial', sans-serif; text-anchor: middle" x="219.635171" y="115.113616" transform="rotate(-0 219.635171 115.113616)">passive transmembrane transporter activity</text>
    </g>
   </g>
   <g id="text_11">
    <g clip-path="url(#p8fa482c9d1)">
     <text style="font: 6px 'Arial', sans-serif; text-anchor: middle" x="263.846044" y="150.586503" transform="rotate(-0 263.846044 150.586503)">ion channel activity</text>
    </g>
   </g>
   <g id="text_12">
    <g clip-path="url(#p8fa482c9d1)">
     <text style="font: 6px 'Arial', sans-serif; text-anchor: middle" x="193.847215" y="133.767475" transform="rotate(-0 193.847215 133.767475)">gated channel activity</text>
    </g>
   </g>
   <g id="text_13">
    <g clip-path="url(#p8fa482c9d1)">
     <text style="font: 6px 'Arial', sans-serif; text-anchor: middle" x="267.189568" y="52.635738" transform="rotate(-0 267.189568 52.635738)">cation channel activity</text>
    </g>
   </g>
   <g id="text_14">
    <g clip-path="url(#p8fa482c9d1)">
     <text style="font: 6px 'Arial', sans-serif; text-anchor: middle" x="280.358115" y="78.069004" transform="rotate(-0 280.358115 78.069004)">metal ion transmembrane transporter activity</text>
    </g>
   </g>
   <g id="text_15">
    <g clip-path="url(#p8fa482c9d1)">
     <text style="font: 6px 'Arial', sans-serif; text-anchor: middle" x="207.204076" y="217.608472" transform="rotate(-0 207.204076 217.608472)">receptor regulator activity</text>
    </g>
   </g>
   <g id="text_16">
    <g clip-path="url(#p8fa482c9d1)">
     <text style="font: 6px 'Arial', sans-serif; text-anchor: middle" x="174.032456" y="177.546179" transform="rotate(-0 174.032456 177.546179)">receptor ligand activity</text>
    </g>
   </g>
   <g id="text_17">
    <g clip-path="url(#p8fa482c9d1)">
     <text style="font: 6px 'Arial', sans-serif; text-anchor: middle" x="275.083412" y="227.556989" transform="rotate(-0 275.083412 227.556989)">signaling receptor activator activity</text>
    </g>
   </g>
   <g id="text_18">
    <g clip-path="url(#p8fa482c9d1)">
     <text style="fill: #1a1a1a; font: 9px 'Arial', sans-serif; text-anchor: middle" x="277.055961" y="120.688666" transform="rotate(-0 277.055961 120.688666)">inorganic cation transmembrane transporter activity</text>
    </g>
   </g>
   <g id="text_19">
    <g clip-path="url(#p8fa482c9d1)">
     <text style="fill: #1a1a1a; font: 9px 'Arial', sans-serif; text-anchor: middle" x="249.798706" y="69.930277" transform="rotate(-0 249.798706 69.930277)">organic hydroxy compound metabolic process</text>
    </g>
   </g>
   <g id="text_20">
    <g clip-path="url(#p8fa482c9d1)">
     <text style="fill: #1a1a1a; font: 9px 'Arial', sans-serif; text-anchor: middle" x="322.493592" y="172.431518" transform="rotate(-0 322.493592 172.431518)">external encapsulating structure</text>
    </g>
   </g>
   <g id="text_21">
    <text style="fill: #262626; font: 700 18px 'Arial', sans-serif; text-anchor: middle" x="230.262187" y="20.303437" transform="rotate(-0 230.262187 20.303437)">ClusterGoSummary_TPDS_TMDE_RG2Changes.csv</text>
   </g>
   <g id="legend_1">
    <g id="patch_2">
     <path d="M 120.9375 203.397937 
L 203.742188 203.397937 
Q 204.942187 203.397937 204.942187 202.197937 
L 204.942187 185.735437 
Q 204.942187 184.535437 203.742188 184.535437 
L 120.9375 184.535437 
Q 119.7375 184.535437 119.7375 185.735437 
L 119.7375 202.197937 
Q 119.7375 203.397937 120.9375 203.397937 
z
" style="fill: #ffffff; opacity: 0.8; stroke: #cccccc; stroke-linejoin: miter"/>
    </g>
    <g id="patch_3">
     <path d="M 122.1375 191.247937 
L 123.6375 191.247937 
L 123.6375 187.047937 
L 122.1375 187.047937 
z
" style="fill: #48186a"/>
    </g>
    <g id="patch_4">
     <path d="M 123.6375 191.247937 
L 125.1375 191.247937 
L 125.1375 187.047937 
L 123.6375 187.047937 
z
" style="fill: #424086"/>
    </g>
    <g id="patch_5">
     <path d="M 125.1375 191.247937 
L 126.6375 191.247937 
L 126.6375 187.047937 
L 125.1375 187.047937 
z
" style="fill: #33638d"/>
    </g>
    <g id="patch_6">
     <path d="M 126.6375 191.247937 
L 128.1375 191.247937 
L 128.1375 187.047937 
L 126.6375 187.047937 
z
" style="fill: #26828e"/>
    </g>
    <g id="patch_7">
     <path d="M 128.1375 191.247937 
L 129.6375 191.247937 
L 129.6375 187.047937 
L 128.1375 187.047937 
z
" style="fill: #1fa088"/>
    </g>
    <g id="patch_8">
     <path d="M 129.6375 191.247937 
L 131.1375 191.247937 
L 131.1375 187.047937 
L 129.6375 187.047937 
z
" style="fill: #3fbc73"/>
    </g>
    <g id="patch_9">
     <path d="M 131.1375 191.247937 
L 132.6375 191.247937 
L 132.6375 187.047937 
L 131.1375 187.047937 
z
" style="fill: #84d44b"/>
    </g>
    <g id="patch_10">
     <path d="M 132.6375 191.247937 
L 134.1375 191.247937 
L 134.1375 187.047937 
L 132.6375 187.047937 
z
" style="fill: #d8e219"/>
    </g>
    <g id="text_22">
     <text style="fill: #262626; font: 6px 'Arial', sans-serif; text-anchor: start" x="138.9375" y="191.247937" transform="rotate(-0 138.9375 191.247937)">P.adj:5.73e-14,4.24e-02</text>
    </g>
    <g id="patch_11">
     <path d="M 122.1375 199.805437 
L 123.6375 199.805437 
L 123.6375 195.605437 
L 122.1375 195.605437 
z
" style="fill: #ccd0d5"/>
    </g>
    <g id="patch_12">
     <path d="M 123.6375 199.805437 
L 125.1375 199.805437 
L 125.1375 195.605437 
L 123.6375 195.605437 
z
" style="fill: #b3b7bc"/>
    </g>
    <g id="patch_13">
     <path d="M 125.1375 199.805437 
L 126.6375 199.805437 
L 126.6375 195.605437 
L 125.1375 195.605437 
z
" style="fill: #9c9fa3"/>
    </g>
    <g id="patch_14">
     <path d="M 126.6375 199.805437 
L 128.1375 199.805437 
L 128.1375 195.605437 
L 126.6375 195.605437 
z
" style="fill: #84878a"/>
    </g>
    <g id="patch_15">
     <path d="M 128.1375 199.805437 
L 129.6375 199.805437 
L 129.6375 195.605437 
L 128.1375 195.605437 
z
" style="fill: #727477"/>
    </g>
    <g id="patch_16">
     <path d="M 129.6375 199.805437 
L 131.1375 199.805437 
L 131.1375 195.605437 
L 129.6375 195.605437 
z
" style="fill: #5a5c5e"/>
    </g>
    <g id="patch_17">
     <path d="M 131.1375 199.805437 
L 132.6375 199.805437 
L 132.6375 195.605437 
L 131.1375 195.605437 
z
" style="fill: #434446"/>
    </g>
    <g id="patch_18">
     <path d="M 132.6375 199.805437 
L 134.1375 199.805437 
L 134.1375 195.605437 
L 132.6375 195.605437 
z
" style="fill: #2b2b2c"/>
    </g>
    <g id="text_23">
     <text style="fill: #262626; font: 6px 'Arial', sans-serif; text-anchor: start" x="138.9375" y="199.805437" transform="rotate(-0 138.9375 199.805437)">G.shared:4-61</text>
    </g>
   </g>
   <g id="legend_2">
    <g id="patch_19">
     <path d="M 122.862188 267.239438 
L 182.622187 267.239438 
Q 183.822187 267.239438 183.822187 266.039437 
L 183.822187 227.2035 
Q 183.822187 226.0035 182.622187 226.0035 
L 122.862188 226.0035 
Q 121.662188 226.0035 121.662188 227.2035 
L 121.662188 266.039437 
Q 121.662188 267.239438 122.862188 267.239438 
z
" style="fill: #ffffff; opacity: 0.8; stroke: #cccccc; stroke-linejoin: miter"/>
    </g>
    <g id="text_24">
     <text style="fill: #262626; font: 12px 'Arial', sans-serif; text-anchor: start" x="124.062188" y="236.992875" transform="rotate(-0 124.062188 236.992875)">No. Genes</text>
    </g>
    <g id="PathCollection_5">
     <defs>
      <path id="me6e13c2d6f" d="M 0 2.236068 
C 0.593012 2.236068 1.161816 2.000462 1.581139 1.581139 
C 2.000462 1.161816 2.236068 0.593012 2.236068 0 
C 2.236068 -0.593012 2.000462 -1.161816 1.581139 -1.581139 
C 1.161816 -2.000462 0.593012 -2.236068 0 -2.236068 
C -0.593012 -2.236068 -1.161816 -2.000462 -1.581139 -1.581139 
C -2.000462 -1.161816 -2.236068 -0.593012 -2.236068 0 
C -2.236068 0.593012 -2.000462 1.161816 -1.581139 1.581139 
C -1.161816 2.000462 -0.593012 2.236068 0 2.236068 
z
" style="stroke: #222222"/>
     </defs>
     <g>
      <use xlink:href="#me6e13c2d6f" x="147.005625" y="245.097562" style="fill: #222222; stroke: #222222"/>
     </g>
    </g>
    <g id="text_25">
     <text style="fill: #262626; font: 6px 'Arial', sans-serif; text-anchor: start" x="157.805625" y="246.672562" transform="rotate(-0 157.805625 246.672562)">41</text>
    </g>
    <g id="PathCollection_6">
     <defs>
      <path id="mef3f5a33cf" d="M 0 4.444097 
C 1.178588 4.444097 2.309063 3.975839 3.142451 3.142451 
C 3.975839 2.309063 4.444097 1.178588 4.444097 0 
C 4.444097 -1.178588 3.975839 -2.309063 3.142451 -3.142451 
C 2.309063 -3.975839 1.178588 -4.444097 0 -4.444097 
C -1.178588 -4.444097 -2.309063 -3.975839 -3.142451 -3.142451 
C -3.975839 -2.309063 -4.444097 -1.178588 -4.444097 0 
C -4.444097 1.178588 -3.975839 2.309063 -3.142451 3.142451 
C -2.309063 3.975839 -1.178588 4.444097 0 4.444097 
z
" style="stroke: #222222"/>
     </defs>
     <g>
      <use xlink:href="#mef3f5a33cf" x="147.005625" y="253.58475" style="fill: #222222; stroke: #222222"/>
     </g>
    </g>
    <g id="text_26">
     <text style="fill: #262626; font: 6px 'Arial', sans-serif; text-anchor: start" x="157.805625" y="255.15975" transform="rotate(-0 157.805625 255.15975)">50</text>
    </g>
    <g id="PathCollection_7">
     <defs>
      <path id="m34accc169a" d="M 0 5.477226 
C 1.452577 5.477226 2.845856 4.900111 3.872983 3.872983 
C 4.900111 2.845856 5.477226 1.452577 5.477226 0 
C 5.477226 -1.452577 4.900111 -2.845856 3.872983 -3.872983 
C 2.845856 -4.900111 1.452577 -5.477226 0 -5.477226 
C -1.452577 -5.477226 -2.845856 -4.900111 -3.872983 -3.872983 
C -4.900111 -2.845856 -5.477226 -1.452577 -5.477226 0 
C -5.477226 1.452577 -4.900111 2.845856 -3.872983 3.872983 
C -2.845856 4.900111 -1.452577 5.477226 0 5.477226 
z
" style="stroke: #222222"/>
     </defs>
     <g>
      <use xlink:href="#m34accc169a" x="147.005625" y="262.071937" style="fill: #222222; stroke: #222222"/>
     </g>
    </g>
    <g id="text_27">
     <text style="fill: #262626; font: 6px 'Arial', sans-serif; text-anchor: start" x="157.805625" y="263.646937" transform="rotate(-0 157.805625 263.646937)">64</text>
    </g>
   </g>
   <g id="legend_3">
    <g id="patch_20">
     <path d="M 122.862188 267.239438 
L 182.622187 267.239438 
Q 183.822187 267.239438 183.822187 266.039437 
L 183.822187 227.2035 
Q 183.822187 226.0035 182.622187 226.0035 
L 122.862188 226.0035 
Q 121.662188 226.0035 121.662188 227.2035 
L 121.662188 266.039437 
Q 121.662188 267.239438 122.862188 267.239438 
z
" style="fill: #ffffff; opacity: 0.8; stroke: #cccccc; stroke-linejoin: miter"/>
    </g>
    <g id="text_28">
     <text style="fill: #262626; font: 12px 'Arial', sans-serif; text-anchor: start" x="124.062188" y="236.992875" transform="rotate(-0 124.062188 236.992875)">No. Genes</text>
    </g>
    <g id="PathCollection_8">
     <g>
      <use xlink:href="#me6e13c2d6f" x="147.005625" y="245.097562" style="fill: #222222; stroke: #222222"/>
     </g>
    </g>
    <g id="text_29">
     <text style="fill: #262626; font: 6px 'Arial', sans-serif; text-anchor: start" x="157.805625" y="246.672562" transform="rotate(-0 157.805625 246.672562)">41</text>
    </g>
    <g id="PathCollection_9">
     <g>
      <use xlink:href="#mef3f5a33cf" x="147.005625" y="253.58475" style="fill: #222222; stroke: #222222"/>
     </g>
    </g>
    <g id="text_30">
     <text style="fill: #262626; font: 6px 'Arial', sans-serif; text-anchor: start" x="157.805625" y="255.15975" transform="rotate(-0 157.805625 255.15975)">50</text>
    </g>
    <g id="PathCollection_10">
     <g>
      <use xlink:href="#m34accc169a" x="147.005625" y="262.071937" style="fill: #222222; stroke: #222222"/>
     </g>
    </g>
    <g id="text_31">
     <text style="fill: #262626; font: 6px 'Arial', sans-serif; text-anchor: start" x="157.805625" y="263.646937" transform="rotate(-0 157.805625 263.646937)">64</text>
    </g>
   </g>
  </g>
 </g>
 <defs>
  <clipPath id="p8fa482c9d1">
   <rect x="118.662188" y="26.303437" width="223.2" height="221.76"/>
  </clipPath>
 </defs>
</svg>
