<?xml version="1.0" encoding="utf-8" standalone="no"?>
<!DOCTYPE svg PUBLIC "-//W3C//DTD SVG 1.1//EN"
  "http://www.w3.org/Graphics/SVG/1.1/DTD/svg11.dtd">
<svg xmlns:xlink="http://www.w3.org/1999/xlink" width="391.514062pt" height="255.263437pt" viewBox="0 0 391.514062 255.263437" xmlns="http://www.w3.org/2000/svg" version="1.1">
 <metadata>
  <rdf:RDF xmlns:dc="http://purl.org/dc/elements/1.1/" xmlns:cc="http://creativecommons.org/ns#" xmlns:rdf="http://www.w3.org/1999/02/22-rdf-syntax-ns#">
   <cc:Work>
    <dc:type rdf:resource="http://purl.org/dc/dcmitype/StillImage"/>
    <dc:date>2022-12-12T08:44:44.305893</dc:date>
    <dc:format>image/svg+xml</dc:format>
    <dc:creator>
     <cc:Agent>
      <dc:title>Matplotlib v3.6.2, https://matplotlib.org/</dc:title>
     </cc:Agent>
    </dc:creator>
   </cc:Work>
  </rdf:RDF>
 </metadata>
 <defs>
  <style type="text/css">*{stroke-linejoin: round; stroke-linecap: butt}</style>
 </defs>
 <g id="figure_1">
  <g id="patch_1">
   <path d="M 0 255.263437 
L 391.514062 255.263437 
L 391.514062 0 
L 0 0 
L 0 255.263437 
z
" style="fill: none"/>
  </g>
  <g id="axes_1">
   <g id="LineCollection_1">
    <path d="M 289.805445 45.547074 
L 232.547862 228.819801 
" clip-path="url(#p56750d873b)" style="fill: none; stroke: #252626"/>
    <path d="M 185.447287 54.192516 
L 141.682806 206.139569 
" clip-path="url(#p56750d873b)" style="fill: none; stroke: #252626"/>
    <path d="M 185.447287 54.192516 
L 271.42969 158.17963 
" clip-path="url(#p56750d873b)" style="fill: none; stroke: #d1d5db"/>
    <path d="M 141.682806 206.139569 
L 271.42969 158.17963 
" clip-path="url(#p56750d873b)" style="fill: none; stroke: #d1d5db"/>
   </g>
   <g id="PathCollection_1"/>
   <g id="PathCollection_2"/>
   <g id="PathCollection_3"/>
   <g id="PathCollection_4">
    <path d="M 289.805445 47.783142 
C 290.398457 47.783142 290.967261 47.547536 291.386584 47.128213 
C 291.805907 46.70889 292.041513 46.140086 292.041513 45.547074 
C 292.041513 44.954062 291.805907 44.385258 291.386584 43.965935 
C 290.967261 43.546612 290.398457 43.311006 289.805445 43.311006 
C 289.212433 43.311006 288.643629 43.546612 288.224306 43.965935 
C 287.804983 44.385258 287.569377 44.954062 287.569377 45.547074 
C 287.569377 46.140086 287.804983 46.70889 288.224306 47.128213 
C 288.643629 47.547536 289.212433 47.783142 289.805445 47.783142 
z
" clip-path="url(#p56750d873b)" style="fill: #1f968b; stroke: #1f968b"/>
    <path d="M 232.547862 233.211351 
C 233.712515 233.211351 234.829623 232.74863 235.653157 231.925096 
C 236.476691 231.101562 236.939413 229.984454 236.939413 228.819801 
C 236.939413 227.655148 236.476691 226.53804 235.653157 225.714506 
C 234.829623 224.890972 233.712515 224.428251 232.547862 224.428251 
C 231.383209 224.428251 230.266101 224.890972 229.442567 225.714506 
C 228.619033 226.53804 228.156312 227.655148 228.156312 228.819801 
C 228.156312 229.984454 228.619033 231.101562 229.442567 231.925096 
C 230.266101 232.74863 231.383209 233.211351 232.547862 233.211351 
z
" clip-path="url(#p56750d873b)" style="fill: #fde725; stroke: #fde725"/>
    <path d="M 185.447287 58.584067 
C 186.61194 58.584067 187.729048 58.121345 188.552582 57.297811 
C 189.376116 56.474278 189.838837 55.357169 189.838837 54.192516 
C 189.838837 53.027864 189.376116 51.910755 188.552582 51.087221 
C 187.729048 50.263688 186.61194 49.800966 185.447287 49.800966 
C 184.282634 49.800966 183.165526 50.263688 182.341992 51.087221 
C 181.518458 51.910755 181.055737 53.027864 181.055737 54.192516 
C 181.055737 55.357169 181.518458 56.474278 182.341992 57.297811 
C 183.165526 58.121345 184.282634 58.584067 185.447287 58.584067 
z
" clip-path="url(#p56750d873b)" style="fill: #440154; stroke: #440154"/>
    <path d="M 141.682806 210.53112 
C 142.847459 210.53112 143.964567 210.068398 144.788101 209.244864 
C 145.611635 208.42133 146.074356 207.304222 146.074356 206.139569 
C 146.074356 204.974916 145.611635 203.857808 144.788101 203.034274 
C 143.964567 202.21074 142.847459 201.748019 141.682806 201.748019 
C 140.518153 201.748019 139.401045 202.21074 138.577511 203.034274 
C 137.753977 203.857808 137.291256 204.974916 137.291256 206.139569 
C 137.291256 207.304222 137.753977 208.42133 138.577511 209.244864 
C 139.401045 210.068398 140.518153 210.53112 141.682806 210.53112 
z
" clip-path="url(#p56750d873b)" style="fill: #440154; stroke: #440154"/>
    <path d="M 271.42969 162.960544 
C 272.697603 162.960544 273.913757 162.456797 274.810307 161.560247 
C 275.706857 160.663697 276.210604 159.447543 276.210604 158.17963 
C 276.210604 156.911717 275.706857 155.695563 274.810307 154.799013 
C 273.913757 153.902463 272.697603 153.398716 271.42969 153.398716 
C 270.161776 153.398716 268.945623 153.902463 268.049073 154.799013 
C 267.152522 155.695563 266.648775 156.911717 266.648775 158.17963 
C 266.648775 159.447543 267.152522 160.663697 268.049073 161.560247 
C 268.945623 162.456797 270.161776 162.960544 271.42969 162.960544 
z
" clip-path="url(#p56750d873b)" style="fill: #440154; stroke: #440154"/>
    <path d="M 94.302486 83.333158 
C 95.755063 83.333158 97.148342 82.756043 98.175469 81.728915 
C 99.202596 80.701788 99.779711 79.308509 99.779711 77.855932 
C 99.779711 76.403355 99.202596 75.010076 98.175469 73.982949 
C 97.148342 72.955821 95.755063 72.378706 94.302486 72.378706 
C 92.849909 72.378706 91.45663 72.955821 90.429502 73.982949 
C 89.402375 75.010076 88.82526 76.403355 88.82526 77.855932 
C 88.82526 79.308509 89.402375 80.701788 90.429502 81.728915 
C 91.45663 82.756043 92.849909 83.333158 94.302486 83.333158 
z
" clip-path="url(#p56750d873b)" style="fill: #1f968b; stroke: #1f968b"/>
   </g>
   <g id="text_1">
    <g clip-path="url(#p56750d873b)">
     <text style="font: 6px 'Arial', sans-serif; text-anchor: middle" x="232.547862" y="227.556989" transform="rotate(-0 232.547862 227.556989)">organic acid catabolic process</text>
    </g>
   </g>
   <g id="text_2">
    <g clip-path="url(#p56750d873b)">
     <text style="font: 6px 'Arial', sans-serif; text-anchor: middle" x="185.447287" y="53.000016" transform="rotate(-0 185.447287 53.000016)">basal plasma membrane</text>
    </g>
   </g>
   <g id="text_3">
    <g clip-path="url(#p56750d873b)">
     <text style="font: 6px 'Arial', sans-serif; text-anchor: middle" x="271.42969" y="156.98713" transform="rotate(-0 271.42969 156.98713)">basolateral plasma membrane</text>
    </g>
   </g>
   <g id="text_4">
    <g clip-path="url(#p56750d873b)">
     <text style="fill: #1a1a1a; font: 9px 'Arial', sans-serif; text-anchor: middle" x="289.805445" y="43.758324" transform="rotate(-0 289.805445 43.758324)">small molecule catabolic process</text>
    </g>
   </g>
   <g id="text_5">
    <g clip-path="url(#p56750d873b)">
     <text style="fill: #1a1a1a; font: 9px 'Arial', sans-serif; text-anchor: middle" x="141.682806" y="204.350819" transform="rotate(-0 141.682806 204.350819)">basal part of cell</text>
    </g>
   </g>
   <g id="text_6">
    <g clip-path="url(#p56750d873b)">
     <text style="fill: #1a1a1a; font: 9px 'Arial', sans-serif; text-anchor: middle" x="94.302486" y="75.961713" transform="rotate(-0 94.302486 75.961713)">channel regulator activity</text>
    </g>
   </g>
   <g id="text_7">
    <text style="fill: #262626; font: 700 18px 'Arial', sans-serif; text-anchor: middle" x="195.757031" y="20.303437" transform="rotate(-0 195.757031 20.303437)">ClusterGoSummary_MDS_RG2Changes.csv</text>
   </g>
   <g id="legend_1">
    <g id="patch_2">
     <path d="M 86.432344 203.397937 
L 169.237031 203.397937 
Q 170.437031 203.397937 170.437031 202.197937 
L 170.437031 185.735437 
Q 170.437031 184.535437 169.237031 184.535437 
L 86.432344 184.535437 
Q 85.232344 184.535437 85.232344 185.735437 
L 85.232344 202.197937 
Q 85.232344 203.397937 86.432344 203.397937 
z
" style="fill: #ffffff; opacity: 0.8; stroke: #cccccc; stroke-linejoin: miter"/>
    </g>
    <g id="patch_3">
     <path d="M 87.632344 191.247937 
L 89.132344 191.247937 
L 89.132344 187.047937 
L 87.632344 187.047937 
z
" style="fill: #48186a"/>
    </g>
    <g id="patch_4">
     <path d="M 89.132344 191.247937 
L 90.632344 191.247937 
L 90.632344 187.047937 
L 89.132344 187.047937 
z
" style="fill: #424086"/>
    </g>
    <g id="patch_5">
     <path d="M 90.632344 191.247937 
L 92.132344 191.247937 
L 92.132344 187.047937 
L 90.632344 187.047937 
z
" style="fill: #33638d"/>
    </g>
    <g id="patch_6">
     <path d="M 92.132344 191.247937 
L 93.632344 191.247937 
L 93.632344 187.047937 
L 92.132344 187.047937 
z
" style="fill: #26828e"/>
    </g>
    <g id="patch_7">
     <path d="M 93.632344 191.247937 
L 95.132344 191.247937 
L 95.132344 187.047937 
L 93.632344 187.047937 
z
" style="fill: #1fa088"/>
    </g>
    <g id="patch_8">
     <path d="M 95.132344 191.247937 
L 96.632344 191.247937 
L 96.632344 187.047937 
L 95.132344 187.047937 
z
" style="fill: #3fbc73"/>
    </g>
    <g id="patch_9">
     <path d="M 96.632344 191.247937 
L 98.132344 191.247937 
L 98.132344 187.047937 
L 96.632344 187.047937 
z
" style="fill: #84d44b"/>
    </g>
    <g id="patch_10">
     <path d="M 98.132344 191.247937 
L 99.632344 191.247937 
L 99.632344 187.047937 
L 98.132344 187.047937 
z
" style="fill: #d8e219"/>
    </g>
    <g id="text_8">
     <text style="fill: #262626; font: 6px 'Arial', sans-serif; text-anchor: start" x="104.432344" y="191.247937" transform="rotate(-0 104.432344 191.247937)">P.adj:3.23e-03,4.32e-02</text>
    </g>
    <g id="patch_11">
     <path d="M 87.632344 199.805437 
L 89.132344 199.805437 
L 89.132344 195.605437 
L 87.632344 195.605437 
z
" style="fill: #d1d5db"/>
    </g>
    <g id="patch_12">
     <path d="M 89.132344 199.805437 
L 90.632344 199.805437 
L 90.632344 195.605437 
L 89.132344 195.605437 
z
" style="fill: #d1d5db"/>
    </g>
    <g id="patch_13">
     <path d="M 90.632344 199.805437 
L 92.132344 199.805437 
L 92.132344 195.605437 
L 90.632344 195.605437 
z
" style="fill: #d1d5db"/>
    </g>
    <g id="patch_14">
     <path d="M 92.132344 199.805437 
L 93.632344 199.805437 
L 93.632344 195.605437 
L 92.132344 195.605437 
z
" style="fill: #d1d5db"/>
    </g>
    <g id="patch_15">
     <path d="M 93.632344 199.805437 
L 95.132344 199.805437 
L 95.132344 195.605437 
L 93.632344 195.605437 
z
" style="fill: #252626"/>
    </g>
    <g id="patch_16">
     <path d="M 95.132344 199.805437 
L 96.632344 199.805437 
L 96.632344 195.605437 
L 95.132344 195.605437 
z
" style="fill: #252626"/>
    </g>
    <g id="patch_17">
     <path d="M 96.632344 199.805437 
L 98.132344 199.805437 
L 98.132344 195.605437 
L 96.632344 195.605437 
z
" style="fill: #252626"/>
    </g>
    <g id="patch_18">
     <path d="M 98.132344 199.805437 
L 99.632344 199.805437 
L 99.632344 195.605437 
L 98.132344 195.605437 
z
" style="fill: #252626"/>
    </g>
    <g id="text_9">
     <text style="fill: #262626; font: 6px 'Arial', sans-serif; text-anchor: start" x="104.432344" y="199.805437" transform="rotate(-0 104.432344 199.805437)">G.shared:9-10</text>
    </g>
   </g>
   <g id="legend_2">
    <g id="patch_19">
     <path d="M 88.357031 267.239438 
L 148.117031 267.239438 
Q 149.317031 267.239438 149.317031 266.039437 
L 149.317031 227.2035 
Q 149.317031 226.0035 148.117031 226.0035 
L 88.357031 226.0035 
Q 87.157031 226.0035 87.157031 227.2035 
L 87.157031 266.039437 
Q 87.157031 267.239438 88.357031 267.239438 
z
" style="fill: #ffffff; opacity: 0.8; stroke: #cccccc; stroke-linejoin: miter"/>
    </g>
    <g id="text_10">
     <text style="fill: #262626; font: 12px 'Arial', sans-serif; text-anchor: start" x="89.557031" y="236.992875" transform="rotate(-0 89.557031 236.992875)">No. Genes</text>
    </g>
    <g id="PathCollection_5">
     <defs>
      <path id="m8bc2f5dfbd" d="M 0 2.236068 
C 0.593012 2.236068 1.161816 2.000462 1.581139 1.581139 
C 2.000462 1.161816 2.236068 0.593012 2.236068 0 
C 2.236068 -0.593012 2.000462 -1.161816 1.581139 -1.581139 
C 1.161816 -2.000462 0.593012 -2.236068 0 -2.236068 
C -0.593012 -2.236068 -1.161816 -2.000462 -1.581139 -1.581139 
C -2.000462 -1.161816 -2.236068 -0.593012 -2.236068 0 
C -2.236068 0.593012 -2.000462 1.161816 -1.581139 1.581139 
C -1.161816 2.000462 -0.593012 2.236068 0 2.236068 
z
" style="stroke: #222222"/>
     </defs>
     <g>
      <use xlink:href="#m8bc2f5dfbd" x="112.500469" y="245.097562" style="fill: #222222; stroke: #222222"/>
     </g>
    </g>
    <g id="text_11">
     <text style="fill: #262626; font: 6px 'Arial', sans-serif; text-anchor: start" x="123.300469" y="246.672562" transform="rotate(-0 123.300469 246.672562)">7</text>
    </g>
    <g id="PathCollection_6">
     <defs>
      <path id="m029dba6392" d="M 0 4.387482 
C 1.163574 4.387482 2.279647 3.925189 3.102418 3.102418 
C 3.925189 2.279647 4.387482 1.163574 4.387482 0 
C 4.387482 -1.163574 3.925189 -2.279647 3.102418 -3.102418 
C 2.279647 -3.925189 1.163574 -4.387482 0 -4.387482 
C -1.163574 -4.387482 -2.279647 -3.925189 -3.102418 -3.102418 
C -3.925189 -2.279647 -4.387482 -1.163574 -4.387482 0 
C -4.387482 1.163574 -3.925189 2.279647 -3.102418 3.102418 
C -2.279647 3.925189 -1.163574 4.387482 0 4.387482 
z
" style="stroke: #222222"/>
     </defs>
     <g>
      <use xlink:href="#m029dba6392" x="112.500469" y="253.58475" style="fill: #222222; stroke: #222222"/>
     </g>
    </g>
    <g id="text_12">
     <text style="fill: #262626; font: 6px 'Arial', sans-serif; text-anchor: start" x="123.300469" y="255.15975" transform="rotate(-0 123.300469 255.15975)">10</text>
    </g>
    <g id="PathCollection_7">
     <defs>
      <path id="m722dfe5f6c" d="M 0 5.477226 
C 1.452577 5.477226 2.845856 4.900111 3.872983 3.872983 
C 4.900111 2.845856 5.477226 1.452577 5.477226 0 
C 5.477226 -1.452577 4.900111 -2.845856 3.872983 -3.872983 
C 2.845856 -4.900111 1.452577 -5.477226 0 -5.477226 
C -1.452577 -5.477226 -2.845856 -4.900111 -3.872983 -3.872983 
C -4.900111 -2.845856 -5.477226 -1.452577 -5.477226 0 
C -5.477226 1.452577 -4.900111 2.845856 -3.872983 3.872983 
C -2.845856 4.900111 -1.452577 5.477226 0 5.477226 
z
" style="stroke: #222222"/>
     </defs>
     <g>
      <use xlink:href="#m722dfe5f6c" x="112.500469" y="262.071937" style="fill: #222222; stroke: #222222"/>
     </g>
    </g>
    <g id="text_13">
     <text style="fill: #262626; font: 6px 'Arial', sans-serif; text-anchor: start" x="123.300469" y="263.646937" transform="rotate(-0 123.300469 263.646937)">14</text>
    </g>
   </g>
   <g id="legend_3">
    <g id="patch_20">
     <path d="M 88.357031 267.239438 
L 148.117031 267.239438 
Q 149.317031 267.239438 149.317031 266.039437 
L 149.317031 227.2035 
Q 149.317031 226.0035 148.117031 226.0035 
L 88.357031 226.0035 
Q 87.157031 226.0035 87.157031 227.2035 
L 87.157031 266.039437 
Q 87.157031 267.239438 88.357031 267.239438 
z
" style="fill: #ffffff; opacity: 0.8; stroke: #cccccc; stroke-linejoin: miter"/>
    </g>
    <g id="text_14">
     <text style="fill: #262626; font: 12px 'Arial', sans-serif; text-anchor: start" x="89.557031" y="236.992875" transform="rotate(-0 89.557031 236.992875)">No. Genes</text>
    </g>
    <g id="PathCollection_8">
     <g>
      <use xlink:href="#m8bc2f5dfbd" x="112.500469" y="245.097562" style="fill: #222222; stroke: #222222"/>
     </g>
    </g>
    <g id="text_15">
     <text style="fill: #262626; font: 6px 'Arial', sans-serif; text-anchor: start" x="123.300469" y="246.672562" transform="rotate(-0 123.300469 246.672562)">7</text>
    </g>
    <g id="PathCollection_9">
     <g>
      <use xlink:href="#m029dba6392" x="112.500469" y="253.58475" style="fill: #222222; stroke: #222222"/>
     </g>
    </g>
    <g id="text_16">
     <text style="fill: #262626; font: 6px 'Arial', sans-serif; text-anchor: start" x="123.300469" y="255.15975" transform="rotate(-0 123.300469 255.15975)">10</text>
    </g>
    <g id="PathCollection_10">
     <g>
      <use xlink:href="#m722dfe5f6c" x="112.500469" y="262.071937" style="fill: #222222; stroke: #222222"/>
     </g>
    </g>
    <g id="text_17">
     <text style="fill: #262626; font: 6px 'Arial', sans-serif; text-anchor: start" x="123.300469" y="263.646937" transform="rotate(-0 123.300469 263.646937)">14</text>
    </g>
   </g>
  </g>
 </g>
 <defs>
  <clipPath id="p56750d873b">
   <rect x="84.157031" y="26.303437" width="223.2" height="221.76"/>
  </clipPath>
 </defs>
</svg>
