<?xml version="1.0" encoding="utf-8" standalone="no"?>
<!DOCTYPE svg PUBLIC "-//W3C//DTD SVG 1.1//EN"
  "http://www.w3.org/Graphics/SVG/1.1/DTD/svg11.dtd">
<svg xmlns:xlink="http://www.w3.org/1999/xlink" width="460.524375pt" height="255.263437pt" viewBox="0 0 460.524375 255.263437" xmlns="http://www.w3.org/2000/svg" version="1.1">
 <metadata>
  <rdf:RDF xmlns:dc="http://purl.org/dc/elements/1.1/" xmlns:cc="http://creativecommons.org/ns#" xmlns:rdf="http://www.w3.org/1999/02/22-rdf-syntax-ns#">
   <cc:Work>
    <dc:type rdf:resource="http://purl.org/dc/dcmitype/StillImage"/>
    <dc:date>2022-12-12T08:44:43.422229</dc:date>
    <dc:format>image/svg+xml</dc:format>
    <dc:creator>
     <cc:Agent>
      <dc:title>Matplotlib v3.6.2, https://matplotlib.org/</dc:title>
     </cc:Agent>
    </dc:creator>
   </cc:Work>
  </rdf:RDF>
 </metadata>
 <defs>
  <style type="text/css">*{stroke-linejoin: round; stroke-linecap: butt}</style>
 </defs>
 <g id="figure_1">
  <g id="patch_1">
   <path d="M 0 255.263437 
L 460.524375 255.263437 
L 460.524375 0 
L 0 0 
L 0 255.263437 
z
" style="fill: none"/>
  </g>
  <g id="axes_1">
   <g id="LineCollection_1">
    <path d="M 268.986245 73.5449 
L 242.180892 161.12162 
" clip-path="url(#pb46c819dc7)" style="fill: none; stroke: #545557"/>
    <path d="M 268.986245 73.5449 
L 317.914088 116.599831 
" clip-path="url(#pb46c819dc7)" style="fill: none; stroke: #d1d5db"/>
    <path d="M 268.986245 73.5449 
L 199.108855 150.095335 
" clip-path="url(#pb46c819dc7)" style="fill: none; stroke: #b2b5ba"/>
    <path d="M 268.986245 73.5449 
L 230.747535 92.354287 
" clip-path="url(#pb46c819dc7)" style="fill: none; stroke: #c2c5cb"/>
    <path d="M 268.986245 73.5449 
L 322.493592 166.627151 
" clip-path="url(#pb46c819dc7)" style="fill: none; stroke: #444547"/>
    <path d="M 242.180892 161.12162 
L 317.914088 116.599831 
" clip-path="url(#pb46c819dc7)" style="fill: none; stroke: #d1d5db"/>
    <path d="M 242.180892 161.12162 
L 199.108855 150.095335 
" clip-path="url(#pb46c819dc7)" style="fill: none; stroke: #b2b5ba"/>
    <path d="M 242.180892 161.12162 
L 230.747535 92.354287 
" clip-path="url(#pb46c819dc7)" style="fill: none; stroke: #c2c5cb"/>
    <path d="M 242.180892 161.12162 
L 322.493592 166.627151 
" clip-path="url(#pb46c819dc7)" style="fill: none; stroke: #444547"/>
    <path d="M 317.914088 116.599831 
L 230.747535 92.354287 
" clip-path="url(#pb46c819dc7)" style="fill: none; stroke: #b2b5ba"/>
    <path d="M 317.914088 116.599831 
L 322.493592 166.627151 
" clip-path="url(#pb46c819dc7)" style="fill: none; stroke: #444547"/>
    <path d="M 199.108855 150.095335 
L 230.747535 92.354287 
" clip-path="url(#pb46c819dc7)" style="fill: none; stroke: #353637"/>
    <path d="M 199.108855 150.095335 
L 155.354276 145.327645 
" clip-path="url(#pb46c819dc7)" style="fill: none; stroke: #737579"/>
    <path d="M 199.108855 150.095335 
L 173.338958 45.547074 
" clip-path="url(#pb46c819dc7)" style="fill: none; stroke: #646668"/>
    <path d="M 199.108855 150.095335 
L 150.023601 212.617739 
" clip-path="url(#pb46c819dc7)" style="fill: none; stroke: #c2c5cb"/>
    <path d="M 199.108855 150.095335 
L 200.070729 224.106673 
" clip-path="url(#pb46c819dc7)" style="fill: none; stroke: #c2c5cb"/>
    <path d="M 199.108855 150.095335 
L 236.028135 228.819801 
" clip-path="url(#pb46c819dc7)" style="fill: none; stroke: #c2c5cb"/>
    <path d="M 230.747535 92.354287 
L 155.354276 145.327645 
" clip-path="url(#pb46c819dc7)" style="fill: none; stroke: #353637"/>
    <path d="M 230.747535 92.354287 
L 173.338958 45.547074 
" clip-path="url(#pb46c819dc7)" style="fill: none; stroke: #252626"/>
    <path d="M 230.747535 92.354287 
L 201.562744 88.133824 
" clip-path="url(#pb46c819dc7)" style="fill: none; stroke: #b2b5ba"/>
    <path d="M 230.747535 92.354287 
L 138.030783 74.626035 
" clip-path="url(#pb46c819dc7)" style="fill: none; stroke: #b2b5ba"/>
    <path d="M 155.354276 145.327645 
L 173.338958 45.547074 
" clip-path="url(#pb46c819dc7)" style="fill: none; stroke: #444547"/>
    <path d="M 155.354276 145.327645 
L 201.562744 88.133824 
" clip-path="url(#pb46c819dc7)" style="fill: none; stroke: #a3a6aa"/>
    <path d="M 155.354276 145.327645 
L 138.030783 74.626035 
" clip-path="url(#pb46c819dc7)" style="fill: none; stroke: #a3a6aa"/>
    <path d="M 155.354276 145.327645 
L 150.023601 212.617739 
" clip-path="url(#pb46c819dc7)" style="fill: none; stroke: #929599"/>
    <path d="M 155.354276 145.327645 
L 200.070729 224.106673 
" clip-path="url(#pb46c819dc7)" style="fill: none; stroke: #929599"/>
    <path d="M 155.354276 145.327645 
L 236.028135 228.819801 
" clip-path="url(#pb46c819dc7)" style="fill: none; stroke: #929599"/>
    <path d="M 201.562744 88.133824 
L 138.030783 74.626035 
" clip-path="url(#pb46c819dc7)" style="fill: none; stroke: #838589"/>
    <path d="M 150.023601 212.617739 
L 200.070729 224.106673 
" clip-path="url(#pb46c819dc7)" style="fill: none; stroke: #d1d5db"/>
    <path d="M 150.023601 212.617739 
L 236.028135 228.819801 
" clip-path="url(#pb46c819dc7)" style="fill: none; stroke: #d1d5db"/>
    <path d="M 200.070729 224.106673 
L 236.028135 228.819801 
" clip-path="url(#pb46c819dc7)" style="fill: none; stroke: #d1d5db"/>
   </g>
   <g id="PathCollection_1"/>
   <g id="PathCollection_2"/>
   <g id="PathCollection_3"/>
   <g id="PathCollection_4">
    <path d="M 268.986245 75.780968 
C 269.579257 75.780968 270.148061 75.545362 270.567384 75.126039 
C 270.986707 74.706716 271.222313 74.137913 271.222313 73.5449 
C 271.222313 72.951888 270.986707 72.383085 270.567384 71.963762 
C 270.148061 71.544439 269.579257 71.308832 268.986245 71.308832 
C 268.393233 71.308832 267.824429 71.544439 267.405106 71.963762 
C 266.985783 72.383085 266.750177 72.951888 266.750177 73.5449 
C 266.750177 74.137913 266.985783 74.706716 267.405106 75.126039 
C 267.824429 75.545362 268.393233 75.780968 268.986245 75.780968 
z
" clip-path="url(#pb46c819dc7)" style="fill: #440154; stroke: #440154"/>
    <path d="M 242.180892 164.475722 
C 243.07041 164.475722 243.923616 164.122313 244.5526 163.493328 
C 245.181585 162.864344 245.534994 162.011138 245.534994 161.12162 
C 245.534994 160.232102 245.181585 159.378896 244.5526 158.749912 
C 243.923616 158.120928 243.07041 157.767518 242.180892 157.767518 
C 241.291374 157.767518 240.438168 158.120928 239.809184 158.749912 
C 239.1802 159.378896 238.82679 160.232102 238.82679 161.12162 
C 238.82679 162.011138 239.1802 162.864344 239.809184 163.493328 
C 240.438168 164.122313 241.291374 164.475722 242.180892 164.475722 
z
" clip-path="url(#pb46c819dc7)" style="fill: #440154; stroke: #440154"/>
    <path d="M 317.914088 121.932513 
C 319.328332 121.932513 320.684842 121.370628 321.684864 120.370606 
C 322.684885 119.370585 323.24677 118.014075 323.24677 116.599831 
C 323.24677 115.185587 322.684885 113.829076 321.684864 112.829055 
C 320.684842 111.829033 319.328332 111.267148 317.914088 111.267148 
C 316.499844 111.267148 315.143334 111.829033 314.143312 112.829055 
C 313.143291 113.829076 312.581406 115.185587 312.581406 116.599831 
C 312.581406 118.014075 313.143291 119.370585 314.143312 120.370606 
C 315.143334 121.370628 316.499844 121.932513 317.914088 121.932513 
z
" clip-path="url(#pb46c819dc7)" style="fill: #440154; stroke: #440154"/>
    <path d="M 199.108855 155.428018 
C 200.523099 155.428018 201.87961 154.866133 202.879631 153.866111 
C 203.879652 152.86609 204.441537 151.509579 204.441537 150.095335 
C 204.441537 148.681092 203.879652 147.324581 202.879631 146.32456 
C 201.87961 145.324538 200.523099 144.762653 199.108855 144.762653 
C 197.694611 144.762653 196.338101 145.324538 195.338079 146.32456 
C 194.338058 147.324581 193.776173 148.681092 193.776173 150.095335 
C 193.776173 151.509579 194.338058 152.86609 195.338079 153.866111 
C 196.338101 154.866133 197.694611 155.428018 199.108855 155.428018 
z
" clip-path="url(#pb46c819dc7)" style="fill: #46075a; stroke: #46075a"/>
    <path d="M 230.747535 95.933742 
C 231.696818 95.933742 232.607348 95.556588 233.278592 94.885344 
C 233.949836 94.2141 234.32699 93.303569 234.32699 92.354287 
C 234.32699 91.405004 233.949836 90.494474 233.278592 89.82323 
C 232.607348 89.151985 231.696818 88.774831 230.747535 88.774831 
C 229.798252 88.774831 228.887722 89.151985 228.216478 89.82323 
C 227.545234 90.494474 227.16808 91.405004 227.16808 92.354287 
C 227.16808 93.303569 227.545234 94.2141 228.216478 94.885344 
C 228.887722 95.556588 229.798252 95.933742 230.747535 95.933742 
z
" clip-path="url(#pb46c819dc7)" style="fill: #46085c; stroke: #46085c"/>
    <path d="M 322.493592 171.168626 
C 323.698006 171.168626 324.853252 170.690108 325.704901 169.838459 
C 326.556549 168.98681 327.035068 167.831564 327.035068 166.627151 
C 327.035068 165.422737 326.556549 164.267491 325.704901 163.415842 
C 324.853252 162.564194 323.698006 162.085675 322.493592 162.085675 
C 321.289179 162.085675 320.133933 162.564194 319.282284 163.415842 
C 318.430635 164.267491 317.952117 165.422737 317.952117 166.627151 
C 317.952117 167.831564 318.430635 168.98681 319.282284 169.838459 
C 320.133933 170.690108 321.289179 171.168626 322.493592 171.168626 
z
" clip-path="url(#pb46c819dc7)" style="fill: #470d60; stroke: #470d60"/>
    <path d="M 155.354276 150.201042 
C 156.646716 150.201042 157.886395 149.68755 158.800288 148.773657 
C 159.714181 147.859764 160.227673 146.620085 160.227673 145.327645 
C 160.227673 144.035205 159.714181 142.795526 158.800288 141.881633 
C 157.886395 140.96774 156.646716 140.454248 155.354276 140.454248 
C 154.061836 140.454248 152.822157 140.96774 151.908264 141.881633 
C 150.994371 142.795526 150.480879 144.035205 150.480879 145.327645 
C 150.480879 146.620085 150.994371 147.859764 151.908264 148.773657 
C 152.822157 149.68755 154.061836 150.201042 155.354276 150.201042 
z
" clip-path="url(#pb46c819dc7)" style="fill: #443a83; stroke: #443a83"/>
    <path d="M 173.338958 51.024299 
C 174.791535 51.024299 176.184814 50.447184 177.211941 49.420057 
C 178.239068 48.39293 178.816183 46.999651 178.816183 45.547074 
C 178.816183 44.094497 178.239068 42.701218 177.211941 41.674091 
C 176.184814 40.646963 174.791535 40.069848 173.338958 40.069848 
C 171.88638 40.069848 170.493101 40.646963 169.465974 41.674091 
C 168.438847 42.701218 167.861732 44.094497 167.861732 45.547074 
C 167.861732 46.999651 168.438847 48.39293 169.465974 49.420057 
C 170.493101 50.447184 171.88638 51.024299 173.338958 51.024299 
z
" clip-path="url(#pb46c819dc7)" style="fill: #69cd5b; stroke: #69cd5b"/>
    <path d="M 150.023601 217.491136 
C 151.316041 217.491136 152.55572 216.977644 153.469613 216.063751 
C 154.383507 215.149858 154.896998 213.910179 154.896998 212.617739 
C 154.896998 211.325299 154.383507 210.08562 153.469613 209.171727 
C 152.55572 208.257834 151.316041 207.744342 150.023601 207.744342 
C 148.731161 207.744342 147.491482 208.257834 146.577589 209.171727 
C 145.663696 210.08562 145.150204 211.325299 145.150204 212.617739 
C 145.150204 213.910179 145.663696 215.149858 146.577589 216.063751 
C 147.491482 216.977644 148.731161 217.491136 150.023601 217.491136 
z
" clip-path="url(#pb46c819dc7)" style="fill: #fde725; stroke: #fde725"/>
    <path d="M 200.070729 228.98007 
C 201.363169 228.98007 202.602848 228.466578 203.516741 227.552685 
C 204.430634 226.638792 204.944126 225.399113 204.944126 224.106673 
C 204.944126 222.814233 204.430634 221.574554 203.516741 220.66066 
C 202.602848 219.746767 201.363169 219.233276 200.070729 219.233276 
C 198.778289 219.233276 197.53861 219.746767 196.624717 220.66066 
C 195.710824 221.574554 195.197332 222.814233 195.197332 224.106673 
C 195.197332 225.399113 195.710824 226.638792 196.624717 227.552685 
C 197.53861 228.466578 198.778289 228.98007 200.070729 228.98007 
z
" clip-path="url(#pb46c819dc7)" style="fill: #fde725; stroke: #fde725"/>
    <path d="M 236.028135 234.152483 
C 237.442379 234.152483 238.798889 233.590598 239.798911 232.590577 
C 240.798932 231.590555 241.360817 230.234045 241.360817 228.819801 
C 241.360817 227.405557 240.798932 226.049047 239.798911 225.049025 
C 238.798889 224.049004 237.442379 223.487119 236.028135 223.487119 
C 234.613891 223.487119 233.257381 224.049004 232.257359 225.049025 
C 231.257338 226.049047 230.695453 227.405557 230.695453 228.819801 
C 230.695453 230.234045 231.257338 231.590555 232.257359 232.590577 
C 233.257381 233.590598 234.613891 234.152483 236.028135 234.152483 
z
" clip-path="url(#pb46c819dc7)" style="fill: #46075a; stroke: #46075a"/>
    <path d="M 201.562744 93.466506 
C 202.976988 93.466506 204.333499 92.904621 205.33352 91.9046 
C 206.333542 90.904579 206.895427 89.548068 206.895427 88.133824 
C 206.895427 86.71958 206.333542 85.36307 205.33352 84.363048 
C 204.333499 83.363027 202.976988 82.801142 201.562744 82.801142 
C 200.1485 82.801142 198.79199 83.363027 197.791969 84.363048 
C 196.791947 85.36307 196.230062 86.71958 196.230062 88.133824 
C 196.230062 89.548068 196.791947 90.904579 197.791969 91.9046 
C 198.79199 92.904621 200.1485 93.466506 201.562744 93.466506 
z
" clip-path="url(#pb46c819dc7)" style="fill: #46075a; stroke: #46075a"/>
    <path d="M 138.030783 79.810146 
C 139.405625 79.810146 140.724342 79.263915 141.696502 78.291755 
C 142.668662 77.319595 143.214893 76.000877 143.214893 74.626035 
C 143.214893 73.251193 142.668662 71.932476 141.696502 70.960316 
C 140.724342 69.988155 139.405625 69.441925 138.030783 69.441925 
C 136.65594 69.441925 135.337223 69.988155 134.365063 70.960316 
C 133.392903 71.932476 132.846672 73.251193 132.846672 74.626035 
C 132.846672 76.000877 133.392903 77.319595 134.365063 78.291755 
C 135.337223 79.263915 136.65594 79.810146 138.030783 79.810146 
z
" clip-path="url(#pb46c819dc7)" style="fill: #46085c; stroke: #46085c"/>
   </g>
   <g id="text_1">
    <g clip-path="url(#pb46c819dc7)">
     <text style="font: 6px 'Arial', sans-serif; text-anchor: middle" x="242.180892" y="159.92912" transform="rotate(-0 242.180892 159.92912)">nuclear division</text>
    </g>
   </g>
   <g id="text_2">
    <g clip-path="url(#pb46c819dc7)">
     <text style="font: 6px 'Arial', sans-serif; text-anchor: middle" x="317.914088" y="115.407331" transform="rotate(-0 317.914088 115.407331)">mitotic nuclear division</text>
    </g>
   </g>
   <g id="text_3">
    <g clip-path="url(#pb46c819dc7)">
     <text style="font: 6px 'Arial', sans-serif; text-anchor: middle" x="199.108855" y="148.902835" transform="rotate(-0 199.108855 148.902835)">pattern specification process</text>
    </g>
   </g>
   <g id="text_4">
    <g clip-path="url(#pb46c819dc7)">
     <text style="font: 6px 'Arial', sans-serif; text-anchor: middle" x="230.747535" y="91.091474" transform="rotate(-0 230.747535 91.091474)">embryonic morphogenesis</text>
    </g>
   </g>
   <g id="text_5">
    <g clip-path="url(#pb46c819dc7)">
     <text style="font: 6px 'Arial', sans-serif; text-anchor: middle" x="173.338958" y="44.284261" transform="rotate(-0 173.338958 44.284261)">sensory organ development</text>
    </g>
   </g>
   <g id="text_6">
    <g clip-path="url(#pb46c819dc7)">
     <text style="font: 6px 'Arial', sans-serif; text-anchor: middle" x="322.493592" y="165.364338" transform="rotate(-0 322.493592 165.364338)">regulation of cell cycle phase transition</text>
    </g>
   </g>
   <g id="text_7">
    <g clip-path="url(#pb46c819dc7)">
     <text style="font: 6px 'Arial', sans-serif; text-anchor: middle" x="201.562744" y="86.941324" transform="rotate(-0 201.562744 86.941324)">extracellular matrix</text>
    </g>
   </g>
   <g id="text_8">
    <g clip-path="url(#pb46c819dc7)">
     <text style="font: 6px 'Arial', sans-serif; text-anchor: middle" x="138.030783" y="73.363223" transform="rotate(-0 138.030783 73.363223)">external encapsulating structure</text>
    </g>
   </g>
   <g id="text_9">
    <g clip-path="url(#pb46c819dc7)">
     <text style="font: 6px 'Arial', sans-serif; text-anchor: middle" x="150.023601" y="211.354927" transform="rotate(-0 150.023601 211.354927)">receptor ligand activity</text>
    </g>
   </g>
   <g id="text_10">
    <g clip-path="url(#pb46c819dc7)">
     <text style="font: 6px 'Arial', sans-serif; text-anchor: middle" x="200.070729" y="222.84386" transform="rotate(-0 200.070729 222.84386)">signaling receptor activator activity</text>
    </g>
   </g>
   <g id="text_11">
    <g clip-path="url(#pb46c819dc7)">
     <text style="font: 6px 'Arial', sans-serif; text-anchor: middle" x="236.028135" y="227.556989" transform="rotate(-0 236.028135 227.556989)">receptor regulator activity</text>
    </g>
   </g>
   <g id="text_12">
    <g clip-path="url(#pb46c819dc7)">
     <text style="fill: #1a1a1a; font: 9px 'Arial', sans-serif; text-anchor: middle" x="268.986245" y="71.650682" transform="rotate(-0 268.986245 71.650682)">organelle fission</text>
    </g>
   </g>
   <g id="text_13">
    <g clip-path="url(#pb46c819dc7)">
     <text style="fill: #1a1a1a; font: 9px 'Arial', sans-serif; text-anchor: middle" x="155.354276" y="143.433426" transform="rotate(-0 155.354276 143.433426)">skeletal system development</text>
    </g>
   </g>
   <g id="text_14">
    <text style="fill: #262626; font: 700 18px 'Arial', sans-serif; text-anchor: middle" x="230.262187" y="20.303437" transform="rotate(-0 230.262187 20.303437)">ClusterGoSummary_TPDE_TMDS_RG2Changes.csv</text>
   </g>
   <g id="legend_1">
    <g id="patch_2">
     <path d="M 120.9375 203.397937 
L 203.742188 203.397937 
Q 204.942187 203.397937 204.942187 202.197937 
L 204.942187 185.735437 
Q 204.942187 184.535437 203.742188 184.535437 
L 120.9375 184.535437 
Q 119.7375 184.535437 119.7375 185.735437 
L 119.7375 202.197937 
Q 119.7375 203.397937 120.9375 203.397937 
z
" style="fill: #ffffff; opacity: 0.8; stroke: #cccccc; stroke-linejoin: miter"/>
    </g>
    <g id="patch_3">
     <path d="M 122.1375 191.247937 
L 123.6375 191.247937 
L 123.6375 187.047937 
L 122.1375 187.047937 
z
" style="fill: #48186a"/>
    </g>
    <g id="patch_4">
     <path d="M 123.6375 191.247937 
L 125.1375 191.247937 
L 125.1375 187.047937 
L 123.6375 187.047937 
z
" style="fill: #424086"/>
    </g>
    <g id="patch_5">
     <path d="M 125.1375 191.247937 
L 126.6375 191.247937 
L 126.6375 187.047937 
L 125.1375 187.047937 
z
" style="fill: #33638d"/>
    </g>
    <g id="patch_6">
     <path d="M 126.6375 191.247937 
L 128.1375 191.247937 
L 128.1375 187.047937 
L 126.6375 187.047937 
z
" style="fill: #26828e"/>
    </g>
    <g id="patch_7">
     <path d="M 128.1375 191.247937 
L 129.6375 191.247937 
L 129.6375 187.047937 
L 128.1375 187.047937 
z
" style="fill: #1fa088"/>
    </g>
    <g id="patch_8">
     <path d="M 129.6375 191.247937 
L 131.1375 191.247937 
L 131.1375 187.047937 
L 129.6375 187.047937 
z
" style="fill: #3fbc73"/>
    </g>
    <g id="patch_9">
     <path d="M 131.1375 191.247937 
L 132.6375 191.247937 
L 132.6375 187.047937 
L 131.1375 187.047937 
z
" style="fill: #84d44b"/>
    </g>
    <g id="patch_10">
     <path d="M 132.6375 191.247937 
L 134.1375 191.247937 
L 134.1375 187.047937 
L 132.6375 187.047937 
z
" style="fill: #d8e219"/>
    </g>
    <g id="text_15">
     <text style="fill: #262626; font: 6px 'Arial', sans-serif; text-anchor: start" x="138.9375" y="191.247937" transform="rotate(-0 138.9375 191.247937)">P.adj:3.01e-06,4.83e-02</text>
    </g>
    <g id="patch_11">
     <path d="M 122.1375 199.805437 
L 123.6375 199.805437 
L 123.6375 195.605437 
L 122.1375 195.605437 
z
" style="fill: #d1d5db"/>
    </g>
    <g id="patch_12">
     <path d="M 123.6375 199.805437 
L 125.1375 199.805437 
L 125.1375 195.605437 
L 123.6375 195.605437 
z
" style="fill: #b2b5ba"/>
    </g>
    <g id="patch_13">
     <path d="M 125.1375 199.805437 
L 126.6375 199.805437 
L 126.6375 195.605437 
L 125.1375 195.605437 
z
" style="fill: #a3a6aa"/>
    </g>
    <g id="patch_14">
     <path d="M 126.6375 199.805437 
L 128.1375 199.805437 
L 128.1375 195.605437 
L 126.6375 195.605437 
z
" style="fill: #838589"/>
    </g>
    <g id="patch_15">
     <path d="M 128.1375 199.805437 
L 129.6375 199.805437 
L 129.6375 195.605437 
L 128.1375 195.605437 
z
" style="fill: #737579"/>
    </g>
    <g id="patch_16">
     <path d="M 129.6375 199.805437 
L 131.1375 199.805437 
L 131.1375 195.605437 
L 129.6375 195.605437 
z
" style="fill: #545557"/>
    </g>
    <g id="patch_17">
     <path d="M 131.1375 199.805437 
L 132.6375 199.805437 
L 132.6375 195.605437 
L 131.1375 195.605437 
z
" style="fill: #444547"/>
    </g>
    <g id="patch_18">
     <path d="M 132.6375 199.805437 
L 134.1375 199.805437 
L 134.1375 195.605437 
L 132.6375 195.605437 
z
" style="fill: #252626"/>
    </g>
    <g id="text_16">
     <text style="fill: #262626; font: 6px 'Arial', sans-serif; text-anchor: start" x="138.9375" y="199.805437" transform="rotate(-0 138.9375 199.805437)">G.shared:4-47</text>
    </g>
   </g>
   <g id="legend_2">
    <g id="patch_19">
     <path d="M 122.862188 267.239438 
L 182.622187 267.239438 
Q 183.822187 267.239438 183.822187 266.039437 
L 183.822187 227.2035 
Q 183.822187 226.0035 182.622187 226.0035 
L 122.862188 226.0035 
Q 121.662188 226.0035 121.662188 227.2035 
L 121.662188 266.039437 
Q 121.662188 267.239438 122.862188 267.239438 
z
" style="fill: #ffffff; opacity: 0.8; stroke: #cccccc; stroke-linejoin: miter"/>
    </g>
    <g id="text_17">
     <text style="fill: #262626; font: 12px 'Arial', sans-serif; text-anchor: start" x="124.062188" y="236.992875" transform="rotate(-0 124.062188 236.992875)">No. Genes</text>
    </g>
    <g id="PathCollection_5">
     <defs>
      <path id="m38364a5122" d="M 0 2.236068 
C 0.593012 2.236068 1.161816 2.000462 1.581139 1.581139 
C 2.000462 1.161816 2.236068 0.593012 2.236068 0 
C 2.236068 -0.593012 2.000462 -1.161816 1.581139 -1.581139 
C 1.161816 -2.000462 0.593012 -2.236068 0 -2.236068 
C -0.593012 -2.236068 -1.161816 -2.000462 -1.581139 -1.581139 
C -2.000462 -1.161816 -2.236068 -0.593012 -2.236068 0 
C -2.236068 0.593012 -2.000462 1.161816 -1.581139 1.581139 
C -1.161816 2.000462 -0.593012 2.236068 0 2.236068 
z
" style="stroke: #222222"/>
     </defs>
     <g>
      <use xlink:href="#m38364a5122" x="147.005625" y="245.097562" style="fill: #222222; stroke: #222222"/>
     </g>
    </g>
    <g id="text_18">
     <text style="fill: #262626; font: 6px 'Arial', sans-serif; text-anchor: start" x="157.805625" y="246.672562" transform="rotate(-0 157.805625 246.672562)">35</text>
    </g>
    <g id="PathCollection_6">
     <defs>
      <path id="mf0821c2c0b" d="M 0 4.716991 
C 1.250961 4.716991 2.450853 4.219979 3.335416 3.335416 
C 4.219979 2.450853 4.716991 1.250961 4.716991 0 
C 4.716991 -1.250961 4.219979 -2.450853 3.335416 -3.335416 
C 2.450853 -4.219979 1.250961 -4.716991 0 -4.716991 
C -1.250961 -4.716991 -2.450853 -4.219979 -3.335416 -3.335416 
C -4.219979 -2.450853 -4.716991 -1.250961 -4.716991 0 
C -4.716991 1.250961 -4.219979 2.450853 -3.335416 3.335416 
C -2.450853 4.219979 -1.250961 4.716991 0 4.716991 
z
" style="stroke: #222222"/>
     </defs>
     <g>
      <use xlink:href="#mf0821c2c0b" x="147.005625" y="253.58475" style="fill: #222222; stroke: #222222"/>
     </g>
    </g>
    <g id="text_19">
     <text style="fill: #262626; font: 6px 'Arial', sans-serif; text-anchor: start" x="157.805625" y="255.15975" transform="rotate(-0 157.805625 255.15975)">39</text>
    </g>
    <g id="PathCollection_7">
     <defs>
      <path id="m6cc98748bf" d="M 0 5.477226 
C 1.452577 5.477226 2.845856 4.900111 3.872983 3.872983 
C 4.900111 2.845856 5.477226 1.452577 5.477226 0 
C 5.477226 -1.452577 4.900111 -2.845856 3.872983 -3.872983 
C 2.845856 -4.900111 1.452577 -5.477226 0 -5.477226 
C -1.452577 -5.477226 -2.845856 -4.900111 -3.872983 -3.872983 
C -4.900111 -2.845856 -5.477226 -1.452577 -5.477226 0 
C -5.477226 1.452577 -4.900111 2.845856 -3.872983 3.872983 
C -2.845856 4.900111 -1.452577 5.477226 0 5.477226 
z
" style="stroke: #222222"/>
     </defs>
     <g>
      <use xlink:href="#m6cc98748bf" x="147.005625" y="262.071937" style="fill: #222222; stroke: #222222"/>
     </g>
    </g>
    <g id="text_20">
     <text style="fill: #262626; font: 6px 'Arial', sans-serif; text-anchor: start" x="157.805625" y="263.646937" transform="rotate(-0 157.805625 263.646937)">51</text>
    </g>
   </g>
   <g id="legend_3">
    <g id="patch_20">
     <path d="M 122.862188 267.239438 
L 182.622187 267.239438 
Q 183.822187 267.239438 183.822187 266.039437 
L 183.822187 227.2035 
Q 183.822187 226.0035 182.622187 226.0035 
L 122.862188 226.0035 
Q 121.662188 226.0035 121.662188 227.2035 
L 121.662188 266.039437 
Q 121.662188 267.239438 122.862188 267.239438 
z
" style="fill: #ffffff; opacity: 0.8; stroke: #cccccc; stroke-linejoin: miter"/>
    </g>
    <g id="text_21">
     <text style="fill: #262626; font: 12px 'Arial', sans-serif; text-anchor: start" x="124.062188" y="236.992875" transform="rotate(-0 124.062188 236.992875)">No. Genes</text>
    </g>
    <g id="PathCollection_8">
     <g>
      <use xlink:href="#m38364a5122" x="147.005625" y="245.097562" style="fill: #222222; stroke: #222222"/>
     </g>
    </g>
    <g id="text_22">
     <text style="fill: #262626; font: 6px 'Arial', sans-serif; text-anchor: start" x="157.805625" y="246.672562" transform="rotate(-0 157.805625 246.672562)">35</text>
    </g>
    <g id="PathCollection_9">
     <g>
      <use xlink:href="#mf0821c2c0b" x="147.005625" y="253.58475" style="fill: #222222; stroke: #222222"/>
     </g>
    </g>
    <g id="text_23">
     <text style="fill: #262626; font: 6px 'Arial', sans-serif; text-anchor: start" x="157.805625" y="255.15975" transform="rotate(-0 157.805625 255.15975)">39</text>
    </g>
    <g id="PathCollection_10">
     <g>
      <use xlink:href="#m6cc98748bf" x="147.005625" y="262.071937" style="fill: #222222; stroke: #222222"/>
     </g>
    </g>
    <g id="text_24">
     <text style="fill: #262626; font: 6px 'Arial', sans-serif; text-anchor: start" x="157.805625" y="263.646937" transform="rotate(-0 157.805625 263.646937)">51</text>
    </g>
   </g>
  </g>
 </g>
 <defs>
  <clipPath id="pb46c819dc7">
   <rect x="118.662188" y="26.303437" width="223.2" height="221.76"/>
  </clipPath>
 </defs>
</svg>
